%TF.GenerationSoftware,KiCad,Pcbnew,10.99.0-unknown-ab00e101b5~187~ubuntu24.04.1*%
%TF.CreationDate,2026-04-04T19:48:31-04:00*%
%TF.ProjectId,PWMWatch,50574d57-6174-4636-982e-6b696361645f,rev?*%
%TF.SameCoordinates,Original*%
%TF.FileFunction,Paste,Bot*%
%TF.FilePolarity,Positive*%
%FSLAX46Y46*%
G04 Gerber Fmt 4.6, Leading zero omitted, Abs format (unit mm)*
G04 Created by KiCad (PCBNEW 10.99.0-unknown-ab00e101b5~187~ubuntu24.04.1) date 2026-04-04 19:48:31*
%MOMM*%
%LPD*%
G01*
G04 APERTURE LIST*
G04 Aperture macros list*
%AMRoundRect*
0 Rectangle with rounded corners*
0 $1 Rounding radius*
0 $2 $3 $4 $5 $6 $7 $8 $9 X,Y pos of 4 corners*
0 Add a 4 corners polygon primitive as box body*
4,1,4,$2,$3,$4,$5,$6,$7,$8,$9,$2,$3,0*
0 Add four circle primitives for the rounded corners*
1,1,$1+$1,$2,$3*
1,1,$1+$1,$4,$5*
1,1,$1+$1,$6,$7*
1,1,$1+$1,$8,$9*
0 Add four rect primitives between the rounded corners*
20,1,$1+$1,$2,$3,$4,$5,0*
20,1,$1+$1,$4,$5,$6,$7,0*
20,1,$1+$1,$6,$7,$8,$9,0*
20,1,$1+$1,$8,$9,$2,$3,0*%
G04 Aperture macros list end*
%ADD10R,1.500000X0.800000*%
%ADD11R,1.500000X1.150000*%
%ADD12R,1.150000X1.500000*%
%ADD13R,1.700000X1.400000*%
%ADD14R,1.549400X0.660400*%
%ADD15R,1.905000X1.295400*%
%ADD16RoundRect,0.250000X0.475000X-0.250000X0.475000X0.250000X-0.475000X0.250000X-0.475000X-0.250000X0*%
%ADD17RoundRect,0.150000X-0.200000X0.150000X-0.200000X-0.150000X0.200000X-0.150000X0.200000X0.150000X0*%
%ADD18RoundRect,0.200000X-0.275000X0.200000X-0.275000X-0.200000X0.275000X-0.200000X0.275000X0.200000X0*%
%ADD19RoundRect,0.375000X-0.625000X-0.375000X0.625000X-0.375000X0.625000X0.375000X-0.625000X0.375000X0*%
%ADD20RoundRect,0.500000X-0.500000X-1.400000X0.500000X-1.400000X0.500000X1.400000X-0.500000X1.400000X0*%
%ADD21R,1.400000X1.500000*%
%ADD22RoundRect,0.250000X-0.475000X0.250000X-0.475000X-0.250000X0.475000X-0.250000X0.475000X0.250000X0*%
%ADD23RoundRect,0.200000X0.275000X-0.200000X0.275000X0.200000X-0.275000X0.200000X-0.275000X-0.200000X0*%
G04 APERTURE END LIST*
D10*
%TO.C,J2*%
X105030000Y-93530000D03*
X105030000Y-94630000D03*
X105030000Y-95730000D03*
X105030000Y-96830000D03*
X105030000Y-97930000D03*
X105030000Y-99030000D03*
X105030000Y-100130000D03*
X105030000Y-101230000D03*
D11*
X111880000Y-102805000D03*
D12*
X116605000Y-95630000D03*
D13*
X102130000Y-89780000D03*
X102130000Y-102680000D03*
D12*
X116605000Y-93330000D03*
X116605000Y-102230000D03*
%TD*%
D14*
%TO.C,BT1*%
X141720000Y-104240901D03*
X141720000Y-105240899D03*
D15*
X144244999Y-102940901D03*
X144244999Y-106540899D03*
%TD*%
D16*
%TO.C,C18*%
X130540000Y-87380000D03*
X130540000Y-85480000D03*
%TD*%
D17*
%TO.C,D2*%
X126560000Y-88520000D03*
X126560000Y-87120000D03*
%TD*%
D18*
%TO.C,R7*%
X121420000Y-87295000D03*
X121420000Y-88945000D03*
%TD*%
D19*
%TO.C,U6*%
X130360000Y-106630000D03*
X130360000Y-104330000D03*
D20*
X136660000Y-104330000D03*
D19*
X130360000Y-102030000D03*
%TD*%
D18*
%TO.C,R12*%
X118410000Y-87250000D03*
X118410000Y-88900000D03*
%TD*%
D16*
%TO.C,C22*%
X139390000Y-106330000D03*
X139390000Y-104430000D03*
%TD*%
D18*
%TO.C,R30*%
X134452742Y-85932500D03*
X134452742Y-87582500D03*
%TD*%
D21*
%TO.C,L2*%
X135270000Y-91300000D03*
X131470000Y-91300000D03*
%TD*%
D22*
%TO.C,C2*%
X128360000Y-87330000D03*
X128360000Y-89230000D03*
%TD*%
D23*
%TO.C,R11*%
X125020000Y-88860000D03*
X125020000Y-87210000D03*
%TD*%
D16*
%TO.C,C19*%
X127880000Y-107230000D03*
X127880000Y-105330000D03*
%TD*%
%TO.C,C20*%
X125830000Y-107240000D03*
X125830000Y-105340000D03*
%TD*%
D18*
%TO.C,R9*%
X119960000Y-87255000D03*
X119960000Y-88905000D03*
%TD*%
M02*
