M48
; DRILL file KiCad 10.99.0-unknown-ab00e101b5~187~ubuntu24.04.1 date 2026-04-05T09:43:59
; FORMAT={-:-/ absolute / metric / decimal}
; #@! TF.CreationDate,2026-04-05T09:43:59-04:00
; #@! TF.GenerationSoftware,Kicad,Pcbnew,10.99.0-unknown-ab00e101b5~187~ubuntu24.04.1
; #@! TF.FileFunction,Plated,1,2,PTH
FMAT,2
METRIC
; #@! TA.AperFunction,Plated,PTH,ViaDrill
T1C0.300
; #@! TA.AperFunction,Plated,PTH,ComponentDrill
T2C0.600
%
G90
G05
T1
X102.1Y-95.33
X102.34Y-96.9
X102.965Y-92.18
X106.71Y-96.79
X106.84Y-94.53
X107.78Y-98.795
X108.26Y-85.3
X108.746Y-93.986
X109.41Y-92.77
X109.693Y-97.033
X110.596Y-94.804
X111.502Y-96.072
X112.23Y-100.34
X112.86Y-94.48
X113.26Y-102.6
X113.62Y-100.58
X113.69Y-99.28
X114.49Y-95.44
X115.41Y-99.25
X116.44Y-91.47
X117.97Y-82.602
X118.04Y-96.49
X118.37Y-103.18
X118.633Y-98.613
X118.661Y-97.73
X119.01Y-84.03
X119.533Y-98.563
X119.96Y-84.07
X120.1Y-92.897
X120.36Y-102.84
X120.55Y-100.67
X120.98Y-84.03
X121.29Y-91.56
X121.542Y-88.91
X122.473Y-89.998
X122.99Y-83.93
X123.26Y-89.64
X123.43Y-91.3
X123.82Y-84.1
X124.52Y-105.53
X124.97Y-82.602
X124.98Y-104.32
X125.56Y-91.5
X125.97Y-82.602
X125.98Y-103.48
X126.335Y-91.699
X126.65Y-89.52
X127.2Y-104.37
X127.385Y-94.05
X127.55Y-107.46
X127.97Y-82.602
X128.47Y-85.402
X128.78Y-102.03
X129.32Y-95.58
X130.065Y-95.235
X130.19Y-94.445
X130.84Y-92.5
X131.72Y-95.2
X131.82Y-89.48
X132.21Y-102.3
X132.42Y-85.611
X132.47Y-98.92
X132.56Y-100.45
X132.81Y-88.85
X133.63Y-94.76
X133.994Y-101.318
X135.69Y-95.35
X135.76Y-101.21
X136.7Y-95.62
X136.7Y-97.65
X138.36Y-96.32
X139.298Y-104.495
T2
G00X138.385Y-88.8
M15
G01X139.485Y-88.8
M16
G05
G00X138.385Y-97.44
M15
G01X139.485Y-97.44
M16
G05
G00X142.715Y-88.8
M15
G01X143.515Y-88.8
M16
G05
G00X142.715Y-97.44
M15
G01X143.515Y-97.44
M16
G05
M30
