%TF.GenerationSoftware,KiCad,Pcbnew,10.99.0-unknown-ab00e101b5~187~ubuntu24.04.1*%
%TF.CreationDate,2026-04-04T19:48:25-04:00*%
%TF.ProjectId,PWMWatch,50574d57-6174-4636-982e-6b696361645f,rev?*%
%TF.SameCoordinates,Original*%
%TF.FileFunction,Copper,L2,Bot*%
%TF.FilePolarity,Positive*%
%FSLAX46Y46*%
G04 Gerber Fmt 4.6, Leading zero omitted, Abs format (unit mm)*
G04 Created by KiCad (PCBNEW 10.99.0-unknown-ab00e101b5~187~ubuntu24.04.1) date 2026-04-04 19:48:25*
%MOMM*%
%LPD*%
G01*
G04 APERTURE LIST*
G04 Aperture macros list*
%AMRoundRect*
0 Rectangle with rounded corners*
0 $1 Rounding radius*
0 $2 $3 $4 $5 $6 $7 $8 $9 X,Y pos of 4 corners*
0 Add a 4 corners polygon primitive as box body*
4,1,4,$2,$3,$4,$5,$6,$7,$8,$9,$2,$3,0*
0 Add four circle primitives for the rounded corners*
1,1,$1+$1,$2,$3*
1,1,$1+$1,$4,$5*
1,1,$1+$1,$6,$7*
1,1,$1+$1,$8,$9*
0 Add four rect primitives between the rounded corners*
20,1,$1+$1,$2,$3,$4,$5,0*
20,1,$1+$1,$4,$5,$6,$7,0*
20,1,$1+$1,$6,$7,$8,$9,0*
20,1,$1+$1,$8,$9,$2,$3,0*%
G04 Aperture macros list end*
%TA.AperFunction,ComponentPad*%
%ADD10O,2.100000X1.000000*%
%TD*%
%TA.AperFunction,ComponentPad*%
%ADD11O,1.800000X1.000000*%
%TD*%
%TA.AperFunction,SMDPad,CuDef*%
%ADD12R,1.500000X0.800000*%
%TD*%
%TA.AperFunction,SMDPad,CuDef*%
%ADD13R,1.500000X1.150000*%
%TD*%
%TA.AperFunction,SMDPad,CuDef*%
%ADD14R,1.150000X1.500000*%
%TD*%
%TA.AperFunction,SMDPad,CuDef*%
%ADD15R,1.700000X1.400000*%
%TD*%
%TA.AperFunction,SMDPad,CuDef*%
%ADD16R,1.549400X0.660400*%
%TD*%
%TA.AperFunction,SMDPad,CuDef*%
%ADD17R,1.905000X1.295400*%
%TD*%
%TA.AperFunction,SMDPad,CuDef*%
%ADD18RoundRect,0.250000X0.475000X-0.250000X0.475000X0.250000X-0.475000X0.250000X-0.475000X-0.250000X0*%
%TD*%
%TA.AperFunction,SMDPad,CuDef*%
%ADD19RoundRect,0.150000X-0.200000X0.150000X-0.200000X-0.150000X0.200000X-0.150000X0.200000X0.150000X0*%
%TD*%
%TA.AperFunction,SMDPad,CuDef*%
%ADD20RoundRect,0.200000X-0.275000X0.200000X-0.275000X-0.200000X0.275000X-0.200000X0.275000X0.200000X0*%
%TD*%
%TA.AperFunction,SMDPad,CuDef*%
%ADD21RoundRect,0.375000X-0.625000X-0.375000X0.625000X-0.375000X0.625000X0.375000X-0.625000X0.375000X0*%
%TD*%
%TA.AperFunction,SMDPad,CuDef*%
%ADD22RoundRect,0.500000X-0.500000X-1.400000X0.500000X-1.400000X0.500000X1.400000X-0.500000X1.400000X0*%
%TD*%
%TA.AperFunction,SMDPad,CuDef*%
%ADD23R,1.400000X1.500000*%
%TD*%
%TA.AperFunction,SMDPad,CuDef*%
%ADD24RoundRect,0.250000X-0.475000X0.250000X-0.475000X-0.250000X0.475000X-0.250000X0.475000X0.250000X0*%
%TD*%
%TA.AperFunction,SMDPad,CuDef*%
%ADD25RoundRect,0.200000X0.275000X-0.200000X0.275000X0.200000X-0.275000X0.200000X-0.275000X-0.200000X0*%
%TD*%
%TA.AperFunction,ViaPad*%
%ADD26C,0.600000*%
%TD*%
%TA.AperFunction,ViaPad*%
%ADD27C,0.500000*%
%TD*%
%TA.AperFunction,Conductor*%
%ADD28C,0.200000*%
%TD*%
%TA.AperFunction,Conductor*%
%ADD29C,0.250000*%
%TD*%
G04 APERTURE END LIST*
D10*
%TO.P,J1,SH*%
%TO.N,N/C*%
X138935000Y-97440000D03*
D11*
X143115000Y-97440000D03*
D10*
X138935000Y-88800000D03*
D11*
X143115000Y-88800000D03*
%TD*%
D12*
%TO.P,J2,1,DAT2_1*%
%TO.N,unconnected-(J2-DAT2-Pad1)*%
X105030000Y-93530000D03*
%TO.P,J2,2,CD/DAT3_2*%
%TO.N,/CS*%
X105030000Y-94630000D03*
%TO.P,J2,3,CMD_3*%
%TO.N,/MOSI*%
X105030000Y-95730000D03*
%TO.P,J2,4,VDD_4*%
%TO.N,+3V3*%
X105030000Y-96830000D03*
%TO.P,J2,5,CLK_5*%
%TO.N,/SCK*%
X105030000Y-97930000D03*
%TO.P,J2,6,VSS_6*%
%TO.N,GND*%
X105030000Y-99030000D03*
%TO.P,J2,7,DAT0_7*%
%TO.N,/MISO*%
X105030000Y-100130000D03*
%TO.P,J2,8,DAT1_8*%
%TO.N,unconnected-(J2-DAT1-Pad8)*%
X105030000Y-101230000D03*
D13*
%TO.P,J2,9,DETECT_LEVER_9*%
%TO.N,unconnected-(J2-DETECT_LEVER-Pad9)*%
X111880000Y-102805000D03*
D14*
%TO.P,J2,10,DETECT_SWITCH_10*%
%TO.N,unconnected-(J2-DETECT_SWITCH-Pad10)*%
X116605000Y-95630000D03*
D15*
%TO.P,J2,P$1*%
%TO.N,N/C*%
X102130000Y-89780000D03*
%TO.P,J2,P$2*%
X102130000Y-102680000D03*
D14*
%TO.P,J2,P$3*%
X116605000Y-93330000D03*
%TO.P,J2,P$5*%
X116605000Y-102230000D03*
%TD*%
D16*
%TO.P,BT1,1,+_1*%
%TO.N,/V_{Li}*%
X141720000Y-104240901D03*
%TO.P,BT1,2,-_2*%
%TO.N,GND*%
X141720000Y-105240899D03*
D17*
%TO.P,BT1,3*%
%TO.N,N/C*%
X144244999Y-102940901D03*
%TO.P,BT1,4*%
X144244999Y-106540899D03*
%TD*%
D18*
%TO.P,C18,1*%
%TO.N,+3V3*%
X130540000Y-87380000D03*
%TO.P,C18,2*%
%TO.N,GND*%
X130540000Y-85480000D03*
%TD*%
D19*
%TO.P,D2,1,K_1*%
%TO.N,+3V3*%
X126560000Y-88520000D03*
%TO.P,D2,2,A_2*%
%TO.N,Net-(CFAL12856A1-RES)*%
X126560000Y-87120000D03*
%TD*%
D20*
%TO.P,R7,1*%
%TO.N,Net-(CFAL12856A1-D4)*%
X121420000Y-87295000D03*
%TO.P,R7,2*%
%TO.N,GND*%
X121420000Y-88945000D03*
%TD*%
D21*
%TO.P,U6,1,GND_1*%
%TO.N,GND*%
X130360000Y-106630000D03*
%TO.P,U6,2,VO_2*%
%TO.N,+3V3*%
X130360000Y-104330000D03*
D22*
X136660000Y-104330000D03*
D21*
%TO.P,U6,3,VI_3*%
%TO.N,/V_{BAT}*%
X130360000Y-102030000D03*
%TD*%
D20*
%TO.P,R12,1*%
%TO.N,Net-(CFAL12856A1-IREF)*%
X118410000Y-87250000D03*
%TO.P,R12,2*%
%TO.N,GND*%
X118410000Y-88900000D03*
%TD*%
D18*
%TO.P,C22,1*%
%TO.N,GND*%
X139390000Y-106330000D03*
%TO.P,C22,2*%
%TO.N,/V_{Li}*%
X139390000Y-104430000D03*
%TD*%
D20*
%TO.P,R30,1*%
%TO.N,Net-(CFAL12856A1-R{slash}W)*%
X134452742Y-85932500D03*
%TO.P,R30,2*%
%TO.N,GND*%
X134452742Y-87582500D03*
%TD*%
D23*
%TO.P,L2,1,1_1*%
%TO.N,+3V3*%
X135270000Y-91300000D03*
%TO.P,L2,2,2_2*%
%TO.N,Net-(D6-A)*%
X131470000Y-91300000D03*
%TD*%
D24*
%TO.P,C2,1*%
%TO.N,Net-(CFAL12856A1-RES)*%
X128360000Y-87330000D03*
%TO.P,C2,2*%
%TO.N,GND*%
X128360000Y-89230000D03*
%TD*%
D25*
%TO.P,R11,1*%
%TO.N,+3V3*%
X125020000Y-88860000D03*
%TO.P,R11,2*%
%TO.N,Net-(CFAL12856A1-RES)*%
X125020000Y-87210000D03*
%TD*%
D18*
%TO.P,C19,1*%
%TO.N,GND*%
X127880000Y-107230000D03*
%TO.P,C19,2*%
%TO.N,/V_{BAT}*%
X127880000Y-105330000D03*
%TD*%
%TO.P,C20,1*%
%TO.N,GND*%
X125830000Y-107240000D03*
%TO.P,C20,2*%
%TO.N,+3V3*%
X125830000Y-105340000D03*
%TD*%
D20*
%TO.P,R9,1*%
%TO.N,Net-(CFAL12856A1-D6)*%
X119960000Y-87255000D03*
%TO.P,R9,2*%
%TO.N,GND*%
X119960000Y-88905000D03*
%TD*%
D26*
%TO.N,GND*%
X111501818Y-96072177D03*
X108260000Y-85300000D03*
X120360000Y-102840000D03*
X127970000Y-82602500D03*
X102100000Y-95330000D03*
X125980000Y-103480000D03*
X128470000Y-85402500D03*
X127550000Y-107460000D03*
X123430000Y-91300000D03*
X123260000Y-89640000D03*
X132470000Y-98920000D03*
X126650000Y-89520000D03*
X124520000Y-105530000D03*
X121542500Y-88910000D03*
X120550000Y-100670000D03*
X102340000Y-96900000D03*
X132810000Y-88850000D03*
X125970000Y-82602500D03*
X132210000Y-102300000D03*
X135690000Y-95350000D03*
X118370000Y-103180000D03*
X138360000Y-96320000D03*
%TO.N,Net-(J1-CC1)*%
X136700000Y-95620000D03*
X136700000Y-97650000D03*
%TO.N,+3V3*%
X123820000Y-84100000D03*
D27*
X130840000Y-92500002D03*
D26*
X115410000Y-99250000D03*
X113690000Y-99280000D03*
X113260000Y-102600000D03*
X106710000Y-96790000D03*
X124980000Y-104320000D03*
X132560000Y-100450000D03*
X113620000Y-100580000D03*
X117970000Y-82602500D03*
%TO.N,Net-(U1-VBAT)*%
X127385267Y-94050000D03*
X129320000Y-95580000D03*
%TO.N,Net-(D6-A)*%
X131820000Y-89480000D03*
%TO.N,/V_{Li}*%
X139297998Y-104494769D03*
X133993643Y-101317975D03*
X135760000Y-101210000D03*
%TO.N,/SCL*%
X109693290Y-97032910D03*
X131720000Y-95200000D03*
X125560000Y-91500000D03*
X102965000Y-92180000D03*
X130065000Y-95235000D03*
X122990000Y-83930000D03*
X133630000Y-94760000D03*
%TO.N,/SDA*%
X126334909Y-91698793D03*
X130190000Y-94445000D03*
X108745735Y-93985735D03*
X112860000Y-94480000D03*
X122472816Y-89997959D03*
X110595735Y-94804265D03*
%TO.N,/MISO*%
X112230000Y-100340000D03*
X118633477Y-98613477D03*
D27*
%TO.N,/V_{BAT}*%
X127200000Y-104370000D03*
D26*
X128780000Y-102030000D03*
%TO.N,Net-(U1-PH3)*%
X121289782Y-91560000D03*
X116440000Y-91470000D03*
%TO.N,Net-(U1-NRST)*%
X114490000Y-95440000D03*
X120100000Y-92897316D03*
%TO.N,/BTN*%
X109410000Y-92770000D03*
X118040000Y-96490000D03*
%TO.N,/SCK*%
X118660800Y-97729873D03*
X107780000Y-98795000D03*
%TO.N,/MOSI*%
X119532741Y-98562741D03*
X106840000Y-94530000D03*
%TO.N,Net-(CFAL12856A1-RES)*%
X124970000Y-82602500D03*
%TO.N,Net-(CFAL12856A1-R{slash}W)*%
X132419758Y-85610764D03*
%TO.N,Net-(CFAL12856A1-D4)*%
X120980000Y-84030000D03*
%TO.N,Net-(CFAL12856A1-D6)*%
X119960000Y-84070000D03*
%TO.N,Net-(CFAL12856A1-IREF)*%
X119010000Y-84030000D03*
%TD*%
%TO.N,/SDA*%
D28*
X109310000Y-94280000D02*
X109530735Y-94500735D01*
X109300000Y-94280000D02*
X109310000Y-94280000D01*
X108960735Y-94200735D02*
X109220735Y-94200735D01*
X109220735Y-94200735D02*
X109300000Y-94280000D01*
X108745735Y-93985735D02*
X108960735Y-94200735D01*
X109849540Y-94804265D02*
X110595735Y-94804265D01*
X109546010Y-94500735D02*
X109849540Y-94804265D01*
X109530735Y-94500735D02*
X109546010Y-94500735D01*
%TO.N,/SCK*%
X107780000Y-98795000D02*
X106695000Y-98795000D01*
X106695000Y-98795000D02*
X105830000Y-97930000D01*
X105830000Y-97930000D02*
X104840000Y-97930000D01*
%TO.N,GND*%
X102340000Y-95570000D02*
X102100000Y-95330000D01*
X128070000Y-89520000D02*
X128360000Y-89230000D01*
X120550000Y-100670000D02*
X120550000Y-102650000D01*
X120360000Y-102840000D02*
X120230000Y-102970000D01*
X126650000Y-89520000D02*
X128070000Y-89520000D01*
X120550000Y-102650000D02*
X120360000Y-102840000D01*
X102340000Y-96900000D02*
X102340000Y-95570000D01*
%TO.N,Net-(J1-CC1)*%
X136700000Y-95620000D02*
X136700000Y-97650000D01*
%TO.N,+3V3*%
D29*
X126030000Y-106320000D02*
X128750000Y-106320000D01*
D28*
X126560000Y-88520000D02*
X125360000Y-88520000D01*
X123820000Y-83911471D02*
X123820000Y-84100000D01*
D29*
X125770000Y-90260000D02*
X125000000Y-89490000D01*
D28*
X113260000Y-102600000D02*
X113260000Y-102420000D01*
D29*
X130360000Y-104330000D02*
X133160000Y-104330000D01*
D28*
X130540000Y-87380000D02*
X130520000Y-87400000D01*
X130950002Y-92390000D02*
X133210000Y-92390000D01*
X113690000Y-99280000D02*
X115350000Y-99280000D01*
X125640000Y-104320000D02*
X125830000Y-104510000D01*
D29*
X125830000Y-105340000D02*
X125830000Y-106120000D01*
X125000000Y-88880000D02*
X125020000Y-88860000D01*
D28*
X106710000Y-96790000D02*
X106670000Y-96830000D01*
D29*
X128750000Y-106320000D02*
X128940000Y-106130000D01*
D28*
X118040000Y-83020000D02*
X122928529Y-83020000D01*
D29*
X130820000Y-95520000D02*
X130820000Y-92520002D01*
X125000000Y-89490000D02*
X125000000Y-88880000D01*
D28*
X130520000Y-88250000D02*
X130340000Y-88430000D01*
X133210000Y-92390000D02*
X134300000Y-91300000D01*
X113260000Y-102420000D02*
X113620000Y-102060000D01*
X123820000Y-84100000D02*
X123820000Y-84140000D01*
D29*
X129150000Y-104330000D02*
X130360000Y-104330000D01*
D28*
X125830000Y-104510000D02*
X125830000Y-105340000D01*
X113690000Y-99280000D02*
X115380000Y-99280000D01*
D29*
X125830000Y-106120000D02*
X126030000Y-106320000D01*
X132560000Y-100450000D02*
X133160000Y-99850000D01*
D28*
X115380000Y-99280000D02*
X115410000Y-99250000D01*
X113620000Y-100580000D02*
X113620000Y-100470000D01*
D29*
X133160000Y-101050000D02*
X133160000Y-104330000D01*
X132560000Y-100450000D02*
X133160000Y-101050000D01*
X128940000Y-106130000D02*
X128940000Y-104540000D01*
X133160000Y-97860000D02*
X130820000Y-95520000D01*
X128020002Y-92500002D02*
X125780000Y-90260000D01*
X133160000Y-99850000D02*
X133160000Y-97860000D01*
D28*
X122928529Y-83020000D02*
X123820000Y-83911471D01*
D29*
X130840000Y-92500002D02*
X128020002Y-92500002D01*
D28*
X124980000Y-104320000D02*
X125640000Y-104320000D01*
X113620000Y-102060000D02*
X113620000Y-100580000D01*
X115350000Y-99280000D02*
X115400000Y-99230000D01*
D29*
X130820000Y-92520002D02*
X130840000Y-92500002D01*
D28*
X117970000Y-82950000D02*
X118040000Y-83020000D01*
X123820000Y-84140000D02*
X123840000Y-84160000D01*
X130340000Y-88430000D02*
X126650000Y-88430000D01*
X126650000Y-88430000D02*
X126560000Y-88520000D01*
X130520000Y-87400000D02*
X130520000Y-88250000D01*
X106670000Y-96830000D02*
X104840000Y-96830000D01*
X125360000Y-88520000D02*
X125020000Y-88860000D01*
D29*
X133160000Y-104330000D02*
X136660000Y-104330000D01*
X125780000Y-90260000D02*
X125770000Y-90260000D01*
X128940000Y-104540000D02*
X129150000Y-104330000D01*
D28*
X130840000Y-92500002D02*
X130950002Y-92390000D01*
X117970000Y-82602500D02*
X117970000Y-82950000D01*
X134300000Y-91300000D02*
X135270000Y-91300000D01*
%TO.N,Net-(U1-VBAT)*%
X127385267Y-94050000D02*
X127400000Y-94050000D01*
X128027156Y-93767157D02*
X129320000Y-95060001D01*
X127668110Y-93767157D02*
X128027156Y-93767157D01*
X127385267Y-94050000D02*
X127668110Y-93767157D01*
X129320000Y-95060001D02*
X129320000Y-95580000D01*
%TO.N,Net-(D6-A)*%
X131470000Y-90140000D02*
X131470000Y-91300000D01*
X131780000Y-89830000D02*
X131470000Y-90140000D01*
X131780000Y-89520000D02*
X131780000Y-89830000D01*
X131820000Y-89480000D02*
X131780000Y-89520000D01*
%TO.N,/V_{Li}*%
X139362767Y-104430000D02*
X139297998Y-104494769D01*
X139579099Y-104240901D02*
X139390000Y-104430000D01*
X135760000Y-101210000D02*
X134101618Y-101210000D01*
X139390000Y-104430000D02*
X139362767Y-104430000D01*
X134101618Y-101210000D02*
X133993643Y-101317975D01*
X141720000Y-104240901D02*
X139579099Y-104240901D01*
%TO.N,/SCL*%
X115980000Y-89980000D02*
X117810000Y-88150000D01*
X117810000Y-88150000D02*
X122980000Y-88150000D01*
X128192842Y-93367157D02*
X127138628Y-93367157D01*
X125450000Y-91620000D02*
X125450000Y-91610000D01*
X125479807Y-91419807D02*
X125479807Y-91039807D01*
X109693290Y-97032910D02*
X109693290Y-96423290D01*
X102965000Y-91225000D02*
X104210000Y-89980000D01*
X122990000Y-88110000D02*
X122990000Y-83930000D01*
X127138628Y-93367157D02*
X125560000Y-91788529D01*
X132000000Y-94750000D02*
X131720000Y-95030000D01*
X125560000Y-91788529D02*
X125560000Y-91500000D01*
X109693290Y-96423290D02*
X105450000Y-92180000D01*
X102965000Y-92180000D02*
X102965000Y-91225000D01*
X133318581Y-94760000D02*
X133308581Y-94750000D01*
X125479807Y-91039807D02*
X125479807Y-90599807D01*
X125560000Y-91500000D02*
X125479807Y-91419807D01*
X130060685Y-95235000D02*
X128192842Y-93367157D01*
X130065000Y-95235000D02*
X130060685Y-95235000D01*
X104210000Y-89980000D02*
X115980000Y-89980000D01*
X122980000Y-88150000D02*
X122990000Y-88140000D01*
X133308581Y-94750000D02*
X132000000Y-94750000D01*
X125479807Y-90599807D02*
X122990000Y-88110000D01*
X105450000Y-92180000D02*
X102965000Y-92180000D01*
X131720000Y-95030000D02*
X131720000Y-95190000D01*
X125450000Y-91610000D02*
X125560000Y-91500000D01*
X133630000Y-94760000D02*
X133318581Y-94760000D01*
%TO.N,/SDA*%
X126334909Y-91698793D02*
X126476116Y-91840000D01*
X122472816Y-89982816D02*
X122460000Y-89970000D01*
X130145000Y-94445000D02*
X130190000Y-94445000D01*
X122472816Y-91257184D02*
X122472816Y-89982816D01*
X126730000Y-91840000D02*
X127520000Y-92630000D01*
X126366116Y-91730000D02*
X126380000Y-91730000D01*
X113280000Y-94480000D02*
X115600000Y-92160000D01*
X121570000Y-92160000D02*
X122472816Y-91257184D01*
X126476116Y-91840000D02*
X126730000Y-91840000D01*
X115600000Y-92160000D02*
X121570000Y-92160000D01*
X127843962Y-92925002D02*
X128625002Y-92925002D01*
X112860000Y-94480000D02*
X113280000Y-94480000D01*
X127520000Y-92630000D02*
X127548960Y-92630000D01*
X126334909Y-91698793D02*
X126366116Y-91730000D01*
X128625002Y-92925002D02*
X130145000Y-94445000D01*
X127548960Y-92630000D02*
X127843962Y-92925002D01*
%TO.N,/MISO*%
X106430000Y-100130000D02*
X107174255Y-100874255D01*
X117250000Y-99920000D02*
X112650000Y-99920000D01*
X111680000Y-100870000D02*
X112210000Y-100340000D01*
X104840000Y-100130000D02*
X106430000Y-100130000D01*
X111000000Y-100870000D02*
X111680000Y-100870000D01*
X118556523Y-98613477D02*
X117250000Y-99920000D01*
X112650000Y-99920000D02*
X112230000Y-100340000D01*
X110995745Y-100874255D02*
X111000000Y-100870000D01*
X107174255Y-100874255D02*
X110995745Y-100874255D01*
X112210000Y-100340000D02*
X112230000Y-100340000D01*
X118633477Y-98613477D02*
X118556523Y-98613477D01*
%TO.N,/V_{BAT}*%
D29*
X128510000Y-102030000D02*
X128780000Y-102030000D01*
X127880000Y-103820000D02*
X127880000Y-102660000D01*
X127330000Y-104370000D02*
X127880000Y-104920000D01*
X128780000Y-102030000D02*
X130360000Y-102030000D01*
X127880000Y-104920000D02*
X127880000Y-105330000D01*
X127880000Y-102660000D02*
X128510000Y-102030000D01*
X127330000Y-104370000D02*
X127880000Y-103820000D01*
X127200000Y-104370000D02*
X127330000Y-104370000D01*
%TO.N,Net-(U1-PH3)*%
D28*
X120969565Y-91310000D02*
X116600000Y-91310000D01*
X121197997Y-91538432D02*
X120969565Y-91310000D01*
X121268214Y-91538432D02*
X121197997Y-91538432D01*
X116600000Y-91310000D02*
X116440000Y-91470000D01*
X121289782Y-91560000D02*
X121268214Y-91538432D01*
%TO.N,Net-(U1-NRST)*%
X117880000Y-94380000D02*
X115030000Y-94380000D01*
X115030000Y-94380000D02*
X114490000Y-94920000D01*
X119360000Y-92900000D02*
X117880000Y-94380000D01*
X120100000Y-92897316D02*
X120097316Y-92900000D01*
X120097316Y-92900000D02*
X119360000Y-92900000D01*
X114490000Y-94920000D02*
X114490000Y-95440000D01*
%TO.N,/BTN*%
X114390000Y-97750000D02*
X117640000Y-97750000D01*
X118060000Y-96510000D02*
X118040000Y-96490000D01*
X118040000Y-96490000D02*
X117870000Y-96320000D01*
X118060000Y-97330000D02*
X118060000Y-96510000D01*
X117640000Y-97750000D02*
X118060000Y-97330000D01*
X109410000Y-92770000D02*
X114390000Y-97750000D01*
%TO.N,/SCK*%
X118660800Y-97737624D02*
X118198424Y-98200000D01*
X118198424Y-98200000D02*
X108460000Y-98200000D01*
X108460000Y-98200000D02*
X107820000Y-98840000D01*
X118660800Y-97729873D02*
X118660800Y-97737624D01*
%TO.N,/MOSI*%
X103640000Y-95730000D02*
X106540000Y-95730000D01*
X119110000Y-104210000D02*
X104640000Y-104210000D01*
X103290000Y-102860000D02*
X103290000Y-96080000D01*
X106820000Y-95450000D02*
X106820000Y-94350000D01*
X119532741Y-103787259D02*
X119110000Y-104210000D01*
X104640000Y-104210000D02*
X103290000Y-102860000D01*
X103290000Y-96080000D02*
X103640000Y-95730000D01*
X119532741Y-98562741D02*
X119532741Y-103787259D01*
X106820000Y-94350000D02*
X106830000Y-94340000D01*
X106540000Y-95730000D02*
X106820000Y-95450000D01*
%TO.N,Net-(CFAL12856A1-RES)*%
X125017500Y-82650000D02*
X125017500Y-86457500D01*
X128360000Y-87330000D02*
X126770000Y-87330000D01*
X124970000Y-82602500D02*
X125017500Y-82650000D01*
X125020000Y-87210000D02*
X126470000Y-87210000D01*
X126770000Y-87330000D02*
X126560000Y-87120000D01*
X125020000Y-86460000D02*
X125020000Y-87210000D01*
X126470000Y-87210000D02*
X126560000Y-87120000D01*
X125017500Y-86457500D02*
X125020000Y-86460000D01*
%TO.N,Net-(CFAL12856A1-R{slash}W)*%
X132419758Y-85610764D02*
X132741494Y-85932500D01*
X132741494Y-85932500D02*
X134452742Y-85932500D01*
%TO.N,Net-(CFAL12856A1-D4)*%
X121420000Y-86380000D02*
X120980000Y-85940000D01*
X120980000Y-85940000D02*
X120980000Y-84030000D01*
X121420000Y-86970000D02*
X121420000Y-86380000D01*
X121130000Y-87260000D02*
X121420000Y-86970000D01*
%TO.N,Net-(CFAL12856A1-D6)*%
X119960000Y-87255000D02*
X119960000Y-84070000D01*
X119960000Y-84070000D02*
X119960000Y-84040000D01*
%TO.N,Net-(CFAL12856A1-IREF)*%
X118410000Y-87250000D02*
X118410000Y-86630000D01*
X118410000Y-86630000D02*
X119010000Y-86030000D01*
X119010000Y-86030000D02*
X119010000Y-84030000D01*
%TD*%
%TA.AperFunction,Conductor*%
%TO.N,GND*%
G36*
X142856564Y-81630523D02*
G01*
X142858754Y-81630570D01*
X142860888Y-81630639D01*
X142966505Y-81635249D01*
X142971507Y-81635595D01*
X142976544Y-81636073D01*
X142981504Y-81636670D01*
X143268024Y-81678639D01*
X143273640Y-81679629D01*
X143279332Y-81680804D01*
X143284875Y-81682118D01*
X143560728Y-81756032D01*
X143566190Y-81757668D01*
X143571710Y-81759497D01*
X143577080Y-81761454D01*
X143641580Y-81787078D01*
X143777196Y-81840955D01*
X143842448Y-81866878D01*
X143847684Y-81869137D01*
X143852928Y-81871582D01*
X143858070Y-81874165D01*
X144109378Y-82009669D01*
X144114364Y-82012547D01*
X144119262Y-82015568D01*
X144124075Y-82018734D01*
X144264858Y-82117311D01*
X144357954Y-82182498D01*
X144362562Y-82185929D01*
X144367088Y-82189507D01*
X144371476Y-82193189D01*
X144486098Y-82295194D01*
X144584768Y-82383003D01*
X144588957Y-82386954D01*
X144593044Y-82391041D01*
X144596985Y-82395219D01*
X144600147Y-82398772D01*
X144600153Y-82398786D01*
X144600157Y-82398783D01*
X144722813Y-82536610D01*
X144786798Y-82608508D01*
X144790492Y-82612911D01*
X144794061Y-82617424D01*
X144794064Y-82617428D01*
X144797499Y-82622042D01*
X144961261Y-82855920D01*
X144964424Y-82860729D01*
X144967449Y-82865633D01*
X144970330Y-82870623D01*
X145105832Y-83121927D01*
X145108414Y-83127068D01*
X145110855Y-83132302D01*
X145113138Y-83137595D01*
X145218539Y-83402906D01*
X145220505Y-83408305D01*
X145222319Y-83413777D01*
X145223975Y-83419306D01*
X145253502Y-83529500D01*
X145291014Y-83669500D01*
X145297872Y-83695092D01*
X145299198Y-83700690D01*
X145300359Y-83706310D01*
X145300363Y-83706329D01*
X145301362Y-83711996D01*
X145329496Y-83904063D01*
X145338014Y-83962215D01*
X145341012Y-83982689D01*
X145342947Y-83995897D01*
X145342949Y-83995913D01*
X145343325Y-83998483D01*
X145343926Y-84003468D01*
X145344401Y-84008477D01*
X145344749Y-84013504D01*
X145349357Y-84119035D01*
X145349427Y-84121186D01*
X145349475Y-84123377D01*
X145349499Y-84125545D01*
X145349499Y-101982694D01*
X145344653Y-102013287D01*
X145340531Y-102025973D01*
X145304567Y-102075473D01*
X145303719Y-102076083D01*
X145303681Y-102076110D01*
X145252175Y-102094235D01*
X145248898Y-102094428D01*
X145243873Y-102094724D01*
X145218725Y-102092994D01*
X145218060Y-102092861D01*
X145217253Y-102092701D01*
X145217252Y-102092701D01*
X145217247Y-102092701D01*
X143272751Y-102092701D01*
X143272750Y-102092701D01*
X143272744Y-102092701D01*
X143214277Y-102104331D01*
X143214262Y-102104336D01*
X143147953Y-102148643D01*
X143147941Y-102148655D01*
X143103634Y-102214964D01*
X143103629Y-102214979D01*
X143091999Y-102273446D01*
X143091999Y-103608354D01*
X143103629Y-103666821D01*
X143103634Y-103666836D01*
X143112411Y-103679971D01*
X143147944Y-103733149D01*
X143147947Y-103733153D01*
X143214268Y-103777468D01*
X143236499Y-103781890D01*
X143258727Y-103786312D01*
X143258730Y-103786312D01*
X143266658Y-103787889D01*
X143268823Y-103788462D01*
X143271013Y-103788818D01*
X143272580Y-103789101D01*
X143272751Y-103789101D01*
X143272752Y-103789101D01*
X145217242Y-103789101D01*
X145217246Y-103789101D01*
X145217247Y-103789101D01*
X145217251Y-103789100D01*
X145222083Y-103788624D01*
X145222133Y-103789138D01*
X145246750Y-103788171D01*
X145259996Y-103789738D01*
X145314960Y-103814798D01*
X145314993Y-103814828D01*
X145344189Y-103863081D01*
X145346290Y-103871131D01*
X145349499Y-103896132D01*
X145349499Y-105582692D01*
X145344653Y-105613285D01*
X145340531Y-105625971D01*
X145304567Y-105675471D01*
X145303719Y-105676081D01*
X145303681Y-105676108D01*
X145252175Y-105694233D01*
X145248898Y-105694426D01*
X145243873Y-105694722D01*
X145218725Y-105692992D01*
X145218060Y-105692859D01*
X145217253Y-105692699D01*
X145217252Y-105692699D01*
X145217247Y-105692699D01*
X143272751Y-105692699D01*
X143272750Y-105692699D01*
X143272744Y-105692699D01*
X143214277Y-105704329D01*
X143214262Y-105704334D01*
X143147953Y-105748641D01*
X143147941Y-105748653D01*
X143103634Y-105814962D01*
X143103629Y-105814977D01*
X143091999Y-105873444D01*
X143091999Y-107208357D01*
X143098273Y-107239892D01*
X143102566Y-107261472D01*
X143103632Y-107266831D01*
X143147944Y-107333147D01*
X143147947Y-107333151D01*
X143214268Y-107377466D01*
X143236499Y-107381888D01*
X143258727Y-107386310D01*
X143258730Y-107386310D01*
X143266658Y-107387887D01*
X143268823Y-107388460D01*
X143271013Y-107388816D01*
X143272580Y-107389099D01*
X143272751Y-107389099D01*
X143272752Y-107389099D01*
X145217242Y-107389099D01*
X145217246Y-107389099D01*
X145217247Y-107389099D01*
X145217251Y-107389098D01*
X145222083Y-107388622D01*
X145222133Y-107389136D01*
X145246750Y-107388169D01*
X145259996Y-107389736D01*
X145314960Y-107414796D01*
X145314993Y-107414826D01*
X145344189Y-107463079D01*
X145346290Y-107471129D01*
X145349499Y-107496130D01*
X145349499Y-108334440D01*
X145349475Y-108336608D01*
X145349427Y-108338799D01*
X145349357Y-108340950D01*
X145344748Y-108446498D01*
X145344401Y-108451513D01*
X145343927Y-108456518D01*
X145343323Y-108461532D01*
X145301362Y-108748001D01*
X145300363Y-108753668D01*
X145299201Y-108759297D01*
X145297872Y-108764905D01*
X145223975Y-109040691D01*
X145222319Y-109046220D01*
X145220505Y-109051692D01*
X145218539Y-109057091D01*
X145113138Y-109322402D01*
X145110855Y-109327695D01*
X145108414Y-109332929D01*
X145105832Y-109338070D01*
X144970330Y-109589374D01*
X144967449Y-109594364D01*
X144964424Y-109599268D01*
X144961261Y-109604077D01*
X144797499Y-109837955D01*
X144794064Y-109842569D01*
X144790504Y-109847072D01*
X144786798Y-109851489D01*
X144596995Y-110064767D01*
X144593044Y-110068956D01*
X144588957Y-110073043D01*
X144584768Y-110076994D01*
X144371488Y-110266798D01*
X144367071Y-110270504D01*
X144362568Y-110274064D01*
X144357954Y-110277499D01*
X144124075Y-110441264D01*
X144119259Y-110444431D01*
X144114359Y-110447453D01*
X144109376Y-110450330D01*
X143858058Y-110585838D01*
X143852929Y-110588415D01*
X143851174Y-110589233D01*
X143847706Y-110590850D01*
X143842425Y-110593129D01*
X143577091Y-110698540D01*
X143571681Y-110700509D01*
X143566213Y-110702321D01*
X143560694Y-110703974D01*
X143284905Y-110777872D01*
X143279297Y-110779201D01*
X143273668Y-110780363D01*
X143268001Y-110781362D01*
X142981526Y-110823324D01*
X142976514Y-110823928D01*
X142971510Y-110824402D01*
X142966493Y-110824749D01*
X142860963Y-110829357D01*
X142858813Y-110829427D01*
X142856623Y-110829475D01*
X142854454Y-110829499D01*
X103645559Y-110829499D01*
X103643391Y-110829475D01*
X103641200Y-110829427D01*
X103639049Y-110829357D01*
X103533499Y-110824748D01*
X103528484Y-110824401D01*
X103523479Y-110823927D01*
X103518465Y-110823323D01*
X103231996Y-110781362D01*
X103226329Y-110780363D01*
X103220690Y-110779198D01*
X103215097Y-110777873D01*
X103101680Y-110747483D01*
X102939306Y-110703975D01*
X102933777Y-110702319D01*
X102928305Y-110700505D01*
X102922906Y-110698539D01*
X102657595Y-110593138D01*
X102652302Y-110590855D01*
X102647068Y-110588414D01*
X102641927Y-110585832D01*
X102390623Y-110450330D01*
X102385633Y-110447449D01*
X102380729Y-110444424D01*
X102375920Y-110441261D01*
X102142042Y-110277499D01*
X102137428Y-110274064D01*
X102132911Y-110270492D01*
X102128517Y-110266805D01*
X101915229Y-110076994D01*
X101911041Y-110073044D01*
X101906954Y-110068957D01*
X101903003Y-110064768D01*
X101713200Y-109851489D01*
X101713189Y-109851476D01*
X101709507Y-109847088D01*
X101705929Y-109842562D01*
X101702498Y-109837954D01*
X101550411Y-109620752D01*
X101550410Y-109620751D01*
X101550234Y-109620500D01*
X101538733Y-109604074D01*
X101535568Y-109599262D01*
X101532547Y-109594364D01*
X101529669Y-109589379D01*
X101394142Y-109338027D01*
X101391583Y-109332929D01*
X101389138Y-109327688D01*
X101386866Y-109322418D01*
X101318286Y-109149792D01*
X101281456Y-109057087D01*
X101279492Y-109051692D01*
X101277668Y-109046188D01*
X101276022Y-109040691D01*
X101202118Y-108764875D01*
X101200804Y-108759332D01*
X101199629Y-108753640D01*
X101198639Y-108748024D01*
X101174942Y-108586243D01*
X101156673Y-108461517D01*
X101156070Y-108456509D01*
X101155597Y-108451518D01*
X101155249Y-108446497D01*
X101152184Y-108376290D01*
X101150638Y-108340897D01*
X101150570Y-108338766D01*
X101150523Y-108336576D01*
X101150500Y-108334452D01*
X101150500Y-108163705D01*
X102259500Y-108163705D01*
X102259500Y-108376293D01*
X102292751Y-108586239D01*
X102292752Y-108586243D01*
X102358439Y-108788405D01*
X102358441Y-108788408D01*
X102454808Y-108977541D01*
X102454941Y-108977806D01*
X102454947Y-108977815D01*
X102454948Y-108977816D01*
X102454950Y-108977819D01*
X102579891Y-109149786D01*
X102579893Y-109149788D01*
X102579896Y-109149792D01*
X102730208Y-109300104D01*
X102730211Y-109300106D01*
X102730217Y-109300112D01*
X102730593Y-109300420D01*
X102731791Y-109301254D01*
X102902180Y-109425049D01*
X102902183Y-109425051D01*
X102902189Y-109425055D01*
X102902439Y-109425181D01*
X103091588Y-109521557D01*
X103293757Y-109587246D01*
X103293758Y-109587246D01*
X103293761Y-109587247D01*
X103427947Y-109608500D01*
X103503707Y-109620500D01*
X103716290Y-109620500D01*
X103716293Y-109620500D01*
X103800197Y-109607210D01*
X103926238Y-109587247D01*
X103926238Y-109587246D01*
X103926240Y-109587246D01*
X103926243Y-109587246D01*
X103926246Y-109587245D01*
X103928822Y-109586837D01*
X103933629Y-109584845D01*
X104128412Y-109521557D01*
X104317816Y-109425051D01*
X104489792Y-109300104D01*
X104640104Y-109149792D01*
X104765051Y-108977816D01*
X104861557Y-108788412D01*
X104927246Y-108586243D01*
X104927962Y-108581723D01*
X104947793Y-108456518D01*
X104960500Y-108376292D01*
X104960500Y-108163705D01*
X104927248Y-107953767D01*
X104927247Y-107953761D01*
X104927246Y-107953757D01*
X104861557Y-107751588D01*
X104765181Y-107562439D01*
X104765055Y-107562189D01*
X104765051Y-107562183D01*
X104717061Y-107496130D01*
X104640108Y-107390213D01*
X104640106Y-107390211D01*
X104640104Y-107390208D01*
X104489792Y-107239896D01*
X104489788Y-107239893D01*
X104489786Y-107239891D01*
X104317819Y-107114950D01*
X104317815Y-107114947D01*
X104317806Y-107114941D01*
X104317541Y-107114808D01*
X104128408Y-107018441D01*
X104128405Y-107018439D01*
X103926243Y-106952752D01*
X103926239Y-106952751D01*
X103716293Y-106919500D01*
X103716290Y-106919500D01*
X103716287Y-106919500D01*
X103503713Y-106919500D01*
X103503710Y-106919500D01*
X103503707Y-106919500D01*
X103293765Y-106952750D01*
X103091583Y-107018444D01*
X102902456Y-107114808D01*
X102902201Y-107114936D01*
X102902183Y-107114947D01*
X102730214Y-107239890D01*
X102579890Y-107390214D01*
X102454947Y-107562183D01*
X102454936Y-107562201D01*
X102454808Y-107562456D01*
X102358443Y-107751584D01*
X102358439Y-107751593D01*
X102292752Y-107953755D01*
X102292751Y-107953759D01*
X102259500Y-108163705D01*
X101150500Y-108163705D01*
X101150500Y-103694600D01*
X101155343Y-103664014D01*
X101159465Y-103651325D01*
X101195423Y-103601826D01*
X101197591Y-103600251D01*
X101245109Y-103581924D01*
X101252938Y-103581075D01*
X101263595Y-103580500D01*
X102999747Y-103580500D01*
X102999748Y-103580500D01*
X103058231Y-103568867D01*
X103124552Y-103524552D01*
X103168867Y-103458231D01*
X103174478Y-103430019D01*
X103177216Y-103416258D01*
X103183568Y-103395999D01*
X103183809Y-103395446D01*
X103190903Y-103379180D01*
X103231497Y-103333401D01*
X103291204Y-103320220D01*
X103292928Y-103320388D01*
X103339147Y-103337133D01*
X103340958Y-103338368D01*
X103355185Y-103350156D01*
X104399540Y-104394511D01*
X104399539Y-104394511D01*
X104455489Y-104450460D01*
X104524007Y-104490019D01*
X104524011Y-104490021D01*
X104590762Y-104507907D01*
X104592913Y-104508723D01*
X104600436Y-104510500D01*
X119149563Y-104510500D01*
X119163293Y-104510500D01*
X119175185Y-104503633D01*
X119225989Y-104490021D01*
X119294511Y-104450460D01*
X119330610Y-104414361D01*
X119350461Y-104394511D01*
X119665432Y-104079539D01*
X119773201Y-103971770D01*
X119787621Y-103946793D01*
X119812762Y-103903248D01*
X119833241Y-103826821D01*
X119833241Y-99026742D01*
X119838086Y-98996151D01*
X119845633Y-98972922D01*
X119869781Y-98933513D01*
X119933241Y-98870055D01*
X119938531Y-98860892D01*
X119999131Y-98755931D01*
X119999131Y-98755929D01*
X119999133Y-98755927D01*
X120033241Y-98628633D01*
X120033241Y-98496849D01*
X119999133Y-98369555D01*
X119999131Y-98369552D01*
X119999131Y-98369550D01*
X119999124Y-98369539D01*
X119998807Y-98368835D01*
X119997553Y-98366817D01*
X119933244Y-98255431D01*
X119933242Y-98255429D01*
X119933241Y-98255427D01*
X119840055Y-98162241D01*
X119840052Y-98162239D01*
X119840050Y-98162237D01*
X119819721Y-98150500D01*
X119783217Y-98129424D01*
X119762183Y-98106063D01*
X119676540Y-98083116D01*
X119676539Y-98083115D01*
X119619507Y-98067834D01*
X119598633Y-98062241D01*
X119598632Y-98062241D01*
X119466850Y-98062241D01*
X119466849Y-98062241D01*
X119427895Y-98072678D01*
X119388940Y-98083116D01*
X119388939Y-98083115D01*
X119339548Y-98096350D01*
X119339546Y-98096351D01*
X119228163Y-98160658D01*
X119228158Y-98160662D01*
X119225431Y-98162237D01*
X119225430Y-98162238D01*
X119225427Y-98162240D01*
X119225427Y-98162241D01*
X119213653Y-98174014D01*
X119213628Y-98174038D01*
X119138829Y-98248838D01*
X119113771Y-98267043D01*
X119103183Y-98272438D01*
X119042751Y-98282010D01*
X118988234Y-98254233D01*
X118960456Y-98199717D01*
X118960456Y-98168747D01*
X118961205Y-98164015D01*
X118988981Y-98109504D01*
X119061300Y-98037187D01*
X119102498Y-97965830D01*
X119127190Y-97923063D01*
X119127190Y-97923061D01*
X119127192Y-97923059D01*
X119161300Y-97795765D01*
X119161300Y-97663981D01*
X119127192Y-97536687D01*
X119127190Y-97536684D01*
X119127190Y-97536682D01*
X119127183Y-97536671D01*
X119126866Y-97535967D01*
X119125612Y-97533949D01*
X119061303Y-97422563D01*
X119061301Y-97422561D01*
X119061300Y-97422559D01*
X118968114Y-97329373D01*
X118968111Y-97329371D01*
X118968109Y-97329369D01*
X118951357Y-97319697D01*
X118911276Y-97296556D01*
X118890242Y-97273194D01*
X118801808Y-97249500D01*
X118801807Y-97249499D01*
X118745920Y-97234525D01*
X118726692Y-97229373D01*
X118726691Y-97229373D01*
X118594907Y-97229373D01*
X118500265Y-97254731D01*
X118469460Y-97257968D01*
X118457175Y-97257324D01*
X118400054Y-97235397D01*
X118367434Y-97186573D01*
X118364576Y-97176923D01*
X118360500Y-97148810D01*
X118360500Y-96934001D01*
X118365345Y-96903410D01*
X118372892Y-96880181D01*
X118397043Y-96840769D01*
X118440500Y-96797314D01*
X118440501Y-96797311D01*
X118440503Y-96797310D01*
X118506390Y-96683190D01*
X118506390Y-96683188D01*
X118506392Y-96683186D01*
X118540500Y-96555892D01*
X118540500Y-96424108D01*
X118506392Y-96296814D01*
X118506390Y-96296811D01*
X118506390Y-96296809D01*
X118506387Y-96296805D01*
X118506066Y-96296094D01*
X118504812Y-96294076D01*
X118440503Y-96182690D01*
X118440501Y-96182688D01*
X118440500Y-96182686D01*
X118347314Y-96089500D01*
X118347311Y-96089498D01*
X118347309Y-96089496D01*
X118290476Y-96056683D01*
X118269442Y-96033321D01*
X118182471Y-96010019D01*
X118182470Y-96010018D01*
X118126410Y-95994997D01*
X118105892Y-95989500D01*
X118105891Y-95989500D01*
X117974105Y-95989500D01*
X117880997Y-96014447D01*
X117868306Y-96016972D01*
X117856603Y-96018513D01*
X117855551Y-96018652D01*
X117842623Y-96019500D01*
X117830432Y-96019500D01*
X117772875Y-96034922D01*
X117772865Y-96034925D01*
X117754015Y-96039977D01*
X117754014Y-96039978D01*
X117754012Y-96039978D01*
X117754012Y-96039979D01*
X117737107Y-96049738D01*
X117737097Y-96049743D01*
X117685491Y-96079538D01*
X117629537Y-96135492D01*
X117600901Y-96185092D01*
X117600898Y-96185099D01*
X117591860Y-96200755D01*
X117589978Y-96204014D01*
X117589977Y-96204015D01*
X117578105Y-96248319D01*
X117576689Y-96252249D01*
X117574234Y-96255410D01*
X117566585Y-96272591D01*
X117562556Y-96278795D01*
X117545107Y-96292924D01*
X117539166Y-96300577D01*
X117533699Y-96302162D01*
X117515006Y-96317300D01*
X117453904Y-96320501D01*
X117402590Y-96287177D01*
X117382125Y-96242585D01*
X117382097Y-96242431D01*
X117380500Y-96224721D01*
X117380500Y-94860253D01*
X117380499Y-94860249D01*
X117378390Y-94849647D01*
X117371337Y-94814191D01*
X117370123Y-94783239D01*
X117371691Y-94769994D01*
X117396847Y-94714931D01*
X117396878Y-94714897D01*
X117445041Y-94685806D01*
X117453087Y-94683706D01*
X117478080Y-94680500D01*
X117933293Y-94680500D01*
X117945185Y-94673633D01*
X117995989Y-94660021D01*
X118064511Y-94620460D01*
X118120460Y-94564511D01*
X119444391Y-93240579D01*
X119469443Y-93222378D01*
X119491210Y-93211288D01*
X119536151Y-93200500D01*
X119638683Y-93200500D01*
X119669274Y-93205344D01*
X119692500Y-93212891D01*
X119731911Y-93237042D01*
X119792686Y-93297816D01*
X119793237Y-93298214D01*
X119795239Y-93299291D01*
X119839207Y-93324675D01*
X119850040Y-93330930D01*
X119871634Y-93354912D01*
X119905944Y-93363490D01*
X119907548Y-93363904D01*
X120034108Y-93397816D01*
X120034110Y-93397816D01*
X120165890Y-93397816D01*
X120165892Y-93397816D01*
X120293186Y-93363708D01*
X120293188Y-93363706D01*
X120293190Y-93363706D01*
X120401190Y-93301351D01*
X120404067Y-93299955D01*
X120404853Y-93299438D01*
X120409862Y-93296344D01*
X120411161Y-93295593D01*
X120416519Y-93288610D01*
X120500500Y-93204630D01*
X120502181Y-93201719D01*
X120566390Y-93090506D01*
X120566390Y-93090504D01*
X120566392Y-93090502D01*
X120600500Y-92963208D01*
X120600500Y-92831424D01*
X120566392Y-92704130D01*
X120566390Y-92704127D01*
X120566390Y-92704125D01*
X120566387Y-92704121D01*
X120566066Y-92703411D01*
X120564804Y-92701378D01*
X120519309Y-92622579D01*
X120508209Y-92593664D01*
X120505840Y-92582520D01*
X120512234Y-92521670D01*
X120553173Y-92476200D01*
X120557399Y-92473760D01*
X120606894Y-92460500D01*
X121623293Y-92460500D01*
X121635185Y-92453633D01*
X121685989Y-92440021D01*
X121754511Y-92400460D01*
X121810460Y-92344511D01*
X122713276Y-91441695D01*
X122717656Y-91434109D01*
X122752836Y-91373176D01*
X122752836Y-91373174D01*
X122752838Y-91373172D01*
X122773316Y-91296746D01*
X122773316Y-91217622D01*
X122773316Y-90461960D01*
X122778161Y-90431369D01*
X122785708Y-90408140D01*
X122809856Y-90368731D01*
X122873316Y-90305273D01*
X122886915Y-90281719D01*
X122939206Y-90191149D01*
X122939206Y-90191147D01*
X122939208Y-90191145D01*
X122973316Y-90063851D01*
X122973316Y-89932067D01*
X122939208Y-89804773D01*
X122939206Y-89804770D01*
X122939206Y-89804768D01*
X122939199Y-89804757D01*
X122938882Y-89804053D01*
X122937628Y-89802035D01*
X122873658Y-89691237D01*
X122873319Y-89690649D01*
X122873317Y-89690647D01*
X122873316Y-89690645D01*
X122780130Y-89597459D01*
X122780127Y-89597457D01*
X122780125Y-89597455D01*
X122768068Y-89590494D01*
X122723292Y-89564642D01*
X122702258Y-89541281D01*
X122616615Y-89518334D01*
X122616614Y-89518333D01*
X122550053Y-89500499D01*
X122538708Y-89497459D01*
X122538707Y-89497459D01*
X122406925Y-89497459D01*
X122406924Y-89497459D01*
X122395575Y-89500500D01*
X122329015Y-89518334D01*
X122329014Y-89518333D01*
X122279623Y-89531568D01*
X122279621Y-89531569D01*
X122165510Y-89597451D01*
X122072308Y-89690653D01*
X122006424Y-89804768D01*
X122006146Y-89805504D01*
X122005600Y-89807845D01*
X121972316Y-89932067D01*
X121972316Y-90063848D01*
X121972315Y-90063848D01*
X121996534Y-90154234D01*
X121996533Y-90154234D01*
X122006425Y-90191150D01*
X122006426Y-90191152D01*
X122072311Y-90305268D01*
X122132234Y-90365192D01*
X122150439Y-90390249D01*
X122158186Y-90405454D01*
X122161525Y-90412006D01*
X122172316Y-90456952D01*
X122172316Y-91076024D01*
X122167470Y-91106617D01*
X122159923Y-91129844D01*
X122135772Y-91169255D01*
X121925123Y-91379903D01*
X121900069Y-91398107D01*
X121889105Y-91403694D01*
X121828673Y-91413268D01*
X121776008Y-91387296D01*
X121768700Y-91380361D01*
X121751119Y-91358058D01*
X121691757Y-91255239D01*
X121690681Y-91253240D01*
X121690285Y-91252690D01*
X121690283Y-91252688D01*
X121690282Y-91252686D01*
X121597096Y-91159500D01*
X121597093Y-91159498D01*
X121597091Y-91159496D01*
X121540258Y-91126683D01*
X121519224Y-91103321D01*
X121418653Y-91076375D01*
X121418652Y-91076374D01*
X121367788Y-91062746D01*
X121355674Y-91059500D01*
X121355673Y-91059500D01*
X121223888Y-91059500D01*
X121223887Y-91059500D01*
X121219079Y-91060788D01*
X121188273Y-91064024D01*
X121185627Y-91063886D01*
X121163888Y-91062746D01*
X121119575Y-91049620D01*
X121097460Y-91036852D01*
X121085557Y-91029980D01*
X121085553Y-91029978D01*
X121069394Y-91025648D01*
X121009131Y-91009500D01*
X121009129Y-91009500D01*
X121009127Y-91009500D01*
X116676852Y-91009500D01*
X116657540Y-91007598D01*
X116624010Y-91000929D01*
X116617700Y-90999458D01*
X116536081Y-90977589D01*
X116505892Y-90969500D01*
X116505891Y-90969500D01*
X116374109Y-90969500D01*
X116374108Y-90969500D01*
X116343919Y-90977589D01*
X116296199Y-90990375D01*
X116296198Y-90990374D01*
X116246807Y-91003609D01*
X116246805Y-91003610D01*
X116132694Y-91069492D01*
X116039492Y-91162694D01*
X115973610Y-91276805D01*
X115973609Y-91276807D01*
X115961908Y-91320473D01*
X115961909Y-91320474D01*
X115939500Y-91404108D01*
X115939500Y-91535891D01*
X115973607Y-91663184D01*
X115973610Y-91663191D01*
X115993373Y-91697420D01*
X116004473Y-91726336D01*
X116006843Y-91737484D01*
X116000444Y-91798334D01*
X115959531Y-91843784D01*
X115955313Y-91846221D01*
X115905787Y-91859500D01*
X115560435Y-91859500D01*
X115544285Y-91863827D01*
X115484011Y-91879977D01*
X115484010Y-91879978D01*
X115452802Y-91897997D01*
X115452799Y-91897999D01*
X115415495Y-91919535D01*
X115415491Y-91919538D01*
X113288041Y-94046985D01*
X113262984Y-94065190D01*
X113251101Y-94071245D01*
X113190669Y-94080817D01*
X113190666Y-94080817D01*
X113184976Y-94079915D01*
X113179750Y-94079088D01*
X113145741Y-94067044D01*
X113053187Y-94013608D01*
X113009778Y-94001977D01*
X113009775Y-94001976D01*
X112943089Y-93984108D01*
X112925892Y-93979500D01*
X112925891Y-93979500D01*
X112794109Y-93979500D01*
X112794108Y-93979500D01*
X112755154Y-93989937D01*
X112716199Y-94000375D01*
X112716198Y-94000374D01*
X112666807Y-94013609D01*
X112666805Y-94013610D01*
X112552694Y-94079492D01*
X112459492Y-94172694D01*
X112393611Y-94286803D01*
X112393609Y-94286807D01*
X112393609Y-94286809D01*
X112380212Y-94336809D01*
X112380212Y-94336810D01*
X112380211Y-94336809D01*
X112366572Y-94387714D01*
X112359500Y-94414108D01*
X112359500Y-94545892D01*
X112389579Y-94658151D01*
X112393609Y-94673190D01*
X112459496Y-94787309D01*
X112459498Y-94787311D01*
X112459500Y-94787314D01*
X112552686Y-94880500D01*
X112552688Y-94880501D01*
X112552690Y-94880503D01*
X112553237Y-94880898D01*
X112555239Y-94881975D01*
X112589834Y-94901948D01*
X112610040Y-94913614D01*
X112631634Y-94937596D01*
X112665944Y-94946174D01*
X112667548Y-94946588D01*
X112794108Y-94980500D01*
X112794110Y-94980500D01*
X112925890Y-94980500D01*
X112925892Y-94980500D01*
X113053186Y-94946392D01*
X113053188Y-94946390D01*
X113053190Y-94946390D01*
X113161190Y-94884035D01*
X113164067Y-94882639D01*
X113164856Y-94882120D01*
X113169866Y-94879026D01*
X113171160Y-94878278D01*
X113176520Y-94871294D01*
X113187567Y-94860247D01*
X113227232Y-94820580D01*
X113252290Y-94802375D01*
X113274055Y-94791287D01*
X113318994Y-94780500D01*
X113333293Y-94780500D01*
X113345185Y-94773633D01*
X113395989Y-94760021D01*
X113464511Y-94720460D01*
X113520460Y-94664511D01*
X115649412Y-92535558D01*
X115674464Y-92517357D01*
X115684215Y-92512389D01*
X115744645Y-92502820D01*
X115799161Y-92530599D01*
X115825418Y-92577478D01*
X115826762Y-92583073D01*
X115829500Y-92606196D01*
X115829500Y-93964819D01*
X115824654Y-93995412D01*
X115820532Y-94008098D01*
X115784580Y-94057589D01*
X115780459Y-94060584D01*
X115722271Y-94079500D01*
X114990435Y-94079500D01*
X114939486Y-94093152D01*
X114914011Y-94099978D01*
X114913998Y-94099983D01*
X114845489Y-94139539D01*
X114334486Y-94650543D01*
X114334479Y-94650546D01*
X114249538Y-94735489D01*
X114209981Y-94804003D01*
X114209981Y-94804005D01*
X114209980Y-94804007D01*
X114209978Y-94804011D01*
X114209976Y-94804016D01*
X114209976Y-94804018D01*
X114189500Y-94880432D01*
X114189500Y-94975998D01*
X114184654Y-95006592D01*
X114177107Y-95029818D01*
X114152958Y-95069227D01*
X114117423Y-95104763D01*
X114089492Y-95132694D01*
X114023610Y-95246804D01*
X114016674Y-95272690D01*
X114008080Y-95304765D01*
X113989500Y-95374108D01*
X113989500Y-95505892D01*
X114005603Y-95565989D01*
X114023609Y-95633190D01*
X114023610Y-95633192D01*
X114023611Y-95633195D01*
X114089494Y-95747307D01*
X114089496Y-95747309D01*
X114089498Y-95747311D01*
X114089500Y-95747314D01*
X114182686Y-95840500D01*
X114182688Y-95840501D01*
X114182690Y-95840503D01*
X114183237Y-95840898D01*
X114185239Y-95841975D01*
X114208716Y-95855529D01*
X114240040Y-95873614D01*
X114261634Y-95897596D01*
X114295944Y-95906174D01*
X114297548Y-95906588D01*
X114424108Y-95940500D01*
X114424110Y-95940500D01*
X114555890Y-95940500D01*
X114555892Y-95940500D01*
X114683186Y-95906392D01*
X114683188Y-95906390D01*
X114683190Y-95906390D01*
X114791190Y-95844035D01*
X114794067Y-95842639D01*
X114794853Y-95842122D01*
X114799862Y-95839028D01*
X114801161Y-95838277D01*
X114806519Y-95831294D01*
X114890500Y-95747314D01*
X114905317Y-95721650D01*
X114956390Y-95633190D01*
X114956390Y-95633188D01*
X114956392Y-95633186D01*
X114990500Y-95505892D01*
X114990500Y-95374108D01*
X114956392Y-95246814D01*
X114956390Y-95246811D01*
X114956390Y-95246809D01*
X114956383Y-95246798D01*
X114956066Y-95246094D01*
X114954812Y-95244076D01*
X114891602Y-95134594D01*
X114890503Y-95132690D01*
X114890501Y-95132688D01*
X114890500Y-95132686D01*
X114877475Y-95119661D01*
X114859275Y-95094609D01*
X114853217Y-95082719D01*
X114843648Y-95022301D01*
X114844446Y-95017261D01*
X114872218Y-94962751D01*
X114987847Y-94847124D01*
X115114390Y-94720580D01*
X115139445Y-94702377D01*
X115161209Y-94691289D01*
X115206152Y-94680500D01*
X115728943Y-94680500D01*
X115759531Y-94685343D01*
X115772218Y-94689466D01*
X115821718Y-94725427D01*
X115822331Y-94726279D01*
X115822358Y-94726317D01*
X115840484Y-94777836D01*
X115840973Y-94786135D01*
X115839242Y-94811270D01*
X115829500Y-94860247D01*
X115829500Y-96399753D01*
X115841130Y-96458220D01*
X115841135Y-96458235D01*
X115871168Y-96503182D01*
X115883032Y-96520937D01*
X115885448Y-96524552D01*
X115951769Y-96568867D01*
X115974000Y-96573289D01*
X115996228Y-96577711D01*
X115996231Y-96577711D01*
X116004159Y-96579288D01*
X116006324Y-96579861D01*
X116008514Y-96580217D01*
X116010081Y-96580500D01*
X116131000Y-96580500D01*
X116189191Y-96599407D01*
X116225155Y-96648907D01*
X116230000Y-96679500D01*
X116230000Y-97350500D01*
X116211093Y-97408691D01*
X116161593Y-97444655D01*
X116131000Y-97449500D01*
X114571159Y-97449500D01*
X114540566Y-97444654D01*
X114517339Y-97437107D01*
X114477928Y-97412957D01*
X109950582Y-92885611D01*
X109932376Y-92860552D01*
X109921288Y-92838790D01*
X109910500Y-92793848D01*
X109910500Y-92704112D01*
X109910500Y-92704109D01*
X109909147Y-92699059D01*
X109887651Y-92618833D01*
X109876392Y-92576813D01*
X109876069Y-92576099D01*
X109874812Y-92574076D01*
X109810503Y-92462690D01*
X109810501Y-92462688D01*
X109810500Y-92462686D01*
X109717314Y-92369500D01*
X109717311Y-92369498D01*
X109717309Y-92369496D01*
X109674034Y-92344511D01*
X109660476Y-92336683D01*
X109639442Y-92313322D01*
X109553799Y-92290375D01*
X109553798Y-92290374D01*
X109496766Y-92275093D01*
X109475892Y-92269500D01*
X109475891Y-92269500D01*
X109344109Y-92269500D01*
X109344108Y-92269500D01*
X109305154Y-92279937D01*
X109266199Y-92290375D01*
X109266198Y-92290374D01*
X109216807Y-92303609D01*
X109216805Y-92303610D01*
X109102694Y-92369492D01*
X109009495Y-92462691D01*
X108943607Y-92576812D01*
X108943606Y-92576814D01*
X108934984Y-92608998D01*
X108934984Y-92609000D01*
X108909500Y-92704108D01*
X108909500Y-92835892D01*
X108931691Y-92918710D01*
X108931690Y-92918710D01*
X108943609Y-92963191D01*
X108943610Y-92963193D01*
X109009494Y-93077307D01*
X109009496Y-93077309D01*
X109009498Y-93077311D01*
X109009500Y-93077314D01*
X109102686Y-93170500D01*
X109102688Y-93170501D01*
X109102690Y-93170503D01*
X109103237Y-93170898D01*
X109105247Y-93171979D01*
X109160040Y-93203614D01*
X109181634Y-93227596D01*
X109215944Y-93236174D01*
X109217548Y-93236588D01*
X109344108Y-93270500D01*
X109344110Y-93270500D01*
X109428841Y-93270500D01*
X109459432Y-93275345D01*
X109471769Y-93279353D01*
X109482658Y-93282891D01*
X109522071Y-93307042D01*
X110395551Y-94180522D01*
X110413756Y-94205580D01*
X110419341Y-94216541D01*
X110428913Y-94276973D01*
X110402946Y-94329632D01*
X110396018Y-94336933D01*
X110373705Y-94354524D01*
X110316219Y-94387714D01*
X110288425Y-94403761D01*
X110288424Y-94403762D01*
X110288421Y-94403764D01*
X110288421Y-94403765D01*
X110276644Y-94415541D01*
X110276609Y-94415574D01*
X110228503Y-94463681D01*
X110203447Y-94481885D01*
X110181687Y-94492973D01*
X110136740Y-94503765D01*
X110030699Y-94503765D01*
X110000106Y-94498919D01*
X109976879Y-94491372D01*
X109937469Y-94467222D01*
X109730521Y-94260275D01*
X109729179Y-94259500D01*
X109715863Y-94251812D01*
X109715853Y-94251806D01*
X109711278Y-94249164D01*
X109700522Y-94241977D01*
X109690317Y-94234147D01*
X109680579Y-94225607D01*
X109494511Y-94039540D01*
X109486373Y-94034841D01*
X109478152Y-94029536D01*
X109471803Y-94024979D01*
X109459527Y-94014555D01*
X109405245Y-93960274D01*
X109390339Y-93951668D01*
X109390338Y-93951668D01*
X109348010Y-93927230D01*
X109342794Y-93923228D01*
X109330647Y-93918196D01*
X109324133Y-93917339D01*
X109309840Y-93913509D01*
X109281543Y-93900910D01*
X109265627Y-93890574D01*
X109231345Y-93852503D01*
X109229423Y-93848732D01*
X109222000Y-93829397D01*
X109212128Y-93792554D01*
X109212127Y-93792549D01*
X109212125Y-93792546D01*
X109212125Y-93792544D01*
X109212118Y-93792531D01*
X109211800Y-93791828D01*
X109210547Y-93789811D01*
X109146238Y-93678425D01*
X109146236Y-93678423D01*
X109146235Y-93678421D01*
X109053049Y-93585235D01*
X109053046Y-93585233D01*
X109053044Y-93585231D01*
X109052760Y-93585067D01*
X108996211Y-93552418D01*
X108975177Y-93529057D01*
X108889534Y-93506110D01*
X108889533Y-93506109D01*
X108832501Y-93490828D01*
X108811627Y-93485235D01*
X108811626Y-93485235D01*
X108679844Y-93485235D01*
X108679843Y-93485235D01*
X108640889Y-93495672D01*
X108601934Y-93506110D01*
X108601933Y-93506109D01*
X108552542Y-93519344D01*
X108552540Y-93519345D01*
X108438429Y-93585227D01*
X108345227Y-93678429D01*
X108279343Y-93792544D01*
X108279065Y-93793280D01*
X108278519Y-93795621D01*
X108250308Y-93900910D01*
X108245235Y-93919843D01*
X108245235Y-94051627D01*
X108262455Y-94115892D01*
X108279344Y-94178925D01*
X108345231Y-94293044D01*
X108345233Y-94293046D01*
X108345235Y-94293049D01*
X108438421Y-94386235D01*
X108438423Y-94386236D01*
X108438425Y-94386238D01*
X108438972Y-94386633D01*
X108440974Y-94387710D01*
X108468776Y-94403761D01*
X108495775Y-94419349D01*
X108517369Y-94443331D01*
X108551679Y-94451909D01*
X108553283Y-94452323D01*
X108679843Y-94486235D01*
X108679845Y-94486235D01*
X108811627Y-94486235D01*
X108815768Y-94486235D01*
X108820480Y-94485925D01*
X108825138Y-94485924D01*
X108850997Y-94485924D01*
X108876619Y-94489296D01*
X108921173Y-94501235D01*
X109000297Y-94501235D01*
X109043214Y-94501235D01*
X109069934Y-94504909D01*
X109094145Y-94511697D01*
X109116915Y-94521284D01*
X109122241Y-94524359D01*
X109133004Y-94531550D01*
X109143208Y-94539379D01*
X109152949Y-94547920D01*
X109290275Y-94685246D01*
X109290274Y-94685246D01*
X109346224Y-94741195D01*
X109365465Y-94752303D01*
X109376214Y-94759485D01*
X109386430Y-94767324D01*
X109396161Y-94775857D01*
X109609080Y-94988776D01*
X109609079Y-94988776D01*
X109665029Y-95044725D01*
X109733547Y-95084284D01*
X109733551Y-95084286D01*
X109800302Y-95102172D01*
X109802453Y-95102988D01*
X109809976Y-95104765D01*
X109809977Y-95104765D01*
X109809978Y-95104765D01*
X109889102Y-95104765D01*
X110131734Y-95104765D01*
X110162325Y-95109609D01*
X110185551Y-95117156D01*
X110224962Y-95141307D01*
X110288526Y-95204870D01*
X110288781Y-95205059D01*
X110290974Y-95206240D01*
X110334942Y-95231624D01*
X110345775Y-95237879D01*
X110367369Y-95261861D01*
X110401679Y-95270439D01*
X110403283Y-95270853D01*
X110529843Y-95304765D01*
X110529845Y-95304765D01*
X110661625Y-95304765D01*
X110661627Y-95304765D01*
X110788921Y-95270657D01*
X110788923Y-95270655D01*
X110788925Y-95270655D01*
X110896925Y-95208300D01*
X110899802Y-95206904D01*
X110900588Y-95206387D01*
X110905597Y-95203293D01*
X110906896Y-95202542D01*
X110912254Y-95195559D01*
X110996235Y-95111579D01*
X111044813Y-95027437D01*
X111064299Y-95003374D01*
X111073449Y-94995135D01*
X111129343Y-94970252D01*
X111186927Y-94981708D01*
X111195780Y-94986514D01*
X111218538Y-95003509D01*
X113934438Y-97719409D01*
X113952645Y-97744470D01*
X113957609Y-97754213D01*
X113967179Y-97814645D01*
X113939400Y-97869161D01*
X113892521Y-97895418D01*
X113886926Y-97896762D01*
X113863803Y-97899500D01*
X108499562Y-97899500D01*
X108420438Y-97899500D01*
X108399277Y-97905170D01*
X108378115Y-97910840D01*
X108344010Y-97919977D01*
X108344004Y-97919979D01*
X108275491Y-97959536D01*
X108275483Y-97959544D01*
X107972033Y-98262993D01*
X107946975Y-98281199D01*
X107930061Y-98289817D01*
X107879941Y-98300471D01*
X107875714Y-98300250D01*
X107855280Y-98297015D01*
X107845892Y-98294500D01*
X107714108Y-98294500D01*
X107704722Y-98297015D01*
X107639470Y-98314498D01*
X107639470Y-98314499D01*
X107586809Y-98328609D01*
X107586807Y-98328609D01*
X107586803Y-98328611D01*
X107475422Y-98392917D01*
X107475417Y-98392921D01*
X107472690Y-98394496D01*
X107472689Y-98394497D01*
X107472686Y-98394499D01*
X107472686Y-98394500D01*
X107460899Y-98406286D01*
X107460876Y-98406308D01*
X107412768Y-98454416D01*
X107387712Y-98472620D01*
X107365952Y-98483708D01*
X107321005Y-98494500D01*
X106876159Y-98494500D01*
X106845566Y-98489654D01*
X106822339Y-98482107D01*
X106782928Y-98457957D01*
X106421320Y-98096349D01*
X106421320Y-98096348D01*
X106028064Y-97703093D01*
X106016469Y-97689149D01*
X105997902Y-97662124D01*
X105980500Y-97606064D01*
X105980500Y-97510251D01*
X105980499Y-97510250D01*
X105980498Y-97510241D01*
X105977711Y-97496231D01*
X105968867Y-97451769D01*
X105958421Y-97436135D01*
X105954165Y-97422467D01*
X105954175Y-97421581D01*
X105953408Y-97419918D01*
X105948235Y-97401575D01*
X105950634Y-97340443D01*
X105961205Y-97319697D01*
X105968867Y-97308231D01*
X105980500Y-97249748D01*
X105980500Y-97238464D01*
X105990804Y-97195942D01*
X105990976Y-97194611D01*
X105991285Y-97193958D01*
X105991483Y-97193142D01*
X105993641Y-97188950D01*
X105993709Y-97188845D01*
X105993731Y-97188774D01*
X105994589Y-97187110D01*
X106015209Y-97166664D01*
X106029802Y-97151204D01*
X106028861Y-97149908D01*
X106029573Y-97149391D01*
X106032372Y-97148481D01*
X106035134Y-97145556D01*
X106035171Y-97145536D01*
X106039595Y-97143121D01*
X106039932Y-97143739D01*
X106053328Y-97141676D01*
X106087742Y-97130500D01*
X106285998Y-97130500D01*
X106316586Y-97135343D01*
X106339817Y-97142891D01*
X106379226Y-97167040D01*
X106402686Y-97190500D01*
X106402688Y-97190501D01*
X106402795Y-97190608D01*
X106403046Y-97190794D01*
X106405239Y-97191975D01*
X106447874Y-97216590D01*
X106460040Y-97223614D01*
X106481634Y-97247596D01*
X106515944Y-97256174D01*
X106517548Y-97256588D01*
X106644108Y-97290500D01*
X106644110Y-97290500D01*
X106775890Y-97290500D01*
X106775892Y-97290500D01*
X106903186Y-97256392D01*
X106903188Y-97256390D01*
X106903190Y-97256390D01*
X107011190Y-97194035D01*
X107014067Y-97192639D01*
X107014853Y-97192122D01*
X107019862Y-97189028D01*
X107021161Y-97188277D01*
X107026519Y-97181294D01*
X107110500Y-97097314D01*
X107110503Y-97097309D01*
X107176390Y-96983190D01*
X107176390Y-96983188D01*
X107176392Y-96983186D01*
X107210500Y-96855892D01*
X107210500Y-96724108D01*
X107176392Y-96596814D01*
X107176390Y-96596811D01*
X107176390Y-96596809D01*
X107176383Y-96596798D01*
X107176066Y-96596094D01*
X107174812Y-96594076D01*
X107111587Y-96484568D01*
X107110503Y-96482690D01*
X107110501Y-96482688D01*
X107110500Y-96482686D01*
X107017314Y-96389500D01*
X107017311Y-96389498D01*
X107017309Y-96389496D01*
X107007305Y-96383720D01*
X106960476Y-96356683D01*
X106939442Y-96333321D01*
X106842312Y-96307297D01*
X106842311Y-96307296D01*
X106793688Y-96294268D01*
X106775892Y-96289500D01*
X106775891Y-96289500D01*
X106644109Y-96289500D01*
X106644108Y-96289500D01*
X106634573Y-96292055D01*
X106577687Y-96307296D01*
X106577688Y-96307297D01*
X106516809Y-96323609D01*
X106516807Y-96323609D01*
X106516803Y-96323611D01*
X106402694Y-96389492D01*
X106402688Y-96389497D01*
X106324343Y-96467841D01*
X106320593Y-96471400D01*
X106285304Y-96503182D01*
X106239647Y-96526452D01*
X106235500Y-96527334D01*
X106214909Y-96529500D01*
X106095180Y-96529500D01*
X106064587Y-96524654D01*
X106051901Y-96520532D01*
X106002401Y-96484568D01*
X106002394Y-96484558D01*
X105999400Y-96480436D01*
X105980500Y-96422256D01*
X105980500Y-96410251D01*
X105980499Y-96410250D01*
X105980498Y-96410241D01*
X105975223Y-96383725D01*
X105974316Y-96379164D01*
X105968868Y-96351772D01*
X105968866Y-96351767D01*
X105966376Y-96348041D01*
X105953406Y-96319910D01*
X105952670Y-96317300D01*
X105949206Y-96305017D01*
X105950336Y-96247548D01*
X105951009Y-96245479D01*
X105953433Y-96238017D01*
X105965270Y-96213614D01*
X105968866Y-96208232D01*
X105968865Y-96208232D01*
X105968867Y-96208231D01*
X105980500Y-96149748D01*
X105980500Y-96145180D01*
X105985343Y-96114594D01*
X105985643Y-96113670D01*
X105989465Y-96101905D01*
X106025423Y-96052406D01*
X106026478Y-96051641D01*
X106029563Y-96049400D01*
X106087743Y-96030500D01*
X106593293Y-96030500D01*
X106605185Y-96023633D01*
X106655989Y-96010021D01*
X106724511Y-95970460D01*
X106760737Y-95934234D01*
X106780461Y-95914511D01*
X106987607Y-95707364D01*
X107060460Y-95634511D01*
X107072295Y-95614012D01*
X107100021Y-95565989D01*
X107120500Y-95489562D01*
X107120500Y-95014001D01*
X107125345Y-94983410D01*
X107132892Y-94960181D01*
X107157043Y-94920769D01*
X107240500Y-94837314D01*
X107306392Y-94723186D01*
X107313283Y-94697466D01*
X107325879Y-94669173D01*
X107332086Y-94659614D01*
X107379636Y-94621112D01*
X107440736Y-94617911D01*
X107445443Y-94619172D01*
X107489823Y-94644794D01*
X109350617Y-96505588D01*
X109368821Y-96530644D01*
X109374877Y-96542529D01*
X109384449Y-96602960D01*
X109384449Y-96602965D01*
X109383652Y-96607996D01*
X109355876Y-96662508D01*
X109323965Y-96694420D01*
X109323964Y-96694422D01*
X109292782Y-96725604D01*
X109226900Y-96839715D01*
X109226899Y-96839718D01*
X109222565Y-96855888D01*
X109222566Y-96855889D01*
X109192790Y-96967018D01*
X109192790Y-97098801D01*
X109210185Y-97163724D01*
X109210186Y-97163724D01*
X109210186Y-97163725D01*
X109226899Y-97226100D01*
X109226900Y-97226102D01*
X109226901Y-97226105D01*
X109292784Y-97340217D01*
X109292786Y-97340219D01*
X109292788Y-97340221D01*
X109292790Y-97340224D01*
X109385976Y-97433410D01*
X109385978Y-97433411D01*
X109385980Y-97433413D01*
X109386527Y-97433808D01*
X109388529Y-97434885D01*
X109426503Y-97456809D01*
X109443330Y-97466524D01*
X109464924Y-97490506D01*
X109499234Y-97499084D01*
X109500838Y-97499498D01*
X109627398Y-97533410D01*
X109627400Y-97533410D01*
X109759180Y-97533410D01*
X109759182Y-97533410D01*
X109886476Y-97499302D01*
X109886478Y-97499300D01*
X109886480Y-97499300D01*
X109994480Y-97436945D01*
X109997357Y-97435549D01*
X109998143Y-97435032D01*
X110003152Y-97431938D01*
X110004451Y-97431187D01*
X110009809Y-97424204D01*
X110093790Y-97340224D01*
X110142192Y-97256390D01*
X110159680Y-97226100D01*
X110159680Y-97226098D01*
X110159682Y-97226096D01*
X110193790Y-97098802D01*
X110193790Y-96967018D01*
X110159682Y-96839724D01*
X110159680Y-96839721D01*
X110159680Y-96839719D01*
X110159673Y-96839708D01*
X110159356Y-96839004D01*
X110158102Y-96836986D01*
X110093793Y-96725600D01*
X110093792Y-96725599D01*
X110093791Y-96725597D01*
X110033869Y-96665674D01*
X110015666Y-96640619D01*
X110004578Y-96618857D01*
X109993790Y-96573918D01*
X109993790Y-96383726D01*
X109992713Y-96379164D01*
X109991978Y-96376969D01*
X109988333Y-96363365D01*
X109973311Y-96307301D01*
X109967256Y-96296814D01*
X109946671Y-96261159D01*
X109933754Y-96238784D01*
X109933750Y-96238779D01*
X109908585Y-96213614D01*
X109877801Y-96182829D01*
X109831026Y-96136054D01*
X109831026Y-96136055D01*
X105634511Y-91939540D01*
X105634508Y-91939538D01*
X105634505Y-91939535D01*
X105623541Y-91933205D01*
X105565989Y-91899979D01*
X105565985Y-91899977D01*
X105565984Y-91899976D01*
X105565981Y-91899975D01*
X105506681Y-91884086D01*
X105489564Y-91879500D01*
X105489563Y-91879500D01*
X103429001Y-91879500D01*
X103398407Y-91874654D01*
X103375181Y-91867107D01*
X103335771Y-91842957D01*
X103305579Y-91812765D01*
X103287376Y-91787709D01*
X103276288Y-91765947D01*
X103265500Y-91721008D01*
X103265500Y-91406159D01*
X103270344Y-91375570D01*
X103271122Y-91373176D01*
X103277891Y-91352339D01*
X103302040Y-91312930D01*
X104294391Y-90320579D01*
X104319443Y-90302378D01*
X104341210Y-90291288D01*
X104386151Y-90280500D01*
X116033293Y-90280500D01*
X116045185Y-90273633D01*
X116095989Y-90260021D01*
X116164511Y-90220460D01*
X116220460Y-90164511D01*
X117894391Y-88490579D01*
X117919443Y-88472378D01*
X117941210Y-88461288D01*
X117986151Y-88450500D01*
X122848841Y-88450500D01*
X122879432Y-88455345D01*
X122891769Y-88459353D01*
X122902658Y-88462891D01*
X122942071Y-88487042D01*
X125139224Y-90684195D01*
X125157429Y-90709253D01*
X125168516Y-90731012D01*
X125179307Y-90775958D01*
X125179307Y-91117586D01*
X125174461Y-91148181D01*
X125163860Y-91180805D01*
X125155442Y-91199710D01*
X125093610Y-91306805D01*
X125093608Y-91306809D01*
X125086781Y-91332286D01*
X125086782Y-91332287D01*
X125059500Y-91434108D01*
X125059500Y-91565891D01*
X125084715Y-91659999D01*
X125093609Y-91693191D01*
X125093610Y-91693193D01*
X125159494Y-91807307D01*
X125159496Y-91807309D01*
X125159498Y-91807311D01*
X125159500Y-91807314D01*
X125252686Y-91900500D01*
X125255699Y-91902240D01*
X125255880Y-91902344D01*
X125276383Y-91918075D01*
X125294192Y-91935883D01*
X125309925Y-91956386D01*
X125319540Y-91973040D01*
X126898168Y-93551668D01*
X126898167Y-93551668D01*
X126931585Y-93585086D01*
X126935117Y-93588808D01*
X126969255Y-93626702D01*
X126994156Y-93682591D01*
X126994157Y-93682598D01*
X126994690Y-93687660D01*
X126981980Y-93747511D01*
X126981970Y-93747527D01*
X126918875Y-93856809D01*
X126918597Y-93857545D01*
X126918051Y-93859886D01*
X126893973Y-93949751D01*
X126884767Y-93984108D01*
X126884767Y-94115892D01*
X126899986Y-94172690D01*
X126910051Y-94210253D01*
X126910051Y-94210254D01*
X126918874Y-94243186D01*
X126918875Y-94243189D01*
X126918876Y-94243190D01*
X126984763Y-94357309D01*
X126984765Y-94357311D01*
X126984767Y-94357314D01*
X127077953Y-94450500D01*
X127077955Y-94450501D01*
X127077957Y-94450503D01*
X127078504Y-94450898D01*
X127080506Y-94451975D01*
X127086160Y-94455239D01*
X127135307Y-94483614D01*
X127156901Y-94507596D01*
X127191211Y-94516174D01*
X127192815Y-94516588D01*
X127319375Y-94550500D01*
X127319377Y-94550500D01*
X127451157Y-94550500D01*
X127451159Y-94550500D01*
X127578453Y-94516392D01*
X127578455Y-94516390D01*
X127578457Y-94516390D01*
X127686457Y-94454035D01*
X127689334Y-94452639D01*
X127690120Y-94452122D01*
X127695129Y-94449028D01*
X127696428Y-94448277D01*
X127701786Y-94441294D01*
X127785767Y-94357314D01*
X127851659Y-94243186D01*
X127851660Y-94243180D01*
X127854142Y-94237190D01*
X127854614Y-94237385D01*
X127863698Y-94216981D01*
X127869901Y-94207430D01*
X127917452Y-94168926D01*
X127978535Y-94165722D01*
X127983244Y-94166983D01*
X128027636Y-94192608D01*
X128932516Y-95097488D01*
X128950720Y-95122544D01*
X128956776Y-95134429D01*
X128966348Y-95194860D01*
X128966348Y-95194865D01*
X128965551Y-95199896D01*
X128937777Y-95254406D01*
X128919506Y-95272678D01*
X128919501Y-95272683D01*
X128919497Y-95272689D01*
X128919491Y-95272697D01*
X128853610Y-95386805D01*
X128853608Y-95386809D01*
X128842890Y-95426807D01*
X128842891Y-95426808D01*
X128830321Y-95473722D01*
X128819500Y-95514108D01*
X128819500Y-95645892D01*
X128824194Y-95663414D01*
X128837022Y-95711289D01*
X128837023Y-95711289D01*
X128837023Y-95711290D01*
X128853609Y-95773190D01*
X128853610Y-95773192D01*
X128853611Y-95773195D01*
X128919494Y-95887307D01*
X128919496Y-95887309D01*
X128919498Y-95887311D01*
X128919500Y-95887314D01*
X129012686Y-95980500D01*
X129012688Y-95980501D01*
X129012690Y-95980503D01*
X129013237Y-95980898D01*
X129015239Y-95981975D01*
X129030468Y-95990767D01*
X129070040Y-96013614D01*
X129091634Y-96037596D01*
X129125944Y-96046174D01*
X129127548Y-96046588D01*
X129254108Y-96080500D01*
X129254110Y-96080500D01*
X129385890Y-96080500D01*
X129385892Y-96080500D01*
X129513186Y-96046392D01*
X129513188Y-96046390D01*
X129513190Y-96046390D01*
X129621190Y-95984035D01*
X129624067Y-95982639D01*
X129624853Y-95982122D01*
X129629862Y-95979028D01*
X129631161Y-95978277D01*
X129636519Y-95971294D01*
X129720500Y-95887314D01*
X129786392Y-95773186D01*
X129786392Y-95773182D01*
X129786440Y-95773100D01*
X129796889Y-95758314D01*
X129807313Y-95746108D01*
X129859477Y-95714140D01*
X129866623Y-95712424D01*
X129915361Y-95713059D01*
X129999108Y-95735500D01*
X129999110Y-95735500D01*
X130130890Y-95735500D01*
X130130892Y-95735500D01*
X130258186Y-95701392D01*
X130258188Y-95701390D01*
X130258190Y-95701390D01*
X130345050Y-95651240D01*
X130349547Y-95648798D01*
X130379119Y-95633714D01*
X130379120Y-95633715D01*
X130393791Y-95626231D01*
X130454217Y-95616635D01*
X130506902Y-95642596D01*
X130510377Y-95645892D01*
X130514215Y-95649533D01*
X130531817Y-95671855D01*
X130559531Y-95719857D01*
X130559533Y-95719859D01*
X130559535Y-95719862D01*
X131131729Y-96292055D01*
X132794417Y-97954743D01*
X132812622Y-97979801D01*
X132823709Y-98001560D01*
X132834500Y-98046506D01*
X132834500Y-99658484D01*
X132829654Y-99689077D01*
X132822107Y-99712304D01*
X132797957Y-99751715D01*
X132640255Y-99909417D01*
X132615198Y-99927621D01*
X132593440Y-99938708D01*
X132548493Y-99949500D01*
X132494108Y-99949500D01*
X132455154Y-99959937D01*
X132416199Y-99970375D01*
X132416198Y-99970374D01*
X132366807Y-99983609D01*
X132366805Y-99983610D01*
X132252694Y-100049492D01*
X132159495Y-100142691D01*
X132093607Y-100256812D01*
X132093606Y-100256814D01*
X132089355Y-100272684D01*
X132089355Y-100272685D01*
X132059500Y-100384108D01*
X132059500Y-100515891D01*
X132075003Y-100573754D01*
X132075004Y-100573754D01*
X132075004Y-100573755D01*
X132093609Y-100643190D01*
X132093610Y-100643192D01*
X132093611Y-100643195D01*
X132159494Y-100757307D01*
X132159496Y-100757309D01*
X132159498Y-100757311D01*
X132159500Y-100757314D01*
X132252686Y-100850500D01*
X132252688Y-100850501D01*
X132252690Y-100850503D01*
X132253237Y-100850898D01*
X132255239Y-100851975D01*
X132285587Y-100869496D01*
X132310040Y-100883614D01*
X132331634Y-100907596D01*
X132365944Y-100916174D01*
X132367548Y-100916588D01*
X132494108Y-100950500D01*
X132543485Y-100950500D01*
X132574076Y-100955345D01*
X132583230Y-100958319D01*
X132597302Y-100962891D01*
X132636715Y-100987042D01*
X132794417Y-101144744D01*
X132812622Y-101169802D01*
X132823709Y-101191561D01*
X132834500Y-101236507D01*
X132834500Y-103889819D01*
X132829654Y-103920412D01*
X132825532Y-103933098D01*
X132789580Y-103982589D01*
X132785459Y-103985584D01*
X132727271Y-104004500D01*
X131674483Y-104004500D01*
X131643890Y-103999654D01*
X131631204Y-103995532D01*
X131581706Y-103959571D01*
X131577385Y-103953624D01*
X131559324Y-103908355D01*
X131545687Y-103804764D01*
X131487698Y-103664767D01*
X131395451Y-103544549D01*
X131275233Y-103452302D01*
X131221454Y-103430026D01*
X131144970Y-103398345D01*
X131135236Y-103394313D01*
X131135234Y-103394312D01*
X131135232Y-103394312D01*
X131122906Y-103392689D01*
X131122901Y-103392688D01*
X131022721Y-103379500D01*
X131022720Y-103379500D01*
X129697280Y-103379500D01*
X129697279Y-103379500D01*
X129697277Y-103379500D01*
X129584768Y-103394311D01*
X129584748Y-103394319D01*
X129444770Y-103452299D01*
X129444766Y-103452301D01*
X129324557Y-103544541D01*
X129324541Y-103544557D01*
X129232301Y-103664766D01*
X129232299Y-103664770D01*
X129174319Y-103804748D01*
X129174311Y-103804768D01*
X129161300Y-103903597D01*
X129157303Y-103921261D01*
X129150534Y-103942098D01*
X129114573Y-103991600D01*
X129114565Y-103991606D01*
X129105626Y-103998100D01*
X129073062Y-104013632D01*
X129025815Y-104026292D01*
X129024452Y-104026635D01*
X129024365Y-104026678D01*
X128950143Y-104069530D01*
X128679533Y-104340140D01*
X128653353Y-104385486D01*
X128636680Y-104414364D01*
X128633554Y-104426032D01*
X128627592Y-104448279D01*
X128627593Y-104448280D01*
X128627444Y-104448834D01*
X128627443Y-104448838D01*
X128625738Y-104455207D01*
X128614500Y-104497147D01*
X128614500Y-104548778D01*
X128613680Y-104555110D01*
X128610031Y-104562799D01*
X128605442Y-104583762D01*
X128602336Y-104590515D01*
X128591114Y-104602675D01*
X128587455Y-104610390D01*
X128580488Y-104614191D01*
X128560843Y-104635482D01*
X128512394Y-104648147D01*
X128501654Y-104648147D01*
X128468956Y-104642591D01*
X128456022Y-104638065D01*
X128439704Y-104632355D01*
X128439692Y-104632352D01*
X128409281Y-104629500D01*
X128409274Y-104629500D01*
X128409266Y-104629500D01*
X128106515Y-104629500D01*
X128075922Y-104624654D01*
X128052695Y-104617107D01*
X128013284Y-104592957D01*
X127871416Y-104451089D01*
X127853213Y-104426034D01*
X127847155Y-104414145D01*
X127837584Y-104353717D01*
X127838382Y-104348680D01*
X127866157Y-104294168D01*
X128140465Y-104019862D01*
X128155241Y-103994269D01*
X128183318Y-103945638D01*
X128205500Y-103862853D01*
X128205500Y-102851512D01*
X128210344Y-102820923D01*
X128217891Y-102797692D01*
X128242040Y-102758284D01*
X128470348Y-102529975D01*
X128495400Y-102511773D01*
X128509196Y-102504744D01*
X128565768Y-102494642D01*
X128580110Y-102496339D01*
X128580110Y-102496338D01*
X128584667Y-102496878D01*
X128598653Y-102499564D01*
X128714108Y-102530500D01*
X128714110Y-102530500D01*
X128845890Y-102530500D01*
X128845892Y-102530500D01*
X128973186Y-102496392D01*
X129011013Y-102474551D01*
X129039923Y-102463454D01*
X129051065Y-102461085D01*
X129111916Y-102467477D01*
X129157386Y-102508413D01*
X129161475Y-102515494D01*
X129173895Y-102552070D01*
X129174308Y-102555210D01*
X129174312Y-102555231D01*
X129174313Y-102555236D01*
X129209585Y-102640391D01*
X129232302Y-102695233D01*
X129324549Y-102815451D01*
X129444767Y-102907698D01*
X129584764Y-102965687D01*
X129697280Y-102980500D01*
X129697281Y-102980500D01*
X131022719Y-102980500D01*
X131022720Y-102980500D01*
X131135236Y-102965687D01*
X131275233Y-102907698D01*
X131395451Y-102815451D01*
X131487698Y-102695233D01*
X131545687Y-102555236D01*
X131545689Y-102555227D01*
X131553641Y-102494816D01*
X131560500Y-102442720D01*
X131560500Y-101617280D01*
X131545687Y-101504764D01*
X131487698Y-101364767D01*
X131395451Y-101244549D01*
X131395446Y-101244545D01*
X131395445Y-101244544D01*
X131275233Y-101152302D01*
X131275230Y-101152300D01*
X131269725Y-101150020D01*
X131269724Y-101150020D01*
X131204813Y-101123133D01*
X131185898Y-101106978D01*
X131145777Y-101096948D01*
X131144677Y-101096541D01*
X131132741Y-101093723D01*
X131128798Y-101093465D01*
X131022721Y-101079500D01*
X131022720Y-101079500D01*
X129697280Y-101079500D01*
X129697279Y-101079500D01*
X129697277Y-101079500D01*
X129584768Y-101094311D01*
X129584748Y-101094319D01*
X129444770Y-101152299D01*
X129444766Y-101152301D01*
X129324557Y-101244541D01*
X129324541Y-101244557D01*
X129232301Y-101364766D01*
X129232299Y-101364770D01*
X129174314Y-101504760D01*
X129174311Y-101504767D01*
X129173477Y-101508660D01*
X129171617Y-101508261D01*
X129148316Y-101557015D01*
X129094522Y-101586168D01*
X129050935Y-101584439D01*
X128923799Y-101550375D01*
X128923798Y-101550374D01*
X128866766Y-101535093D01*
X128845892Y-101529500D01*
X128845891Y-101529500D01*
X128714109Y-101529500D01*
X128714108Y-101529500D01*
X128686834Y-101536808D01*
X128636199Y-101550375D01*
X128636198Y-101550374D01*
X128586807Y-101563609D01*
X128586805Y-101563610D01*
X128475422Y-101627917D01*
X128475417Y-101627921D01*
X128472690Y-101629496D01*
X128472689Y-101629497D01*
X128472686Y-101629499D01*
X128472686Y-101629500D01*
X128460912Y-101641273D01*
X128460887Y-101641297D01*
X128390837Y-101711348D01*
X128386106Y-101715778D01*
X128360406Y-101738315D01*
X128344633Y-101749618D01*
X128310138Y-101769533D01*
X128310135Y-101769535D01*
X128310129Y-101769542D01*
X128220555Y-101859114D01*
X128220538Y-101859135D01*
X127619531Y-102460142D01*
X127615745Y-102466703D01*
X127615738Y-102466715D01*
X127578271Y-102531606D01*
X127576772Y-102534018D01*
X127571090Y-102555231D01*
X127571089Y-102555234D01*
X127554500Y-102617147D01*
X127554500Y-103628484D01*
X127549654Y-103659077D01*
X127542107Y-103682304D01*
X127517956Y-103721715D01*
X127358699Y-103880971D01*
X127333641Y-103899176D01*
X127314072Y-103909147D01*
X127262656Y-103918003D01*
X127262544Y-103919712D01*
X127259311Y-103919500D01*
X127259310Y-103919500D01*
X127140692Y-103919500D01*
X127140691Y-103919500D01*
X127110606Y-103927561D01*
X127070566Y-103938289D01*
X127070565Y-103938288D01*
X127026111Y-103950200D01*
X127026108Y-103950201D01*
X126923393Y-104009505D01*
X126839503Y-104093395D01*
X126780201Y-104196109D01*
X126779924Y-104196844D01*
X126779377Y-104199185D01*
X126764661Y-104254108D01*
X126749500Y-104310691D01*
X126749500Y-104429309D01*
X126765768Y-104490021D01*
X126771976Y-104513189D01*
X126780203Y-104543893D01*
X126839506Y-104646607D01*
X126839507Y-104646608D01*
X126839509Y-104646610D01*
X126839511Y-104646613D01*
X126923387Y-104730489D01*
X126923389Y-104730490D01*
X126923943Y-104730889D01*
X126925953Y-104731971D01*
X126944117Y-104742458D01*
X126968185Y-104761947D01*
X126977114Y-104771863D01*
X127002000Y-104827757D01*
X127002001Y-104827767D01*
X127002908Y-104836404D01*
X126997894Y-104879440D01*
X126957355Y-104995294D01*
X126957352Y-104995305D01*
X126954500Y-105025717D01*
X126954500Y-105634281D01*
X126957352Y-105664692D01*
X126957356Y-105664707D01*
X126957356Y-105664708D01*
X127002207Y-105792884D01*
X127025242Y-105824095D01*
X127039511Y-105851589D01*
X127043112Y-105862397D01*
X127043568Y-105923581D01*
X127007993Y-105973333D01*
X127005543Y-105975142D01*
X126947500Y-105994497D01*
X126946738Y-105994500D01*
X126778161Y-105994500D01*
X126747564Y-105989653D01*
X126736729Y-105986132D01*
X126687231Y-105950166D01*
X126668326Y-105891979D01*
X126668326Y-105888935D01*
X126687233Y-105830744D01*
X126687668Y-105830151D01*
X126692137Y-105824095D01*
X126705271Y-105806298D01*
X126710615Y-105799674D01*
X126714087Y-105795730D01*
X126716654Y-105790873D01*
X126718675Y-105788134D01*
X126717417Y-105779996D01*
X126721696Y-105763149D01*
X126726768Y-105748653D01*
X126752646Y-105674699D01*
X126752647Y-105674688D01*
X126753931Y-105668814D01*
X126755500Y-105669156D01*
X126755500Y-105032802D01*
X126754858Y-105028890D01*
X126753079Y-105009921D01*
X126752945Y-105007064D01*
X126752646Y-105005305D01*
X126752646Y-105005301D01*
X126707793Y-104877118D01*
X126692664Y-104856619D01*
X126691643Y-104855236D01*
X126629657Y-104771246D01*
X126629652Y-104771239D01*
X126627154Y-104767855D01*
X126627152Y-104767853D01*
X126627150Y-104767850D01*
X126627146Y-104767847D01*
X126627144Y-104767845D01*
X126626660Y-104767488D01*
X126626658Y-104767485D01*
X126517884Y-104687207D01*
X126389707Y-104642356D01*
X126389692Y-104642352D01*
X126359281Y-104639500D01*
X126359274Y-104639500D01*
X126359266Y-104639500D01*
X126245180Y-104639500D01*
X126214587Y-104634654D01*
X126201901Y-104630532D01*
X126152401Y-104594568D01*
X126152394Y-104594558D01*
X126149400Y-104590436D01*
X126130500Y-104532256D01*
X126130500Y-104470437D01*
X126124711Y-104448834D01*
X126122891Y-104442042D01*
X126110022Y-104394012D01*
X126070460Y-104325489D01*
X125824511Y-104079540D01*
X125815066Y-104074087D01*
X125807173Y-104069530D01*
X125772893Y-104049738D01*
X125772889Y-104049736D01*
X125755989Y-104039979D01*
X125755988Y-104039978D01*
X125755987Y-104039978D01*
X125737127Y-104034924D01*
X125737124Y-104034923D01*
X125679566Y-104019500D01*
X125679564Y-104019500D01*
X125679562Y-104019500D01*
X125444001Y-104019500D01*
X125413407Y-104014654D01*
X125390181Y-104007107D01*
X125350772Y-103982957D01*
X125287312Y-103919498D01*
X125285448Y-103918422D01*
X125259163Y-103903246D01*
X125230476Y-103886683D01*
X125209442Y-103863321D01*
X125094308Y-103832473D01*
X125094307Y-103832472D01*
X125058864Y-103822975D01*
X125045892Y-103819500D01*
X125045891Y-103819500D01*
X124914109Y-103819500D01*
X124914108Y-103819500D01*
X124905662Y-103821763D01*
X124865691Y-103832472D01*
X124865692Y-103832473D01*
X124786809Y-103853609D01*
X124786807Y-103853609D01*
X124786803Y-103853611D01*
X124672694Y-103919492D01*
X124579492Y-104012694D01*
X124513608Y-104126809D01*
X124513330Y-104127545D01*
X124512784Y-104129886D01*
X124494216Y-104199185D01*
X124479500Y-104254108D01*
X124479500Y-104385892D01*
X124487071Y-104414149D01*
X124507401Y-104490022D01*
X124513608Y-104513189D01*
X124513610Y-104513193D01*
X124579494Y-104627307D01*
X124579496Y-104627309D01*
X124579498Y-104627311D01*
X124579500Y-104627314D01*
X124672686Y-104720500D01*
X124672688Y-104720501D01*
X124672690Y-104720503D01*
X124673236Y-104720896D01*
X124675226Y-104721967D01*
X124786810Y-104786390D01*
X124786811Y-104786390D01*
X124786814Y-104786392D01*
X124848846Y-104803012D01*
X124877145Y-104815612D01*
X124883641Y-104819830D01*
X124888333Y-104822878D01*
X124926834Y-104870424D01*
X124928011Y-104873490D01*
X124933591Y-104922980D01*
X124933185Y-104925820D01*
X124928626Y-104944507D01*
X124907355Y-105005294D01*
X124907352Y-105005305D01*
X124904500Y-105035717D01*
X124904500Y-105644281D01*
X124907352Y-105674692D01*
X124907356Y-105674707D01*
X124907356Y-105674708D01*
X124952207Y-105802884D01*
X125031988Y-105910984D01*
X125031992Y-105910988D01*
X125032845Y-105912144D01*
X125032847Y-105912146D01*
X125032850Y-105912150D01*
X125032853Y-105912152D01*
X125032855Y-105912154D01*
X125033491Y-105912623D01*
X125033608Y-105912751D01*
X125034738Y-105913544D01*
X125098581Y-105960662D01*
X125142116Y-105992792D01*
X125142117Y-105992792D01*
X125142137Y-105992807D01*
X125142905Y-105993068D01*
X125270301Y-106037646D01*
X125300725Y-106040499D01*
X125300727Y-106040500D01*
X125300734Y-106040500D01*
X125390341Y-106040500D01*
X125390831Y-106040505D01*
X125391702Y-106040798D01*
X125420408Y-106045343D01*
X125433095Y-106049466D01*
X125446550Y-106059240D01*
X125448826Y-106060006D01*
X125450132Y-106061843D01*
X125482595Y-106085427D01*
X125482596Y-106085428D01*
X125485591Y-106089550D01*
X125504500Y-106147740D01*
X125504500Y-106162853D01*
X125505125Y-106165185D01*
X125526682Y-106245641D01*
X125569528Y-106319853D01*
X125569531Y-106319857D01*
X125569535Y-106319862D01*
X125769532Y-106519860D01*
X125769533Y-106519860D01*
X125769535Y-106519862D01*
X125769534Y-106519862D01*
X125830138Y-106580465D01*
X125861635Y-106598649D01*
X125867247Y-106601889D01*
X125867249Y-106601891D01*
X125883913Y-106611512D01*
X125898277Y-106619806D01*
X125898276Y-106619806D01*
X125904355Y-106623315D01*
X125904358Y-106623316D01*
X125904361Y-106623318D01*
X125904362Y-106623318D01*
X125904364Y-106623319D01*
X125945754Y-106634409D01*
X125987144Y-106645500D01*
X125987146Y-106645501D01*
X126078916Y-106645501D01*
X126080429Y-106645501D01*
X126080493Y-106645500D01*
X128792851Y-106645500D01*
X128792853Y-106645500D01*
X128875639Y-106623318D01*
X128875641Y-106623316D01*
X128875643Y-106623316D01*
X128949862Y-106580465D01*
X129139860Y-106390466D01*
X129139862Y-106390465D01*
X129200465Y-106329862D01*
X129243318Y-106255638D01*
X129245997Y-106245639D01*
X129265501Y-106172852D01*
X129265501Y-106087147D01*
X129265500Y-106087143D01*
X129265500Y-105286573D01*
X129270347Y-105255976D01*
X129273868Y-105245141D01*
X129309834Y-105195643D01*
X129368021Y-105176738D01*
X129370636Y-105176738D01*
X129416706Y-105188111D01*
X129417269Y-105188407D01*
X129431468Y-105197493D01*
X129444763Y-105207696D01*
X129444766Y-105207698D01*
X129469514Y-105217948D01*
X129494263Y-105228200D01*
X129494264Y-105228200D01*
X129584764Y-105265687D01*
X129584763Y-105265687D01*
X129601821Y-105267932D01*
X129697280Y-105280500D01*
X129697281Y-105280500D01*
X131022719Y-105280500D01*
X131022720Y-105280500D01*
X131135236Y-105265687D01*
X131275233Y-105207698D01*
X131395451Y-105115451D01*
X131487698Y-104995233D01*
X131545687Y-104855236D01*
X131558604Y-104757119D01*
X131567400Y-104727426D01*
X131573143Y-104715384D01*
X131615260Y-104671004D01*
X131615259Y-104671004D01*
X131621725Y-104667493D01*
X131668958Y-104655500D01*
X135344820Y-104655500D01*
X135375408Y-104660343D01*
X135388095Y-104664466D01*
X135437595Y-104700427D01*
X135437596Y-104700428D01*
X135440591Y-104704550D01*
X135459500Y-104762740D01*
X135459500Y-105786626D01*
X135465912Y-105857192D01*
X135483038Y-105912152D01*
X135508261Y-105993098D01*
X135516522Y-106019607D01*
X135516526Y-106019614D01*
X135581914Y-106127777D01*
X135604528Y-106165185D01*
X135724815Y-106285472D01*
X135870394Y-106373478D01*
X136032804Y-106424086D01*
X136103384Y-106430500D01*
X136103389Y-106430500D01*
X137216611Y-106430500D01*
X137216616Y-106430500D01*
X137287196Y-106424086D01*
X137449606Y-106373478D01*
X137595185Y-106285472D01*
X137715472Y-106165185D01*
X137803478Y-106019606D01*
X137854086Y-105857196D01*
X137860500Y-105786616D01*
X137860500Y-104125717D01*
X138464500Y-104125717D01*
X138464500Y-104734281D01*
X138467352Y-104764692D01*
X138467356Y-104764707D01*
X138467356Y-104764708D01*
X138512207Y-104892884D01*
X138591988Y-105000984D01*
X138591992Y-105000988D01*
X138592845Y-105002144D01*
X138592847Y-105002146D01*
X138592850Y-105002150D01*
X138592853Y-105002152D01*
X138592855Y-105002154D01*
X138593491Y-105002623D01*
X138593608Y-105002751D01*
X138594738Y-105003544D01*
X138629081Y-105028890D01*
X138702116Y-105082792D01*
X138702117Y-105082792D01*
X138702137Y-105082807D01*
X138702905Y-105083068D01*
X138830301Y-105127646D01*
X138853902Y-105129859D01*
X138857805Y-105130500D01*
X139919273Y-105130500D01*
X139943552Y-105130500D01*
X139944096Y-105130222D01*
X139943814Y-105128931D01*
X139949687Y-105127647D01*
X139949699Y-105127646D01*
X140077882Y-105082793D01*
X140187150Y-105002150D01*
X140267793Y-104892882D01*
X140312646Y-104764699D01*
X140315499Y-104734273D01*
X140315500Y-104734273D01*
X140315500Y-104654551D01*
X140315546Y-104653050D01*
X140316322Y-104650888D01*
X140320343Y-104625495D01*
X140321762Y-104621128D01*
X140324465Y-104612806D01*
X140335407Y-104597743D01*
X140336226Y-104595466D01*
X140337881Y-104594339D01*
X140360423Y-104563307D01*
X140361124Y-104562799D01*
X140364563Y-104560301D01*
X140422743Y-104541401D01*
X140638037Y-104541401D01*
X140668625Y-104546244D01*
X140681312Y-104550367D01*
X140730812Y-104586328D01*
X140730817Y-104586335D01*
X140736068Y-104593563D01*
X140753070Y-104632431D01*
X140756197Y-104648147D01*
X140756432Y-104649328D01*
X140756434Y-104649334D01*
X140756435Y-104649336D01*
X140798047Y-104711612D01*
X140798048Y-104711612D01*
X140800745Y-104715649D01*
X140800749Y-104715654D01*
X140858886Y-104754500D01*
X140867069Y-104759968D01*
X140886894Y-104763911D01*
X140906717Y-104767855D01*
X140906720Y-104767855D01*
X140919460Y-104770389D01*
X140921626Y-104770963D01*
X140923813Y-104771318D01*
X140925378Y-104771601D01*
X140925552Y-104771601D01*
X140925553Y-104771601D01*
X142514447Y-104771601D01*
X142514448Y-104771601D01*
X142572931Y-104759968D01*
X142639252Y-104715653D01*
X142683567Y-104649332D01*
X142695200Y-104590849D01*
X142695200Y-103890953D01*
X142695128Y-103890593D01*
X142694350Y-103886683D01*
X142692411Y-103876933D01*
X142692411Y-103876932D01*
X142683567Y-103832470D01*
X142639252Y-103766149D01*
X142639243Y-103766143D01*
X142594434Y-103736202D01*
X142594435Y-103736202D01*
X142588677Y-103732355D01*
X142572933Y-103721835D01*
X142572931Y-103721834D01*
X142572928Y-103721833D01*
X142572927Y-103721833D01*
X142558832Y-103719029D01*
X142514468Y-103710204D01*
X142514458Y-103710202D01*
X142514453Y-103710201D01*
X142514450Y-103710201D01*
X142514448Y-103710201D01*
X140925552Y-103710201D01*
X140925551Y-103710201D01*
X140925545Y-103710201D01*
X140867078Y-103721831D01*
X140867063Y-103721836D01*
X140800754Y-103766143D01*
X140800742Y-103766155D01*
X140756435Y-103832464D01*
X140756430Y-103832480D01*
X140753872Y-103845340D01*
X140743152Y-103874395D01*
X140736635Y-103886032D01*
X140691714Y-103927561D01*
X140683599Y-103931303D01*
X140642143Y-103940401D01*
X140313733Y-103940401D01*
X140283141Y-103935556D01*
X140270051Y-103931303D01*
X140262513Y-103928853D01*
X140213453Y-103893489D01*
X140187154Y-103857855D01*
X140187152Y-103857853D01*
X140187150Y-103857850D01*
X140187146Y-103857847D01*
X140187144Y-103857845D01*
X140186657Y-103857486D01*
X140186656Y-103857484D01*
X140077884Y-103777207D01*
X139949707Y-103732356D01*
X139949692Y-103732352D01*
X139919281Y-103729500D01*
X139919274Y-103729500D01*
X139919266Y-103729500D01*
X138860734Y-103729500D01*
X138860725Y-103729500D01*
X138860718Y-103729500D01*
X138830306Y-103732352D01*
X138830291Y-103732356D01*
X138830290Y-103732356D01*
X138702114Y-103777207D01*
X138592862Y-103857838D01*
X138592838Y-103857862D01*
X138512207Y-103967114D01*
X138467356Y-104095290D01*
X138467356Y-104095291D01*
X138467352Y-104095306D01*
X138464500Y-104125717D01*
X137860500Y-104125717D01*
X137860500Y-102873384D01*
X137854086Y-102802804D01*
X137803478Y-102640394D01*
X137715472Y-102494815D01*
X137595185Y-102374528D01*
X137542891Y-102342915D01*
X137449607Y-102286522D01*
X137449605Y-102286521D01*
X137314787Y-102244511D01*
X137287192Y-102235912D01*
X137216626Y-102229500D01*
X137216620Y-102229500D01*
X137216616Y-102229500D01*
X136103384Y-102229500D01*
X136103379Y-102229500D01*
X136103372Y-102229500D01*
X136032806Y-102235912D01*
X135870391Y-102286522D01*
X135870384Y-102286526D01*
X135724819Y-102374524D01*
X135604524Y-102494819D01*
X135516526Y-102640384D01*
X135516522Y-102640391D01*
X135465912Y-102802806D01*
X135459500Y-102873372D01*
X135459500Y-103889819D01*
X135454654Y-103920412D01*
X135450532Y-103933098D01*
X135414580Y-103982589D01*
X135410459Y-103985584D01*
X135352271Y-104004500D01*
X133600180Y-104004500D01*
X133569587Y-103999654D01*
X133556901Y-103995532D01*
X133507401Y-103959568D01*
X133507394Y-103959558D01*
X133504400Y-103955436D01*
X133485500Y-103897256D01*
X133485500Y-101772333D01*
X133490343Y-101741747D01*
X133493723Y-101731342D01*
X133529683Y-101681842D01*
X133587872Y-101662931D01*
X133639612Y-101677523D01*
X133644515Y-101680528D01*
X133662784Y-101694931D01*
X133686329Y-101718475D01*
X133686880Y-101718873D01*
X133688882Y-101719950D01*
X133720692Y-101738315D01*
X133743683Y-101751589D01*
X133765277Y-101775571D01*
X133799587Y-101784149D01*
X133801191Y-101784563D01*
X133927751Y-101818475D01*
X133927753Y-101818475D01*
X134059533Y-101818475D01*
X134059535Y-101818475D01*
X134186829Y-101784367D01*
X134186831Y-101784365D01*
X134186833Y-101784365D01*
X134294833Y-101722010D01*
X134297710Y-101720614D01*
X134298496Y-101720097D01*
X134303505Y-101717003D01*
X134304804Y-101716252D01*
X134310162Y-101709269D01*
X134394143Y-101625289D01*
X134423998Y-101573577D01*
X134443490Y-101549507D01*
X134457594Y-101536808D01*
X134503268Y-101513540D01*
X134507417Y-101512658D01*
X134527981Y-101510500D01*
X135295999Y-101510500D01*
X135326590Y-101515344D01*
X135349816Y-101522891D01*
X135389227Y-101547042D01*
X135452686Y-101610500D01*
X135453237Y-101610898D01*
X135455239Y-101611975D01*
X135464430Y-101617281D01*
X135510040Y-101643614D01*
X135531634Y-101667596D01*
X135565944Y-101676174D01*
X135567548Y-101676588D01*
X135694108Y-101710500D01*
X135694110Y-101710500D01*
X135825890Y-101710500D01*
X135825892Y-101710500D01*
X135953186Y-101676392D01*
X135953188Y-101676390D01*
X135953190Y-101676390D01*
X136061190Y-101614035D01*
X136064067Y-101612639D01*
X136064853Y-101612122D01*
X136069862Y-101609028D01*
X136071161Y-101608277D01*
X136076519Y-101601294D01*
X136160500Y-101517314D01*
X136160503Y-101517309D01*
X136226390Y-101403190D01*
X136226390Y-101403188D01*
X136226392Y-101403186D01*
X136260500Y-101275892D01*
X136260500Y-101144108D01*
X136226392Y-101016814D01*
X136226390Y-101016811D01*
X136226390Y-101016809D01*
X136226383Y-101016798D01*
X136226066Y-101016094D01*
X136224812Y-101014076D01*
X136160503Y-100902690D01*
X136160501Y-100902688D01*
X136160500Y-100902686D01*
X136067314Y-100809500D01*
X136067311Y-100809498D01*
X136067309Y-100809496D01*
X136061929Y-100806390D01*
X136010476Y-100776683D01*
X135989442Y-100753322D01*
X135903799Y-100730375D01*
X135903798Y-100730374D01*
X135836894Y-100712448D01*
X135825892Y-100709500D01*
X135825891Y-100709500D01*
X135694109Y-100709500D01*
X135694108Y-100709500D01*
X135683106Y-100712448D01*
X135616199Y-100730375D01*
X135616198Y-100730374D01*
X135566807Y-100743609D01*
X135566805Y-100743610D01*
X135455422Y-100807917D01*
X135455417Y-100807921D01*
X135452690Y-100809496D01*
X135452689Y-100809497D01*
X135452686Y-100809499D01*
X135452686Y-100809500D01*
X135440899Y-100821286D01*
X135440876Y-100821308D01*
X135392768Y-100869416D01*
X135367712Y-100887620D01*
X135345952Y-100898708D01*
X135301005Y-100909500D01*
X134326703Y-100909500D01*
X134301079Y-100906126D01*
X134276762Y-100899610D01*
X134252887Y-100889721D01*
X134186830Y-100851583D01*
X134122088Y-100834236D01*
X134059535Y-100817475D01*
X134059533Y-100817475D01*
X133927752Y-100817475D01*
X133927751Y-100817475D01*
X133916838Y-100820399D01*
X133865193Y-100834236D01*
X133865194Y-100834237D01*
X133800448Y-100851585D01*
X133686331Y-100917472D01*
X133686322Y-100917480D01*
X133641323Y-100962478D01*
X133616265Y-100980683D01*
X133606116Y-100985854D01*
X133545684Y-100995425D01*
X133491170Y-100967648D01*
X133487961Y-100964439D01*
X133470736Y-100933535D01*
X133468471Y-100934668D01*
X133463321Y-100924367D01*
X133463318Y-100924361D01*
X133463316Y-100924357D01*
X133420468Y-100850142D01*
X133420467Y-100850141D01*
X133420466Y-100850139D01*
X133101413Y-100531085D01*
X133083209Y-100506029D01*
X133077154Y-100494145D01*
X133067583Y-100433725D01*
X133068381Y-100428686D01*
X133096152Y-100374173D01*
X133420465Y-100049862D01*
X133424658Y-100042598D01*
X133430383Y-100032685D01*
X133458716Y-99983610D01*
X133463316Y-99975643D01*
X133463316Y-99975641D01*
X133463318Y-99975639D01*
X133485500Y-99892853D01*
X133485500Y-99807147D01*
X133485500Y-97910840D01*
X133485501Y-97910827D01*
X133485501Y-97817146D01*
X133485500Y-97817144D01*
X133479771Y-97795765D01*
X133463318Y-97734361D01*
X133437440Y-97689540D01*
X133437440Y-97689539D01*
X133422684Y-97663981D01*
X133420465Y-97660138D01*
X133359862Y-97599535D01*
X133359859Y-97599533D01*
X132493251Y-96732925D01*
X132067622Y-96307296D01*
X131640917Y-95880590D01*
X131622711Y-95855531D01*
X131617745Y-95845784D01*
X131608176Y-95785354D01*
X131635955Y-95730838D01*
X131682854Y-95704577D01*
X131688450Y-95703234D01*
X131711553Y-95700500D01*
X131785890Y-95700500D01*
X131785892Y-95700500D01*
X131913186Y-95666392D01*
X131913188Y-95666390D01*
X131913190Y-95666390D01*
X132021190Y-95604035D01*
X132024067Y-95602639D01*
X132024853Y-95602122D01*
X132029862Y-95599028D01*
X132031161Y-95598277D01*
X132036519Y-95591294D01*
X132073705Y-95554108D01*
X136199500Y-95554108D01*
X136199500Y-95685891D01*
X136226821Y-95787858D01*
X136226823Y-95787865D01*
X136233608Y-95813188D01*
X136233610Y-95813193D01*
X136299495Y-95927309D01*
X136359418Y-95987233D01*
X136377623Y-96012290D01*
X136383402Y-96023632D01*
X136387617Y-96031905D01*
X136388709Y-96034047D01*
X136399500Y-96078993D01*
X136399500Y-97185998D01*
X136394655Y-97216590D01*
X136387109Y-97239815D01*
X136362959Y-97279225D01*
X136333960Y-97308225D01*
X136333959Y-97308227D01*
X136299492Y-97342694D01*
X136233608Y-97456809D01*
X136233330Y-97457545D01*
X136232784Y-97459886D01*
X136212207Y-97536684D01*
X136199500Y-97584108D01*
X136199500Y-97715892D01*
X136209768Y-97754213D01*
X136214485Y-97771817D01*
X136233610Y-97843194D01*
X136299494Y-97957307D01*
X136299496Y-97957309D01*
X136299498Y-97957311D01*
X136299500Y-97957314D01*
X136392686Y-98050500D01*
X136392688Y-98050501D01*
X136392690Y-98050503D01*
X136393237Y-98050898D01*
X136395239Y-98051975D01*
X136410466Y-98060766D01*
X136450040Y-98083614D01*
X136471634Y-98107596D01*
X136505944Y-98116174D01*
X136507548Y-98116588D01*
X136634108Y-98150500D01*
X136634110Y-98150500D01*
X136765890Y-98150500D01*
X136765892Y-98150500D01*
X136893186Y-98116392D01*
X136893188Y-98116390D01*
X136893190Y-98116390D01*
X137001190Y-98054035D01*
X137004067Y-98052639D01*
X137004853Y-98052122D01*
X137009862Y-98049028D01*
X137011161Y-98048277D01*
X137016519Y-98041294D01*
X137100500Y-97957314D01*
X137120277Y-97923059D01*
X137166390Y-97843190D01*
X137166390Y-97843188D01*
X137166392Y-97843186D01*
X137200500Y-97715892D01*
X137200500Y-97584108D01*
X137166392Y-97456814D01*
X137163477Y-97451766D01*
X137161466Y-97448282D01*
X137161463Y-97448277D01*
X137145428Y-97420504D01*
X137142622Y-97415643D01*
X137142621Y-97415640D01*
X137116850Y-97371004D01*
X137684500Y-97371004D01*
X137684500Y-97508995D01*
X137685106Y-97512041D01*
X137685106Y-97512043D01*
X137709518Y-97634764D01*
X137709518Y-97634768D01*
X137711419Y-97644330D01*
X137764216Y-97771794D01*
X137764219Y-97771801D01*
X137764232Y-97771824D01*
X137840884Y-97886540D01*
X137938458Y-97984114D01*
X138053174Y-98060766D01*
X138053177Y-98060767D01*
X138053182Y-98060771D01*
X138053193Y-98060777D01*
X138053197Y-98060779D01*
X138056727Y-98062241D01*
X138100283Y-98080282D01*
X138180672Y-98113580D01*
X138316007Y-98140500D01*
X138316008Y-98140500D01*
X139553992Y-98140500D01*
X139553993Y-98140500D01*
X139689328Y-98113580D01*
X139816811Y-98060775D01*
X139931542Y-97984114D01*
X140029114Y-97886542D01*
X140105775Y-97771811D01*
X140158580Y-97644328D01*
X140185500Y-97508993D01*
X140185500Y-97371007D01*
X140185499Y-97371004D01*
X142014500Y-97371004D01*
X142014500Y-97508995D01*
X142015106Y-97512041D01*
X142015106Y-97512043D01*
X142039518Y-97634764D01*
X142039518Y-97634768D01*
X142041419Y-97644330D01*
X142094216Y-97771794D01*
X142094219Y-97771801D01*
X142094232Y-97771824D01*
X142170884Y-97886540D01*
X142268458Y-97984114D01*
X142383174Y-98060766D01*
X142383177Y-98060767D01*
X142383182Y-98060771D01*
X142383193Y-98060777D01*
X142383197Y-98060779D01*
X142386727Y-98062241D01*
X142430283Y-98080282D01*
X142510672Y-98113580D01*
X142646007Y-98140500D01*
X142646008Y-98140500D01*
X143583992Y-98140500D01*
X143583993Y-98140500D01*
X143719328Y-98113580D01*
X143846811Y-98060775D01*
X143961542Y-97984114D01*
X144059114Y-97886542D01*
X144135775Y-97771811D01*
X144188580Y-97644328D01*
X144215500Y-97508993D01*
X144215500Y-97371007D01*
X144188580Y-97235672D01*
X144174500Y-97201679D01*
X144161920Y-97171308D01*
X144135779Y-97108197D01*
X144135766Y-97108174D01*
X144059114Y-96993458D01*
X143961540Y-96895884D01*
X143846824Y-96819232D01*
X143846801Y-96819219D01*
X143719329Y-96766420D01*
X143583995Y-96739500D01*
X143583993Y-96739500D01*
X142646007Y-96739500D01*
X142646004Y-96739500D01*
X142646003Y-96739500D01*
X142590876Y-96750465D01*
X142520234Y-96764518D01*
X142520227Y-96764518D01*
X142510668Y-96766419D01*
X142383204Y-96819216D01*
X142383197Y-96819219D01*
X142383174Y-96819232D01*
X142268458Y-96895884D01*
X142170884Y-96993458D01*
X142094232Y-97108174D01*
X142094219Y-97108197D01*
X142094216Y-97108204D01*
X142041419Y-97235668D01*
X142040755Y-97239008D01*
X142040753Y-97239021D01*
X142014500Y-97371004D01*
X140185499Y-97371004D01*
X140179052Y-97338589D01*
X140158580Y-97235672D01*
X140144500Y-97201679D01*
X140131920Y-97171308D01*
X140105779Y-97108197D01*
X140105766Y-97108174D01*
X140029114Y-96993458D01*
X139931540Y-96895884D01*
X139816824Y-96819232D01*
X139816801Y-96819219D01*
X139816794Y-96819216D01*
X139689330Y-96766420D01*
X139631128Y-96754843D01*
X139610224Y-96743146D01*
X139594880Y-96740095D01*
X139584281Y-96728630D01*
X139577795Y-96725001D01*
X139572469Y-96719248D01*
X139574160Y-96717682D01*
X139553346Y-96695167D01*
X139546153Y-96634406D01*
X139576048Y-96581021D01*
X139577914Y-96579295D01*
X139619493Y-96556366D01*
X139657135Y-96546281D01*
X139788365Y-96470515D01*
X139895515Y-96363365D01*
X139927886Y-96307297D01*
X139971279Y-96232139D01*
X139971279Y-96232137D01*
X139971281Y-96232135D01*
X140010500Y-96085766D01*
X140010500Y-95934234D01*
X140008645Y-95927309D01*
X139971280Y-95787861D01*
X139970956Y-95787147D01*
X139969694Y-95785114D01*
X139896991Y-95659189D01*
X139896991Y-95659190D01*
X139895518Y-95656639D01*
X139895516Y-95656637D01*
X139895515Y-95656635D01*
X139788365Y-95549485D01*
X139788362Y-95549483D01*
X139788360Y-95549481D01*
X139788359Y-95549480D01*
X139714426Y-95506795D01*
X139693390Y-95483432D01*
X139600347Y-95458503D01*
X139600346Y-95458502D01*
X139534768Y-95440931D01*
X139510766Y-95434500D01*
X139510765Y-95434500D01*
X139359235Y-95434500D01*
X139359234Y-95434500D01*
X139340304Y-95439572D01*
X139269652Y-95458502D01*
X139269652Y-95458503D01*
X139212860Y-95473720D01*
X139212858Y-95473720D01*
X139212854Y-95473722D01*
X139081643Y-95549477D01*
X138974477Y-95656643D01*
X138898719Y-95787860D01*
X138898441Y-95788596D01*
X138897895Y-95790937D01*
X138861355Y-95927311D01*
X138859500Y-95934234D01*
X138859500Y-96085766D01*
X138890311Y-96200755D01*
X138890310Y-96200755D01*
X138898720Y-96232140D01*
X138898721Y-96232142D01*
X138974479Y-96363358D01*
X138974481Y-96363360D01*
X138974483Y-96363362D01*
X138974485Y-96363365D01*
X139081635Y-96470515D01*
X139081637Y-96470516D01*
X139081639Y-96470518D01*
X139082186Y-96470913D01*
X139084188Y-96471990D01*
X139181901Y-96528404D01*
X139183290Y-96529206D01*
X139187953Y-96532072D01*
X139195507Y-96537009D01*
X139217743Y-96551450D01*
X139217743Y-96551451D01*
X139225307Y-96556364D01*
X139226972Y-96557445D01*
X139265475Y-96604997D01*
X139268674Y-96666099D01*
X139235348Y-96717411D01*
X139235003Y-96717570D01*
X139234971Y-96717620D01*
X139234543Y-96717782D01*
X139191256Y-96737782D01*
X139191101Y-96737811D01*
X139178941Y-96738939D01*
X139177785Y-96739379D01*
X139176869Y-96739131D01*
X139172894Y-96739500D01*
X138316003Y-96739500D01*
X138260876Y-96750465D01*
X138190234Y-96764518D01*
X138190227Y-96764518D01*
X138180668Y-96766419D01*
X138053204Y-96819216D01*
X138053197Y-96819219D01*
X138053174Y-96819232D01*
X137938458Y-96895884D01*
X137840884Y-96993458D01*
X137764232Y-97108174D01*
X137764219Y-97108197D01*
X137764216Y-97108204D01*
X137711419Y-97235668D01*
X137710755Y-97239008D01*
X137710753Y-97239021D01*
X137684500Y-97371004D01*
X137116850Y-97371004D01*
X137101971Y-97345233D01*
X137100898Y-97343238D01*
X137100500Y-97342686D01*
X137040579Y-97282764D01*
X137022376Y-97257709D01*
X137011288Y-97235947D01*
X137000500Y-97191008D01*
X137000500Y-96084001D01*
X137005345Y-96053410D01*
X137012392Y-96031719D01*
X137012892Y-96030180D01*
X137037040Y-95990772D01*
X137100500Y-95927314D01*
X137100503Y-95927309D01*
X137107892Y-95914512D01*
X137141945Y-95855529D01*
X137166390Y-95813190D01*
X137166390Y-95813188D01*
X137166392Y-95813186D01*
X137200500Y-95685892D01*
X137200500Y-95554108D01*
X137166392Y-95426814D01*
X137166390Y-95426811D01*
X137166390Y-95426809D01*
X137166387Y-95426805D01*
X137166066Y-95426094D01*
X137164812Y-95424076D01*
X137100503Y-95312690D01*
X137100501Y-95312688D01*
X137100500Y-95312686D01*
X137007314Y-95219500D01*
X137007311Y-95219498D01*
X137007309Y-95219496D01*
X136985499Y-95206904D01*
X136950476Y-95186683D01*
X136929442Y-95163321D01*
X136819115Y-95133761D01*
X136819114Y-95133760D01*
X136777256Y-95122545D01*
X136765892Y-95119500D01*
X136765891Y-95119500D01*
X136634109Y-95119500D01*
X136634108Y-95119500D01*
X136625121Y-95121908D01*
X136580884Y-95133760D01*
X136580885Y-95133761D01*
X136506809Y-95153609D01*
X136506807Y-95153609D01*
X136506803Y-95153611D01*
X136392694Y-95219492D01*
X136299492Y-95312694D01*
X136233610Y-95426805D01*
X136233609Y-95426808D01*
X136227400Y-95449976D01*
X136227401Y-95449977D01*
X136199500Y-95554108D01*
X132073705Y-95554108D01*
X132120500Y-95507314D01*
X132134289Y-95483432D01*
X132182166Y-95400506D01*
X132182168Y-95400502D01*
X132184610Y-95396272D01*
X132186390Y-95393190D01*
X132186390Y-95393188D01*
X132186392Y-95393186D01*
X132220500Y-95265892D01*
X132220500Y-95165180D01*
X132225343Y-95134594D01*
X132225963Y-95132686D01*
X132229465Y-95121905D01*
X132265423Y-95072406D01*
X132266022Y-95071971D01*
X132269563Y-95069400D01*
X132327743Y-95050500D01*
X133155998Y-95050500D01*
X133186589Y-95055345D01*
X133198926Y-95059353D01*
X133209815Y-95062891D01*
X133249227Y-95087042D01*
X133287183Y-95124997D01*
X133322685Y-95160499D01*
X133322690Y-95160503D01*
X133436810Y-95226390D01*
X133436808Y-95226390D01*
X133436812Y-95226391D01*
X133436814Y-95226392D01*
X133564108Y-95260500D01*
X133564110Y-95260500D01*
X133695890Y-95260500D01*
X133695892Y-95260500D01*
X133823186Y-95226392D01*
X133823188Y-95226390D01*
X133823190Y-95226390D01*
X133931190Y-95164035D01*
X133934067Y-95162639D01*
X133934853Y-95162122D01*
X133939862Y-95159028D01*
X133941161Y-95158277D01*
X133946519Y-95151294D01*
X134030500Y-95067314D01*
X134043542Y-95044725D01*
X134096390Y-94953190D01*
X134096390Y-94953188D01*
X134096392Y-94953186D01*
X134130500Y-94825892D01*
X134130500Y-94694108D01*
X134096392Y-94566814D01*
X134096390Y-94566811D01*
X134096390Y-94566809D01*
X134096383Y-94566798D01*
X134096066Y-94566094D01*
X134094812Y-94564076D01*
X134031286Y-94454047D01*
X134030503Y-94452690D01*
X134030501Y-94452688D01*
X134030500Y-94452686D01*
X133937314Y-94359500D01*
X133937311Y-94359498D01*
X133937309Y-94359496D01*
X133933530Y-94357314D01*
X133880476Y-94326683D01*
X133859442Y-94303322D01*
X133773799Y-94280375D01*
X133773798Y-94280374D01*
X133716766Y-94265093D01*
X133695892Y-94259500D01*
X133695891Y-94259500D01*
X133564109Y-94259500D01*
X133564108Y-94259500D01*
X133525154Y-94269937D01*
X133486199Y-94280375D01*
X133486198Y-94280374D01*
X133436808Y-94293609D01*
X133322688Y-94359497D01*
X133322679Y-94359505D01*
X133272765Y-94409418D01*
X133247710Y-94427621D01*
X133225952Y-94438708D01*
X133181005Y-94449500D01*
X131960435Y-94449500D01*
X131884011Y-94469978D01*
X131884009Y-94469979D01*
X131859631Y-94484055D01*
X131859622Y-94484060D01*
X131855854Y-94486234D01*
X131855855Y-94486235D01*
X131825492Y-94503765D01*
X131825491Y-94503764D01*
X131815488Y-94509540D01*
X131815485Y-94509542D01*
X131643040Y-94681986D01*
X131622537Y-94697719D01*
X131600732Y-94710308D01*
X131576858Y-94720197D01*
X131526809Y-94733609D01*
X131526801Y-94733612D01*
X131415422Y-94797918D01*
X131415420Y-94797919D01*
X131412690Y-94799496D01*
X131412689Y-94799497D01*
X131412686Y-94799499D01*
X131412686Y-94799500D01*
X131400916Y-94811270D01*
X131400886Y-94811298D01*
X131332844Y-94879341D01*
X131318861Y-94890962D01*
X131302854Y-94901948D01*
X131244177Y-94919287D01*
X131186515Y-94898826D01*
X131152276Y-94849647D01*
X131149943Y-94842124D01*
X131145500Y-94812800D01*
X131145500Y-92888291D01*
X131150345Y-92857699D01*
X131150949Y-92855840D01*
X131157892Y-92834470D01*
X131182045Y-92795058D01*
X131183255Y-92793848D01*
X131200489Y-92776615D01*
X131215919Y-92749888D01*
X131242130Y-92720282D01*
X131243522Y-92719234D01*
X131248704Y-92715620D01*
X131250627Y-92713888D01*
X131254103Y-92711273D01*
X131266865Y-92706888D01*
X131293051Y-92693541D01*
X131297196Y-92692660D01*
X131317769Y-92690500D01*
X133263293Y-92690500D01*
X133275185Y-92683633D01*
X133325989Y-92670021D01*
X133394511Y-92630460D01*
X133450460Y-92574511D01*
X134189412Y-91835558D01*
X134214464Y-91817357D01*
X134224215Y-91812389D01*
X134284645Y-91802820D01*
X134339161Y-91830599D01*
X134365418Y-91877478D01*
X134366762Y-91883073D01*
X134369500Y-91906196D01*
X134369500Y-92069753D01*
X134381130Y-92128220D01*
X134381131Y-92128224D01*
X134381132Y-92128227D01*
X134381134Y-92128231D01*
X134381135Y-92128235D01*
X134406496Y-92166189D01*
X134425445Y-92194548D01*
X134425448Y-92194552D01*
X134491769Y-92238867D01*
X134514000Y-92243289D01*
X134536228Y-92247711D01*
X134536231Y-92247711D01*
X134544159Y-92249288D01*
X134546324Y-92249861D01*
X134548514Y-92250217D01*
X134550081Y-92250500D01*
X134550252Y-92250500D01*
X134550253Y-92250500D01*
X135989747Y-92250500D01*
X135989748Y-92250500D01*
X136048231Y-92238867D01*
X136114552Y-92194552D01*
X136158867Y-92128231D01*
X136170500Y-92069748D01*
X136170500Y-90530252D01*
X136158867Y-90471769D01*
X136114552Y-90405448D01*
X136114543Y-90405442D01*
X136112943Y-90404373D01*
X136112944Y-90404373D01*
X136109980Y-90402393D01*
X136048233Y-90361134D01*
X136048231Y-90361133D01*
X136048228Y-90361132D01*
X136048227Y-90361132D01*
X136030788Y-90357663D01*
X136030787Y-90357662D01*
X135989768Y-90349503D01*
X135989758Y-90349501D01*
X135989753Y-90349500D01*
X135989750Y-90349500D01*
X135989748Y-90349500D01*
X134550252Y-90349500D01*
X134550251Y-90349500D01*
X134550245Y-90349500D01*
X134491778Y-90361130D01*
X134491763Y-90361135D01*
X134425454Y-90405442D01*
X134425442Y-90405454D01*
X134381135Y-90471763D01*
X134381130Y-90471778D01*
X134369500Y-90530245D01*
X134369500Y-90884819D01*
X134364654Y-90915412D01*
X134360532Y-90928098D01*
X134324580Y-90977589D01*
X134320459Y-90980584D01*
X134266790Y-90998030D01*
X134266872Y-90998653D01*
X134263518Y-90999094D01*
X134262271Y-90999500D01*
X134260438Y-90999500D01*
X134245107Y-91003608D01*
X134223116Y-91009500D01*
X134184010Y-91019977D01*
X134184001Y-91019981D01*
X134115497Y-91059532D01*
X134115496Y-91059533D01*
X133125611Y-92049417D01*
X133100554Y-92067621D01*
X133078796Y-92078708D01*
X133033849Y-92089500D01*
X132485180Y-92089500D01*
X132454587Y-92084654D01*
X132441901Y-92080532D01*
X132392401Y-92044568D01*
X132392394Y-92044558D01*
X132389400Y-92040436D01*
X132370500Y-91982256D01*
X132370500Y-90530251D01*
X132370499Y-90530250D01*
X132370498Y-90530241D01*
X132364432Y-90499748D01*
X132358867Y-90471769D01*
X132314552Y-90405448D01*
X132309980Y-90402393D01*
X132248233Y-90361134D01*
X132248231Y-90361133D01*
X132248230Y-90361132D01*
X132248228Y-90361131D01*
X132248025Y-90361063D01*
X132246488Y-90360786D01*
X132189768Y-90349503D01*
X132189758Y-90349501D01*
X132189753Y-90349500D01*
X132189750Y-90349500D01*
X132189748Y-90349500D01*
X132189747Y-90349500D01*
X131940159Y-90349500D01*
X131909565Y-90344654D01*
X131899163Y-90341274D01*
X131849663Y-90305309D01*
X131830757Y-90247118D01*
X131845348Y-90195389D01*
X131848360Y-90190473D01*
X131862756Y-90172215D01*
X131971122Y-90063849D01*
X132020460Y-90014511D01*
X132042314Y-89976659D01*
X132059789Y-89946392D01*
X132059805Y-89946361D01*
X132060021Y-89945989D01*
X132060021Y-89945985D01*
X132061172Y-89943997D01*
X132074996Y-89925482D01*
X132083088Y-89916938D01*
X132083103Y-89916922D01*
X132083112Y-89916913D01*
X132090447Y-89908329D01*
X132116209Y-89886911D01*
X132127314Y-89880500D01*
X132220500Y-89787314D01*
X132220503Y-89787309D01*
X132286390Y-89673190D01*
X132286390Y-89673188D01*
X132286392Y-89673186D01*
X132320500Y-89545892D01*
X132320500Y-89414108D01*
X132286392Y-89286814D01*
X132286390Y-89286811D01*
X132286390Y-89286809D01*
X132286383Y-89286798D01*
X132286066Y-89286094D01*
X132284812Y-89284076D01*
X132220503Y-89172690D01*
X132220501Y-89172688D01*
X132220500Y-89172686D01*
X132127314Y-89079500D01*
X132127311Y-89079498D01*
X132127309Y-89079496D01*
X132093981Y-89060254D01*
X132070476Y-89046683D01*
X132049442Y-89023322D01*
X131963799Y-89000375D01*
X131963798Y-89000374D01*
X131906766Y-88985093D01*
X131885892Y-88979500D01*
X131885891Y-88979500D01*
X131754109Y-88979500D01*
X131754108Y-88979500D01*
X131715154Y-88989937D01*
X131676199Y-89000375D01*
X131676198Y-89000374D01*
X131626807Y-89013609D01*
X131626805Y-89013610D01*
X131512694Y-89079492D01*
X131419495Y-89172691D01*
X131412213Y-89185304D01*
X131353609Y-89286809D01*
X131353609Y-89286810D01*
X131353607Y-89286813D01*
X131350519Y-89298341D01*
X131319500Y-89414108D01*
X131319500Y-89545891D01*
X131346755Y-89647614D01*
X131353606Y-89673183D01*
X131353608Y-89673188D01*
X131353609Y-89673190D01*
X131363974Y-89691143D01*
X131365702Y-89694135D01*
X131376802Y-89723050D01*
X131379575Y-89736094D01*
X131373181Y-89796944D01*
X131373180Y-89796947D01*
X131368685Y-89807043D01*
X131348249Y-89836777D01*
X131285489Y-89899539D01*
X131285488Y-89899538D01*
X131229539Y-89955488D01*
X131189979Y-90024009D01*
X131189976Y-90024018D01*
X131169500Y-90100432D01*
X131169500Y-90234819D01*
X131164654Y-90265412D01*
X131160532Y-90278098D01*
X131124580Y-90327589D01*
X131120459Y-90330584D01*
X131062271Y-90349500D01*
X130750245Y-90349500D01*
X130691778Y-90361130D01*
X130691763Y-90361135D01*
X130625454Y-90405442D01*
X130625442Y-90405454D01*
X130581135Y-90471763D01*
X130581130Y-90471778D01*
X130569500Y-90530245D01*
X130569500Y-92053258D01*
X130567207Y-92074444D01*
X130562898Y-92094113D01*
X130531991Y-92146896D01*
X130530008Y-92148660D01*
X130484513Y-92171586D01*
X130480643Y-92172397D01*
X130460338Y-92174502D01*
X128211517Y-92174502D01*
X128180924Y-92169656D01*
X128157697Y-92162109D01*
X128118286Y-92137959D01*
X127056702Y-91076375D01*
X126538556Y-90558229D01*
X125979862Y-89999535D01*
X125973104Y-89995633D01*
X125962340Y-89988440D01*
X125952135Y-89980609D01*
X125942400Y-89972073D01*
X125524872Y-89554545D01*
X125506669Y-89529490D01*
X125501494Y-89519334D01*
X125491922Y-89458906D01*
X125519697Y-89404391D01*
X125528900Y-89395189D01*
X125528899Y-89395187D01*
X125548068Y-89376018D01*
X125549668Y-89372156D01*
X125554940Y-89366451D01*
X125623050Y-89298342D01*
X125680646Y-89185304D01*
X125695500Y-89091519D01*
X125695499Y-88935177D01*
X125700343Y-88904589D01*
X125704465Y-88891902D01*
X125740427Y-88842405D01*
X125740434Y-88842399D01*
X125743113Y-88840453D01*
X125744566Y-88839398D01*
X125802744Y-88820500D01*
X125965955Y-88820500D01*
X125996543Y-88825344D01*
X126001023Y-88826799D01*
X126012846Y-88830641D01*
X126058069Y-88861129D01*
X126067379Y-88872215D01*
X126070973Y-88876854D01*
X126074577Y-88880786D01*
X126082336Y-88890025D01*
X126086021Y-88891765D01*
X126088126Y-88893807D01*
X126153517Y-88959198D01*
X126195046Y-88979500D01*
X126258318Y-89010432D01*
X126258600Y-89010571D01*
X126258605Y-89010572D01*
X126258607Y-89010573D01*
X126258611Y-89010573D01*
X126261875Y-89011328D01*
X126265693Y-89011605D01*
X126326740Y-89020500D01*
X126326743Y-89020500D01*
X126793257Y-89020500D01*
X126793260Y-89020500D01*
X126861393Y-89010573D01*
X126966483Y-88959198D01*
X127049198Y-88876483D01*
X127086537Y-88800104D01*
X127104320Y-88774755D01*
X127116245Y-88762429D01*
X127163501Y-88735193D01*
X127170605Y-88733425D01*
X127190378Y-88731004D01*
X137684500Y-88731004D01*
X137684500Y-88868995D01*
X137694547Y-88919501D01*
X137697718Y-88935445D01*
X137709518Y-88994766D01*
X137709518Y-88994768D01*
X137711419Y-89004330D01*
X137764216Y-89131794D01*
X137764219Y-89131801D01*
X137764232Y-89131824D01*
X137840884Y-89246540D01*
X137938458Y-89344114D01*
X138053174Y-89420766D01*
X138053177Y-89420767D01*
X138053182Y-89420771D01*
X138053193Y-89420777D01*
X138053197Y-89420779D01*
X138071864Y-89428511D01*
X138126267Y-89451045D01*
X138180672Y-89473580D01*
X138316007Y-89500500D01*
X138316008Y-89500500D01*
X139166309Y-89500500D01*
X139196904Y-89505346D01*
X139203939Y-89507632D01*
X139253438Y-89543597D01*
X139272344Y-89601788D01*
X139253435Y-89659979D01*
X139215963Y-89691143D01*
X139196122Y-89700606D01*
X139192135Y-89705530D01*
X139187716Y-89708237D01*
X139081641Y-89769479D01*
X138974477Y-89876643D01*
X138898721Y-90007855D01*
X138883719Y-90063846D01*
X138883718Y-90063849D01*
X138859500Y-90154234D01*
X138859500Y-90305766D01*
X138886211Y-90405454D01*
X138893788Y-90433731D01*
X138893788Y-90433732D01*
X138898718Y-90452133D01*
X138898722Y-90452144D01*
X138974479Y-90583358D01*
X138974481Y-90583360D01*
X138974483Y-90583362D01*
X138974485Y-90583365D01*
X139081635Y-90690515D01*
X139081637Y-90690516D01*
X139081639Y-90690518D01*
X139082186Y-90690913D01*
X139084188Y-90691990D01*
X139114089Y-90709253D01*
X139156091Y-90733503D01*
X139177685Y-90757486D01*
X139212010Y-90766067D01*
X139213612Y-90766481D01*
X139359234Y-90805500D01*
X139359236Y-90805500D01*
X139510764Y-90805500D01*
X139510766Y-90805500D01*
X139657135Y-90766281D01*
X139657137Y-90766279D01*
X139657139Y-90766279D01*
X139782225Y-90694059D01*
X139785114Y-90692657D01*
X139785904Y-90692137D01*
X139790913Y-90689043D01*
X139792212Y-90688292D01*
X139797570Y-90681309D01*
X139895515Y-90583365D01*
X139910026Y-90558231D01*
X139971279Y-90452139D01*
X139971279Y-90452137D01*
X139971281Y-90452135D01*
X140010500Y-90305766D01*
X140010500Y-90154234D01*
X139986282Y-90063848D01*
X139971281Y-90007864D01*
X139970956Y-90007147D01*
X139969694Y-90005114D01*
X139896991Y-89879189D01*
X139896991Y-89879190D01*
X139895518Y-89876639D01*
X139895516Y-89876637D01*
X139895515Y-89876635D01*
X139788365Y-89769485D01*
X139788362Y-89769483D01*
X139788360Y-89769481D01*
X139714426Y-89726795D01*
X139693394Y-89703436D01*
X139657138Y-89693720D01*
X139657139Y-89693720D01*
X139641870Y-89689628D01*
X139641868Y-89689627D01*
X139624584Y-89684996D01*
X139604493Y-89671961D01*
X139589390Y-89667917D01*
X139579566Y-89655789D01*
X139573328Y-89651742D01*
X139568389Y-89645654D01*
X139570179Y-89644201D01*
X139550878Y-89620373D01*
X139547667Y-89559272D01*
X139580983Y-89507953D01*
X139582958Y-89506353D01*
X139625955Y-89486185D01*
X139689328Y-89473580D01*
X139816811Y-89420775D01*
X139931542Y-89344114D01*
X140029114Y-89246542D01*
X140105775Y-89131811D01*
X140158580Y-89004328D01*
X140185500Y-88868993D01*
X140185500Y-88731007D01*
X140185499Y-88731004D01*
X142014500Y-88731004D01*
X142014500Y-88868995D01*
X142024547Y-88919501D01*
X142027718Y-88935445D01*
X142039518Y-88994766D01*
X142039518Y-88994768D01*
X142041419Y-89004330D01*
X142094216Y-89131794D01*
X142094219Y-89131801D01*
X142094232Y-89131824D01*
X142170884Y-89246540D01*
X142268458Y-89344114D01*
X142383174Y-89420766D01*
X142383177Y-89420767D01*
X142383182Y-89420771D01*
X142383193Y-89420777D01*
X142383197Y-89420779D01*
X142401864Y-89428511D01*
X142456267Y-89451045D01*
X142510672Y-89473580D01*
X142646007Y-89500500D01*
X142646008Y-89500500D01*
X143583992Y-89500500D01*
X143583993Y-89500500D01*
X143719328Y-89473580D01*
X143846811Y-89420775D01*
X143961542Y-89344114D01*
X144059114Y-89246542D01*
X144135775Y-89131811D01*
X144188580Y-89004328D01*
X144215500Y-88868993D01*
X144215500Y-88731007D01*
X144188580Y-88595672D01*
X144163323Y-88534695D01*
X144135777Y-88468193D01*
X144135771Y-88468182D01*
X144131165Y-88461289D01*
X144059114Y-88353458D01*
X143961540Y-88255884D01*
X143846824Y-88179232D01*
X143846801Y-88179219D01*
X143719329Y-88126420D01*
X143583995Y-88099500D01*
X143583993Y-88099500D01*
X142646007Y-88099500D01*
X142646004Y-88099500D01*
X142646003Y-88099500D01*
X142590876Y-88110465D01*
X142520234Y-88124518D01*
X142520227Y-88124518D01*
X142510668Y-88126419D01*
X142383204Y-88179216D01*
X142383197Y-88179219D01*
X142383174Y-88179232D01*
X142268458Y-88255884D01*
X142170884Y-88353458D01*
X142094232Y-88468174D01*
X142094219Y-88468197D01*
X142094216Y-88468204D01*
X142042066Y-88594107D01*
X142042065Y-88594111D01*
X142041420Y-88595670D01*
X142041420Y-88595672D01*
X142014500Y-88731004D01*
X140185499Y-88731004D01*
X140170607Y-88656136D01*
X140158580Y-88595672D01*
X140133323Y-88534695D01*
X140105777Y-88468193D01*
X140105771Y-88468182D01*
X140101165Y-88461289D01*
X140029114Y-88353458D01*
X139931540Y-88255884D01*
X139816824Y-88179232D01*
X139816801Y-88179219D01*
X139689329Y-88126420D01*
X139553995Y-88099500D01*
X139553993Y-88099500D01*
X138316007Y-88099500D01*
X138316004Y-88099500D01*
X138316003Y-88099500D01*
X138260876Y-88110465D01*
X138190234Y-88124518D01*
X138190227Y-88124518D01*
X138180668Y-88126419D01*
X138053204Y-88179216D01*
X138053197Y-88179219D01*
X138053174Y-88179232D01*
X137938458Y-88255884D01*
X137840884Y-88353458D01*
X137764232Y-88468174D01*
X137764219Y-88468197D01*
X137764216Y-88468204D01*
X137712066Y-88594107D01*
X137712065Y-88594111D01*
X137711420Y-88595670D01*
X137711420Y-88595672D01*
X137684500Y-88731004D01*
X127190378Y-88731004D01*
X127194494Y-88730500D01*
X130393293Y-88730500D01*
X130405185Y-88723633D01*
X130455989Y-88710021D01*
X130524511Y-88670460D01*
X130580460Y-88614511D01*
X130760460Y-88434511D01*
X130767881Y-88421658D01*
X130800021Y-88365989D01*
X130820500Y-88289562D01*
X130820500Y-88195180D01*
X130825343Y-88164594D01*
X130825693Y-88163518D01*
X130829465Y-88151905D01*
X130865423Y-88102406D01*
X130868036Y-88100509D01*
X130869563Y-88099400D01*
X130927743Y-88080500D01*
X131093552Y-88080500D01*
X131094096Y-88080222D01*
X131093814Y-88078931D01*
X131099687Y-88077647D01*
X131099699Y-88077646D01*
X131227882Y-88032793D01*
X131237614Y-88025611D01*
X131264304Y-88005912D01*
X131337150Y-87952150D01*
X131397796Y-87869977D01*
X131417791Y-87842885D01*
X131417791Y-87842884D01*
X131417793Y-87842882D01*
X131462646Y-87714699D01*
X131462647Y-87714687D01*
X131463931Y-87708814D01*
X131465500Y-87709156D01*
X131465500Y-87072800D01*
X131464857Y-87068882D01*
X131464350Y-87063467D01*
X131464350Y-87063466D01*
X131462646Y-87045303D01*
X131462646Y-87045301D01*
X131417793Y-86917118D01*
X131414524Y-86912689D01*
X131338549Y-86809745D01*
X131337332Y-86808011D01*
X131337233Y-86807910D01*
X131227884Y-86727207D01*
X131099707Y-86682356D01*
X131099692Y-86682352D01*
X131069281Y-86679500D01*
X131069274Y-86679500D01*
X131069266Y-86679500D01*
X130010734Y-86679500D01*
X130010725Y-86679500D01*
X130010718Y-86679500D01*
X129980306Y-86682352D01*
X129980291Y-86682356D01*
X129980290Y-86682356D01*
X129852114Y-86727207D01*
X129742862Y-86807838D01*
X129742838Y-86807862D01*
X129662207Y-86917114D01*
X129617356Y-87045290D01*
X129617356Y-87045291D01*
X129617352Y-87045306D01*
X129614500Y-87075717D01*
X129614500Y-87684281D01*
X129617352Y-87714692D01*
X129617356Y-87714707D01*
X129617356Y-87714708D01*
X129662207Y-87842884D01*
X129724766Y-87927649D01*
X129726322Y-87930206D01*
X129755084Y-87970425D01*
X129773554Y-88028756D01*
X129754211Y-88086803D01*
X129737080Y-88099102D01*
X129735838Y-88101460D01*
X129729343Y-88104657D01*
X129704796Y-88122281D01*
X129697041Y-88124769D01*
X129684510Y-88126729D01*
X129680945Y-88128485D01*
X129677305Y-88127857D01*
X129666804Y-88129500D01*
X129165639Y-88129500D01*
X129135041Y-88124653D01*
X129127062Y-88122060D01*
X129077564Y-88086094D01*
X129058660Y-88027902D01*
X129077350Y-87970017D01*
X129082116Y-87963404D01*
X129103632Y-87941647D01*
X129122599Y-87927649D01*
X129128446Y-87923334D01*
X129128446Y-87923332D01*
X129157150Y-87902150D01*
X129226121Y-87808697D01*
X129237791Y-87792885D01*
X129237791Y-87792884D01*
X129237793Y-87792882D01*
X129282646Y-87664699D01*
X129282647Y-87664687D01*
X129283931Y-87658814D01*
X129285500Y-87659156D01*
X129285500Y-87022740D01*
X129284839Y-87018691D01*
X129284820Y-87018481D01*
X129282646Y-86995301D01*
X129237793Y-86867118D01*
X129230073Y-86856658D01*
X129229179Y-86855447D01*
X129159654Y-86761242D01*
X129159649Y-86761236D01*
X129157154Y-86757855D01*
X129157152Y-86757853D01*
X129157150Y-86757850D01*
X129157146Y-86757847D01*
X129157144Y-86757845D01*
X129156660Y-86757488D01*
X129156658Y-86757485D01*
X129047884Y-86677207D01*
X128919707Y-86632356D01*
X128919692Y-86632352D01*
X128889281Y-86629500D01*
X128889274Y-86629500D01*
X128889266Y-86629500D01*
X127830734Y-86629500D01*
X127830725Y-86629500D01*
X127830718Y-86629500D01*
X127800306Y-86632352D01*
X127800291Y-86632356D01*
X127800290Y-86632356D01*
X127672114Y-86677207D01*
X127562862Y-86757838D01*
X127562838Y-86757862D01*
X127482207Y-86867114D01*
X127453764Y-86948399D01*
X127439087Y-86975674D01*
X127430637Y-86986772D01*
X127381409Y-87021290D01*
X127376893Y-87022701D01*
X127369567Y-87024991D01*
X127340031Y-87029500D01*
X127224987Y-87029500D01*
X127194394Y-87024654D01*
X127181708Y-87020532D01*
X127132208Y-86984568D01*
X127132206Y-86984565D01*
X127128121Y-86978942D01*
X127110250Y-86935030D01*
X127100573Y-86868607D01*
X127099845Y-86867118D01*
X127072733Y-86811659D01*
X127049198Y-86763517D01*
X126966483Y-86680802D01*
X126943066Y-86669354D01*
X126943066Y-86669353D01*
X126861395Y-86629427D01*
X126827412Y-86624476D01*
X126827410Y-86624475D01*
X126827409Y-86624475D01*
X126800280Y-86620522D01*
X126793260Y-86619500D01*
X126793259Y-86619500D01*
X126326740Y-86619500D01*
X126297714Y-86623728D01*
X126297715Y-86623729D01*
X126258603Y-86629427D01*
X126153520Y-86680799D01*
X126070798Y-86763521D01*
X126033462Y-86839894D01*
X126015677Y-86865246D01*
X126003758Y-86877567D01*
X125956509Y-86904803D01*
X125949410Y-86906570D01*
X125925506Y-86909500D01*
X125769631Y-86909500D01*
X125739035Y-86904653D01*
X125722310Y-86899218D01*
X125677627Y-86869362D01*
X125673353Y-86864358D01*
X125660422Y-86845005D01*
X125623052Y-86771661D01*
X125623051Y-86771660D01*
X125623050Y-86771658D01*
X125533342Y-86681950D01*
X125527539Y-86678993D01*
X125481547Y-86655558D01*
X125481531Y-86655550D01*
X125420304Y-86624354D01*
X125420306Y-86624354D01*
X125406621Y-86622186D01*
X125394707Y-86616880D01*
X125393474Y-86615769D01*
X125390040Y-86614654D01*
X125378155Y-86608598D01*
X125334891Y-86565332D01*
X125334888Y-86565326D01*
X125334613Y-86564787D01*
X125331286Y-86558255D01*
X125320500Y-86513318D01*
X125320500Y-86420439D01*
X125319652Y-86414000D01*
X125319995Y-86413954D01*
X125318651Y-86405643D01*
X125318168Y-86397366D01*
X125318335Y-86396727D01*
X125318000Y-86391599D01*
X125318000Y-85544870D01*
X131919258Y-85544870D01*
X131919258Y-85676658D01*
X131925775Y-85700982D01*
X131925776Y-85700982D01*
X131953368Y-85803958D01*
X132019252Y-85918071D01*
X132019254Y-85918073D01*
X132019256Y-85918075D01*
X132019258Y-85918078D01*
X132112444Y-86011264D01*
X132112446Y-86011265D01*
X132112448Y-86011267D01*
X132112995Y-86011662D01*
X132115005Y-86012743D01*
X132169798Y-86044378D01*
X132191392Y-86068360D01*
X132225702Y-86076938D01*
X132227306Y-86077352D01*
X132353866Y-86111264D01*
X132353868Y-86111264D01*
X132438599Y-86111264D01*
X132469187Y-86116107D01*
X132492418Y-86123655D01*
X132531827Y-86147804D01*
X132556983Y-86172960D01*
X132556985Y-86172961D01*
X132557537Y-86173359D01*
X132559558Y-86174446D01*
X132625501Y-86212519D01*
X132625505Y-86212521D01*
X132692256Y-86230407D01*
X132694407Y-86231223D01*
X132701930Y-86233000D01*
X132701931Y-86233000D01*
X132701932Y-86233000D01*
X133703111Y-86233000D01*
X133733701Y-86237844D01*
X133750428Y-86243279D01*
X133795108Y-86273130D01*
X133799384Y-86278136D01*
X133812316Y-86297488D01*
X133849692Y-86370842D01*
X133939400Y-86460550D01*
X134052438Y-86518146D01*
X134146223Y-86533000D01*
X134759260Y-86532999D01*
X134759262Y-86532999D01*
X134759263Y-86532998D01*
X134816133Y-86523992D01*
X134845350Y-86519365D01*
X134849243Y-86519058D01*
X134849262Y-86519054D01*
X134856891Y-86517536D01*
X134860807Y-86516915D01*
X134870577Y-86509212D01*
X134966084Y-86460550D01*
X135055792Y-86370842D01*
X135113388Y-86257804D01*
X135128242Y-86164019D01*
X135128241Y-85700982D01*
X135126464Y-85689763D01*
X135124388Y-85676656D01*
X135114607Y-85614890D01*
X135114300Y-85610999D01*
X135114297Y-85610984D01*
X135113643Y-85607696D01*
X135055793Y-85494160D01*
X135055792Y-85494158D01*
X134966084Y-85404450D01*
X134911985Y-85376885D01*
X134887394Y-85352293D01*
X134759267Y-85332000D01*
X134759264Y-85332000D01*
X134146221Y-85332000D01*
X134146215Y-85332000D01*
X134146166Y-85332008D01*
X134145803Y-85332066D01*
X134052442Y-85346852D01*
X134052418Y-85346862D01*
X133939403Y-85404447D01*
X133939395Y-85404453D01*
X133939393Y-85404456D01*
X133849692Y-85494156D01*
X133849690Y-85494159D01*
X133814117Y-85563976D01*
X133795913Y-85589031D01*
X133783479Y-85601467D01*
X133736586Y-85627727D01*
X133730182Y-85629265D01*
X133707073Y-85632000D01*
X133034229Y-85632000D01*
X133003636Y-85627154D01*
X132990950Y-85623032D01*
X132941450Y-85587069D01*
X132936572Y-85580355D01*
X132921038Y-85547787D01*
X132920258Y-85544875D01*
X132920258Y-85544872D01*
X132886150Y-85417578D01*
X132886148Y-85417575D01*
X132886148Y-85417573D01*
X132821729Y-85305997D01*
X132820656Y-85304002D01*
X132820261Y-85303454D01*
X132820259Y-85303452D01*
X132820258Y-85303450D01*
X132727072Y-85210264D01*
X132727069Y-85210262D01*
X132727067Y-85210260D01*
X132727060Y-85210256D01*
X132670234Y-85177447D01*
X132649200Y-85154086D01*
X132563557Y-85131139D01*
X132563556Y-85131138D01*
X132489419Y-85111274D01*
X132485650Y-85110264D01*
X132485649Y-85110264D01*
X132353867Y-85110264D01*
X132353866Y-85110264D01*
X132350097Y-85111274D01*
X132275957Y-85131139D01*
X132275956Y-85131138D01*
X132226565Y-85144373D01*
X132226563Y-85144374D01*
X132112452Y-85210256D01*
X132019250Y-85303458D01*
X131953368Y-85417569D01*
X131953366Y-85417573D01*
X131934296Y-85488739D01*
X131934297Y-85488740D01*
X131919258Y-85544870D01*
X125318000Y-85544870D01*
X125318000Y-83973705D01*
X141429500Y-83973705D01*
X141429500Y-84186293D01*
X141462751Y-84396238D01*
X141462752Y-84396243D01*
X141528439Y-84598405D01*
X141528441Y-84598408D01*
X141624808Y-84787541D01*
X141624941Y-84787806D01*
X141624947Y-84787815D01*
X141624948Y-84787816D01*
X141624950Y-84787819D01*
X141749891Y-84959786D01*
X141749893Y-84959788D01*
X141749896Y-84959792D01*
X141900208Y-85110104D01*
X141900211Y-85110106D01*
X141900217Y-85110112D01*
X141900593Y-85110420D01*
X141901791Y-85111254D01*
X142072180Y-85235049D01*
X142072183Y-85235051D01*
X142072189Y-85235055D01*
X142072439Y-85235181D01*
X142261588Y-85331557D01*
X142463757Y-85397246D01*
X142463758Y-85397246D01*
X142463761Y-85397247D01*
X142592093Y-85417573D01*
X142673707Y-85430500D01*
X142886290Y-85430500D01*
X142886293Y-85430500D01*
X142985149Y-85414842D01*
X143096238Y-85397247D01*
X143096238Y-85397246D01*
X143096240Y-85397246D01*
X143096243Y-85397246D01*
X143096246Y-85397245D01*
X143098822Y-85396837D01*
X143103629Y-85394845D01*
X143298412Y-85331557D01*
X143487816Y-85235051D01*
X143659792Y-85110104D01*
X143810104Y-84959792D01*
X143935051Y-84787816D01*
X144031557Y-84598412D01*
X144097246Y-84396243D01*
X144100244Y-84377314D01*
X144124655Y-84223194D01*
X144130500Y-84186291D01*
X144130500Y-83973705D01*
X144097247Y-83763759D01*
X144093191Y-83751277D01*
X144031557Y-83561588D01*
X143935181Y-83372439D01*
X143935055Y-83372189D01*
X143935051Y-83372183D01*
X143935049Y-83372180D01*
X143810108Y-83200213D01*
X143810106Y-83200211D01*
X143810104Y-83200208D01*
X143659792Y-83049896D01*
X143659788Y-83049893D01*
X143659786Y-83049891D01*
X143513000Y-82943245D01*
X143487815Y-82924947D01*
X143487806Y-82924941D01*
X143487541Y-82924808D01*
X143298408Y-82828441D01*
X143298405Y-82828439D01*
X143096243Y-82762752D01*
X143096239Y-82762751D01*
X142886293Y-82729500D01*
X142886290Y-82729500D01*
X142886287Y-82729500D01*
X142673713Y-82729500D01*
X142673710Y-82729500D01*
X142673707Y-82729500D01*
X142463765Y-82762750D01*
X142261583Y-82828444D01*
X142072456Y-82924808D01*
X142072201Y-82924936D01*
X142072183Y-82924947D01*
X141900214Y-83049890D01*
X141749890Y-83200214D01*
X141624947Y-83372183D01*
X141624936Y-83372201D01*
X141624808Y-83372456D01*
X141528443Y-83561584D01*
X141528439Y-83561593D01*
X141462752Y-83763755D01*
X141462751Y-83763759D01*
X141429500Y-83973705D01*
X125318000Y-83973705D01*
X125318000Y-83019001D01*
X125322844Y-82988413D01*
X125324250Y-82984084D01*
X125330391Y-82965181D01*
X125354545Y-82925767D01*
X125370500Y-82909814D01*
X125394593Y-82868084D01*
X125436390Y-82795690D01*
X125436390Y-82795688D01*
X125436392Y-82795686D01*
X125470500Y-82668392D01*
X125470500Y-82536608D01*
X125436392Y-82409314D01*
X125436390Y-82409311D01*
X125436390Y-82409309D01*
X125436383Y-82409298D01*
X125436066Y-82408594D01*
X125434812Y-82406576D01*
X125370503Y-82295190D01*
X125370501Y-82295188D01*
X125370500Y-82295186D01*
X125277314Y-82202000D01*
X125277311Y-82201998D01*
X125277309Y-82201996D01*
X125249487Y-82185933D01*
X125220476Y-82169183D01*
X125199442Y-82145822D01*
X125113799Y-82122875D01*
X125113798Y-82122874D01*
X125056766Y-82107593D01*
X125035892Y-82102000D01*
X125035891Y-82102000D01*
X124904109Y-82102000D01*
X124904108Y-82102000D01*
X124865154Y-82112437D01*
X124826199Y-82122875D01*
X124826198Y-82122874D01*
X124776807Y-82136109D01*
X124776805Y-82136110D01*
X124662694Y-82201992D01*
X124569492Y-82295194D01*
X124503608Y-82409309D01*
X124503330Y-82410045D01*
X124502784Y-82412386D01*
X124469500Y-82536608D01*
X124469500Y-82668391D01*
X124494783Y-82762753D01*
X124503609Y-82795691D01*
X124503610Y-82795693D01*
X124569494Y-82909807D01*
X124569496Y-82909809D01*
X124569498Y-82909811D01*
X124569500Y-82909814D01*
X124662686Y-83003000D01*
X124662688Y-83003001D01*
X124662946Y-83003199D01*
X124676246Y-83015494D01*
X124690688Y-83031532D01*
X124713954Y-83077188D01*
X124714836Y-83081339D01*
X124717000Y-83101918D01*
X124717000Y-86470443D01*
X124714187Y-86479100D01*
X124717001Y-86500461D01*
X124713005Y-86543980D01*
X124710534Y-86551586D01*
X124674572Y-86601087D01*
X124674569Y-86601089D01*
X124668151Y-86605752D01*
X124625445Y-86623441D01*
X124619703Y-86624350D01*
X124619699Y-86624351D01*
X124619699Y-86624352D01*
X124619695Y-86624354D01*
X124570769Y-86649283D01*
X124506659Y-86681949D01*
X124416948Y-86771660D01*
X124359354Y-86884693D01*
X124344500Y-86978475D01*
X124344500Y-87441522D01*
X124344508Y-87441572D01*
X124344566Y-87441937D01*
X124359352Y-87535298D01*
X124359362Y-87535322D01*
X124416948Y-87648339D01*
X124416950Y-87648342D01*
X124506658Y-87738050D01*
X124619696Y-87795646D01*
X124713481Y-87810500D01*
X125326518Y-87810499D01*
X125326520Y-87810499D01*
X125326521Y-87810498D01*
X125373411Y-87803072D01*
X125420299Y-87795647D01*
X125420299Y-87795646D01*
X125424137Y-87795039D01*
X125424142Y-87795038D01*
X125428064Y-87794416D01*
X125437838Y-87786711D01*
X125533342Y-87738050D01*
X125623050Y-87648342D01*
X125658624Y-87578521D01*
X125676828Y-87553466D01*
X125689265Y-87541030D01*
X125736161Y-87514771D01*
X125742565Y-87513234D01*
X125765669Y-87510500D01*
X126048132Y-87510500D01*
X126078723Y-87515344D01*
X126101949Y-87522891D01*
X126141359Y-87547040D01*
X126153517Y-87559198D01*
X126207285Y-87585483D01*
X126258373Y-87610459D01*
X126258600Y-87610571D01*
X126258605Y-87610572D01*
X126258607Y-87610573D01*
X126258611Y-87610573D01*
X126261875Y-87611328D01*
X126265693Y-87611605D01*
X126326740Y-87620500D01*
X126673596Y-87620500D01*
X126686506Y-87621345D01*
X126699278Y-87623026D01*
X126711971Y-87625552D01*
X126722795Y-87628452D01*
X126730435Y-87630499D01*
X126730437Y-87630500D01*
X126730438Y-87630500D01*
X126809562Y-87630500D01*
X127339463Y-87630500D01*
X127370055Y-87635345D01*
X127383323Y-87639656D01*
X127432166Y-87674726D01*
X127439567Y-87684676D01*
X127453576Y-87711063D01*
X127482207Y-87792883D01*
X127482207Y-87792884D01*
X127561988Y-87900984D01*
X127561992Y-87900988D01*
X127562845Y-87902144D01*
X127562847Y-87902146D01*
X127562850Y-87902150D01*
X127562853Y-87902152D01*
X127562855Y-87902154D01*
X127563493Y-87902625D01*
X127563608Y-87902750D01*
X127564742Y-87903546D01*
X127597400Y-87927649D01*
X127616212Y-87941533D01*
X127637946Y-87963593D01*
X127642827Y-87970417D01*
X127661302Y-88028746D01*
X127641964Y-88086795D01*
X127592555Y-88122277D01*
X127584802Y-88124765D01*
X127554552Y-88129500D01*
X127071868Y-88129500D01*
X127041274Y-88124654D01*
X127018048Y-88117107D01*
X126978640Y-88092959D01*
X126966483Y-88080802D01*
X126966481Y-88080801D01*
X126966478Y-88080799D01*
X126927617Y-88061800D01*
X126927614Y-88061800D01*
X126861395Y-88029427D01*
X126834139Y-88025456D01*
X126834138Y-88025455D01*
X126803655Y-88021014D01*
X126793260Y-88019500D01*
X126793258Y-88019500D01*
X126326736Y-88019500D01*
X126292670Y-88024463D01*
X126292669Y-88024462D01*
X126258606Y-88029426D01*
X126258604Y-88029426D01*
X126153520Y-88080799D01*
X126153517Y-88080801D01*
X126090039Y-88144278D01*
X126090040Y-88144279D01*
X126076945Y-88157374D01*
X126076942Y-88157375D01*
X126067123Y-88167195D01*
X126065033Y-88169706D01*
X126047761Y-88187562D01*
X126000519Y-88214800D01*
X125993417Y-88216568D01*
X125969501Y-88219500D01*
X125320434Y-88219500D01*
X125253045Y-88237555D01*
X125253046Y-88237556D01*
X125244003Y-88239980D01*
X125238010Y-88242463D01*
X125237984Y-88242400D01*
X125220575Y-88249612D01*
X125196260Y-88256127D01*
X125170638Y-88259500D01*
X124713473Y-88259500D01*
X124713424Y-88259508D01*
X124713061Y-88259566D01*
X124619700Y-88274352D01*
X124619676Y-88274362D01*
X124506661Y-88331947D01*
X124416948Y-88421660D01*
X124359354Y-88534693D01*
X124344500Y-88628476D01*
X124344500Y-88784840D01*
X124339654Y-88815434D01*
X124336274Y-88825836D01*
X124300309Y-88875336D01*
X124242118Y-88894242D01*
X124190400Y-88879658D01*
X124186382Y-88877196D01*
X124185494Y-88876652D01*
X124167213Y-88862242D01*
X123330582Y-88025611D01*
X123312376Y-88000552D01*
X123301288Y-87978790D01*
X123290500Y-87933848D01*
X123290500Y-84533001D01*
X123295343Y-84502415D01*
X123295964Y-84500503D01*
X123298723Y-84492010D01*
X123334683Y-84442510D01*
X123392872Y-84423599D01*
X123444612Y-84438191D01*
X123449515Y-84441196D01*
X123467785Y-84455600D01*
X123512686Y-84500500D01*
X123513237Y-84500898D01*
X123515239Y-84501975D01*
X123541820Y-84517321D01*
X123570040Y-84533614D01*
X123591634Y-84557596D01*
X123625944Y-84566174D01*
X123627548Y-84566588D01*
X123754108Y-84600500D01*
X123754110Y-84600500D01*
X123885890Y-84600500D01*
X123885892Y-84600500D01*
X124013186Y-84566392D01*
X124013188Y-84566390D01*
X124013190Y-84566390D01*
X124121190Y-84504035D01*
X124124067Y-84502639D01*
X124124853Y-84502122D01*
X124129862Y-84499028D01*
X124131161Y-84498277D01*
X124136519Y-84491294D01*
X124220500Y-84407314D01*
X124260915Y-84337314D01*
X124286390Y-84293190D01*
X124286390Y-84293188D01*
X124286392Y-84293186D01*
X124320500Y-84165892D01*
X124320500Y-84034108D01*
X124286392Y-83906814D01*
X124286390Y-83906811D01*
X124286390Y-83906809D01*
X124286383Y-83906798D01*
X124286066Y-83906094D01*
X124284812Y-83904076D01*
X124221454Y-83794338D01*
X124220503Y-83792690D01*
X124220501Y-83792688D01*
X124220500Y-83792686D01*
X124127314Y-83699500D01*
X124127311Y-83699498D01*
X124127309Y-83699496D01*
X124127308Y-83699495D01*
X124013205Y-83633617D01*
X124013193Y-83633611D01*
X124013191Y-83633610D01*
X124013189Y-83633609D01*
X124013185Y-83633607D01*
X123997858Y-83629500D01*
X123988450Y-83626979D01*
X123964577Y-83617090D01*
X123942775Y-83604503D01*
X123922270Y-83588770D01*
X123533708Y-83200208D01*
X123533708Y-83200207D01*
X123113041Y-82779541D01*
X123113037Y-82779538D01*
X123110635Y-82778144D01*
X123110467Y-82778054D01*
X123101951Y-82773137D01*
X123101941Y-82773132D01*
X123078408Y-82759545D01*
X123044517Y-82739978D01*
X122968093Y-82719500D01*
X122968091Y-82719500D01*
X118585180Y-82719500D01*
X118554587Y-82714654D01*
X118541901Y-82710532D01*
X118492401Y-82674568D01*
X118492394Y-82674558D01*
X118489400Y-82670436D01*
X118470500Y-82612256D01*
X118470500Y-82536610D01*
X118470500Y-82536609D01*
X118457477Y-82488005D01*
X118436392Y-82409314D01*
X118436390Y-82409311D01*
X118436390Y-82409309D01*
X118436385Y-82409301D01*
X118436066Y-82408594D01*
X118434812Y-82406576D01*
X118370503Y-82295190D01*
X118370501Y-82295188D01*
X118370500Y-82295186D01*
X118277314Y-82202000D01*
X118277311Y-82201998D01*
X118277309Y-82201996D01*
X118249487Y-82185933D01*
X118220476Y-82169183D01*
X118199442Y-82145822D01*
X118113799Y-82122875D01*
X118113798Y-82122874D01*
X118056766Y-82107593D01*
X118035892Y-82102000D01*
X118035891Y-82102000D01*
X117904109Y-82102000D01*
X117904108Y-82102000D01*
X117865154Y-82112437D01*
X117826199Y-82122875D01*
X117826198Y-82122874D01*
X117776807Y-82136109D01*
X117776805Y-82136110D01*
X117662694Y-82201992D01*
X117569492Y-82295194D01*
X117503608Y-82409309D01*
X117503330Y-82410045D01*
X117502784Y-82412386D01*
X117469500Y-82536608D01*
X117469500Y-82668391D01*
X117494783Y-82762753D01*
X117503609Y-82795691D01*
X117503610Y-82795693D01*
X117569495Y-82909809D01*
X117648941Y-82989256D01*
X117664673Y-83009758D01*
X117677259Y-83031557D01*
X117687149Y-83055434D01*
X117689974Y-83065979D01*
X117689978Y-83065989D01*
X117689985Y-83066002D01*
X117722254Y-83121896D01*
X117722264Y-83121910D01*
X117729538Y-83134509D01*
X117729540Y-83134511D01*
X117799539Y-83204511D01*
X117799540Y-83204512D01*
X117799539Y-83204512D01*
X117855488Y-83260460D01*
X117902285Y-83287478D01*
X117924007Y-83300019D01*
X117924011Y-83300021D01*
X117990762Y-83317907D01*
X117992913Y-83318723D01*
X118000436Y-83320500D01*
X118000437Y-83320500D01*
X118000438Y-83320500D01*
X118079562Y-83320500D01*
X122659531Y-83320500D01*
X122682273Y-83327889D01*
X122697943Y-83327886D01*
X122697944Y-83327886D01*
X122710639Y-83337105D01*
X122717722Y-83339407D01*
X122733089Y-83353242D01*
X122733525Y-83353727D01*
X122747451Y-83363840D01*
X122766370Y-83422027D01*
X122747474Y-83480221D01*
X122744999Y-83483629D01*
X122714393Y-83511193D01*
X122682692Y-83529494D01*
X122589495Y-83622691D01*
X122583187Y-83633617D01*
X122523609Y-83736809D01*
X122523609Y-83736810D01*
X122523607Y-83736813D01*
X122516329Y-83763980D01*
X122514855Y-83769482D01*
X122489500Y-83864108D01*
X122489500Y-83995892D01*
X122506900Y-84060829D01*
X122523609Y-84123190D01*
X122523610Y-84123192D01*
X122523611Y-84123195D01*
X122589495Y-84237309D01*
X122649418Y-84297233D01*
X122667623Y-84322290D01*
X122678709Y-84344047D01*
X122689500Y-84388993D01*
X122689500Y-87734819D01*
X122684654Y-87765412D01*
X122680532Y-87778098D01*
X122644580Y-87827589D01*
X122640459Y-87830584D01*
X122582271Y-87849500D01*
X122141098Y-87849500D01*
X122110501Y-87844653D01*
X122099666Y-87841132D01*
X122050168Y-87805166D01*
X122031263Y-87746979D01*
X122031263Y-87740990D01*
X122042054Y-87696044D01*
X122080646Y-87620304D01*
X122095500Y-87526519D01*
X122095499Y-87063482D01*
X122095496Y-87063466D01*
X122092620Y-87045303D01*
X122088371Y-87018476D01*
X122081864Y-86977383D01*
X122081558Y-86973500D01*
X122081555Y-86973484D01*
X122080901Y-86970196D01*
X122023051Y-86856660D01*
X122023050Y-86856658D01*
X121933342Y-86766950D01*
X121926612Y-86763521D01*
X121881547Y-86740558D01*
X121881531Y-86740550D01*
X121820304Y-86709354D01*
X121820306Y-86709354D01*
X121806621Y-86707186D01*
X121794707Y-86701880D01*
X121793474Y-86700769D01*
X121790040Y-86699654D01*
X121778155Y-86693598D01*
X121734891Y-86650332D01*
X121734888Y-86650326D01*
X121731286Y-86643255D01*
X121720500Y-86598318D01*
X121720500Y-86340436D01*
X121718723Y-86332913D01*
X121717907Y-86330762D01*
X121700021Y-86264011D01*
X121700019Y-86264007D01*
X121684914Y-86237845D01*
X121660460Y-86195489D01*
X121637931Y-86172960D01*
X121604511Y-86139539D01*
X121557736Y-86092764D01*
X121557736Y-86092765D01*
X121320582Y-85855611D01*
X121302376Y-85830552D01*
X121291288Y-85808790D01*
X121280500Y-85763848D01*
X121280500Y-84494001D01*
X121285345Y-84463410D01*
X121292892Y-84440181D01*
X121317040Y-84400772D01*
X121380500Y-84337314D01*
X121392717Y-84316154D01*
X121446390Y-84223190D01*
X121446390Y-84223188D01*
X121446392Y-84223186D01*
X121480500Y-84095892D01*
X121480500Y-83964108D01*
X121446392Y-83836814D01*
X121446390Y-83836811D01*
X121446390Y-83836809D01*
X121446383Y-83836798D01*
X121446066Y-83836094D01*
X121444812Y-83834076D01*
X121380503Y-83722690D01*
X121380501Y-83722688D01*
X121380500Y-83722686D01*
X121287314Y-83629500D01*
X121287311Y-83629498D01*
X121287309Y-83629496D01*
X121277109Y-83623607D01*
X121230476Y-83596683D01*
X121209442Y-83573322D01*
X121123799Y-83550375D01*
X121123798Y-83550374D01*
X121066766Y-83535093D01*
X121045892Y-83529500D01*
X121045891Y-83529500D01*
X120914109Y-83529500D01*
X120914108Y-83529500D01*
X120875154Y-83539937D01*
X120836199Y-83550375D01*
X120836198Y-83550374D01*
X120786807Y-83563609D01*
X120786805Y-83563610D01*
X120672694Y-83629492D01*
X120579494Y-83722692D01*
X120552029Y-83770264D01*
X120532534Y-83794338D01*
X120524066Y-83801962D01*
X120468169Y-83826846D01*
X120408323Y-83814123D01*
X120404101Y-83811685D01*
X120367873Y-83775455D01*
X120360499Y-83762684D01*
X120267312Y-83669498D01*
X120210476Y-83636683D01*
X120189442Y-83613322D01*
X120103799Y-83590375D01*
X120103798Y-83590374D01*
X120040156Y-83573322D01*
X120025892Y-83569500D01*
X120025891Y-83569500D01*
X119894109Y-83569500D01*
X119894108Y-83569500D01*
X119879844Y-83573322D01*
X119816199Y-83590375D01*
X119816198Y-83590374D01*
X119766808Y-83603609D01*
X119652689Y-83669496D01*
X119581993Y-83740191D01*
X119556936Y-83758395D01*
X119545975Y-83763980D01*
X119485543Y-83773552D01*
X119432880Y-83747580D01*
X119425578Y-83740651D01*
X119415089Y-83727340D01*
X119414449Y-83727832D01*
X119410500Y-83722685D01*
X119317312Y-83629498D01*
X119305520Y-83622690D01*
X119274020Y-83604503D01*
X119260476Y-83596683D01*
X119239442Y-83573322D01*
X119153799Y-83550375D01*
X119153798Y-83550374D01*
X119096766Y-83535093D01*
X119075892Y-83529500D01*
X119075891Y-83529500D01*
X118944109Y-83529500D01*
X118944108Y-83529500D01*
X118905154Y-83539937D01*
X118866199Y-83550375D01*
X118866198Y-83550374D01*
X118816807Y-83563609D01*
X118816805Y-83563610D01*
X118702694Y-83629492D01*
X118609492Y-83722694D01*
X118543610Y-83836805D01*
X118543608Y-83836809D01*
X118536293Y-83864107D01*
X118536294Y-83864108D01*
X118510007Y-83962215D01*
X118509500Y-83964108D01*
X118509500Y-84095892D01*
X118516816Y-84123195D01*
X118520218Y-84135892D01*
X118543610Y-84223194D01*
X118609495Y-84337309D01*
X118669418Y-84397233D01*
X118687623Y-84422290D01*
X118698709Y-84444047D01*
X118709500Y-84488993D01*
X118709500Y-85848840D01*
X118704654Y-85879433D01*
X118697107Y-85902660D01*
X118672957Y-85942070D01*
X118254486Y-86360542D01*
X118254481Y-86360544D01*
X118169538Y-86445489D01*
X118129981Y-86514003D01*
X118129977Y-86514016D01*
X118113936Y-86573877D01*
X118101338Y-86602172D01*
X118092526Y-86615741D01*
X118049766Y-86652262D01*
X118041649Y-86655876D01*
X118016866Y-86663216D01*
X118009703Y-86664350D01*
X118009699Y-86664351D01*
X118009699Y-86664352D01*
X118009695Y-86664354D01*
X117979614Y-86679681D01*
X117896659Y-86721949D01*
X117806948Y-86811660D01*
X117749354Y-86924693D01*
X117734500Y-87018475D01*
X117734500Y-87481522D01*
X117734508Y-87481572D01*
X117734566Y-87481937D01*
X117749352Y-87575298D01*
X117749354Y-87575304D01*
X117793574Y-87662090D01*
X117794241Y-87663425D01*
X117810078Y-87695701D01*
X117809865Y-87695857D01*
X117817705Y-87711244D01*
X117818043Y-87711933D01*
X117822274Y-87741527D01*
X117826947Y-87771031D01*
X117826592Y-87771727D01*
X117826703Y-87772502D01*
X117812749Y-87798894D01*
X117799170Y-87825547D01*
X117795725Y-87828992D01*
X117751346Y-87854614D01*
X117694014Y-87869977D01*
X117694010Y-87869978D01*
X117637217Y-87902766D01*
X117637218Y-87902767D01*
X117625491Y-87909538D01*
X115895611Y-89639417D01*
X115870554Y-89657621D01*
X115848796Y-89668708D01*
X115803849Y-89679500D01*
X104170432Y-89679500D01*
X104094012Y-89699977D01*
X104078192Y-89709111D01*
X104078186Y-89709112D01*
X104025493Y-89739536D01*
X104025488Y-89739540D01*
X103360589Y-90404438D01*
X103335529Y-90422645D01*
X103325786Y-90427609D01*
X103265354Y-90437179D01*
X103210838Y-90409400D01*
X103184577Y-90362505D01*
X103184247Y-90361132D01*
X103183233Y-90356908D01*
X103180500Y-90333803D01*
X103180500Y-89060254D01*
X103180496Y-89060230D01*
X103176378Y-89039526D01*
X103176378Y-89039525D01*
X103168867Y-89001771D01*
X103168866Y-89001767D01*
X103146557Y-88968380D01*
X103124552Y-88935448D01*
X103124548Y-88935445D01*
X103063534Y-88894676D01*
X103058232Y-88891133D01*
X103058227Y-88891131D01*
X103058025Y-88891063D01*
X103056488Y-88890786D01*
X102999768Y-88879503D01*
X102999758Y-88879501D01*
X102999753Y-88879500D01*
X102999750Y-88879500D01*
X102999748Y-88879500D01*
X101269458Y-88879500D01*
X101248224Y-88877196D01*
X101230842Y-88873379D01*
X101178076Y-88842448D01*
X101178028Y-88842394D01*
X101176301Y-88840450D01*
X101153394Y-88794925D01*
X101152590Y-88791076D01*
X101150500Y-88770842D01*
X101150500Y-84125557D01*
X101150523Y-84123434D01*
X101150570Y-84121243D01*
X101150638Y-84119111D01*
X101155249Y-84013489D01*
X101155596Y-84008482D01*
X101156074Y-84003444D01*
X101156675Y-83998461D01*
X101157049Y-83995913D01*
X101158985Y-83982694D01*
X101161708Y-83964108D01*
X101170502Y-83904063D01*
X101198640Y-83711961D01*
X101199634Y-83706329D01*
X101200805Y-83700661D01*
X101202122Y-83695108D01*
X101221281Y-83623607D01*
X101228495Y-83596683D01*
X101276037Y-83419254D01*
X101277667Y-83413810D01*
X101279503Y-83408270D01*
X101281456Y-83402911D01*
X101281458Y-83402906D01*
X101386873Y-83137559D01*
X101389149Y-83132286D01*
X101391585Y-83127064D01*
X101394149Y-83121957D01*
X101400712Y-83109786D01*
X101529680Y-82870599D01*
X101532546Y-82865633D01*
X101535571Y-82860729D01*
X101538723Y-82855937D01*
X101557975Y-82828443D01*
X101702519Y-82622013D01*
X101705912Y-82617455D01*
X101709524Y-82612887D01*
X101713174Y-82608538D01*
X101903028Y-82395201D01*
X101906953Y-82391041D01*
X101911048Y-82386945D01*
X101915201Y-82383028D01*
X102128521Y-82193188D01*
X102132900Y-82189513D01*
X102137436Y-82185926D01*
X102142042Y-82182498D01*
X102375955Y-82018711D01*
X102380708Y-82015584D01*
X102385657Y-82012531D01*
X102390583Y-82009688D01*
X102641953Y-81874150D01*
X102647054Y-81871587D01*
X102652330Y-81869128D01*
X102657556Y-81866875D01*
X102922955Y-81761439D01*
X102928294Y-81759495D01*
X102933795Y-81757671D01*
X102939264Y-81756033D01*
X103215136Y-81682114D01*
X103220676Y-81680801D01*
X103226342Y-81679631D01*
X103231973Y-81678638D01*
X103518506Y-81636669D01*
X103523462Y-81636071D01*
X103528486Y-81635594D01*
X103533463Y-81635250D01*
X103635331Y-81630803D01*
X103635331Y-81630805D01*
X103635341Y-81630802D01*
X103639120Y-81630638D01*
X103641187Y-81630571D01*
X103643406Y-81630523D01*
X103645547Y-81630500D01*
X142854440Y-81630500D01*
X142856564Y-81630523D01*
G37*
%TD.AperFunction*%
%TA.AperFunction,Conductor*%
G36*
X103969087Y-96031175D02*
G01*
X103969092Y-96031005D01*
X103971354Y-96031070D01*
X103973695Y-96031905D01*
X103994745Y-96035240D01*
X103994777Y-96035141D01*
X104007373Y-96039140D01*
X104020700Y-96048686D01*
X104028977Y-96051641D01*
X104032959Y-96057467D01*
X104057115Y-96074770D01*
X104057504Y-96075301D01*
X104060588Y-96079545D01*
X104079500Y-96137735D01*
X104079500Y-96149753D01*
X104089000Y-96197513D01*
X104090068Y-96204005D01*
X104099883Y-96279156D01*
X104099863Y-96304952D01*
X104096570Y-96329861D01*
X104091990Y-96346952D01*
X104092543Y-96347120D01*
X104091132Y-96351770D01*
X104079500Y-96410245D01*
X104079500Y-97249751D01*
X104079503Y-97249772D01*
X104082231Y-97263482D01*
X104087606Y-97290500D01*
X104091133Y-97308231D01*
X104091134Y-97308232D01*
X104099978Y-97321468D01*
X104104994Y-97335356D01*
X104105098Y-97338589D01*
X104107163Y-97342111D01*
X104110792Y-97354981D01*
X104109664Y-97412448D01*
X104106567Y-97421979D01*
X104094731Y-97446383D01*
X104091134Y-97451766D01*
X104091131Y-97451777D01*
X104079500Y-97510245D01*
X104079500Y-98349753D01*
X104088400Y-98394497D01*
X104091132Y-98408227D01*
X104091133Y-98408231D01*
X104135448Y-98474552D01*
X104201769Y-98518867D01*
X104224000Y-98523289D01*
X104246228Y-98527711D01*
X104246231Y-98527711D01*
X104254159Y-98529288D01*
X104256324Y-98529861D01*
X104258514Y-98530217D01*
X104260081Y-98530500D01*
X104260252Y-98530500D01*
X104260253Y-98530500D01*
X105799747Y-98530500D01*
X105799748Y-98530500D01*
X105858231Y-98518867D01*
X105858961Y-98518378D01*
X105887082Y-98505411D01*
X105899926Y-98501789D01*
X105961059Y-98504187D01*
X105961067Y-98504190D01*
X105961068Y-98504191D01*
X105969454Y-98507285D01*
X106005190Y-98530161D01*
X106510489Y-99035460D01*
X106510490Y-99035460D01*
X106510493Y-99035463D01*
X106511040Y-99035857D01*
X106513040Y-99036934D01*
X106522240Y-99042245D01*
X106543832Y-99066226D01*
X106578158Y-99074808D01*
X106579731Y-99075214D01*
X106655438Y-99095500D01*
X106734562Y-99095500D01*
X107315999Y-99095500D01*
X107346590Y-99100344D01*
X107369816Y-99107891D01*
X107409227Y-99132042D01*
X107472791Y-99195605D01*
X107473046Y-99195794D01*
X107475239Y-99196975D01*
X107504915Y-99214108D01*
X107530040Y-99228614D01*
X107551634Y-99252596D01*
X107585944Y-99261174D01*
X107587548Y-99261588D01*
X107714108Y-99295500D01*
X107714110Y-99295500D01*
X107845890Y-99295500D01*
X107845892Y-99295500D01*
X107973186Y-99261392D01*
X107973188Y-99261390D01*
X107973190Y-99261390D01*
X108081190Y-99199035D01*
X108084067Y-99197639D01*
X108084853Y-99197122D01*
X108089862Y-99194028D01*
X108091161Y-99193277D01*
X108096519Y-99186294D01*
X108180500Y-99102314D01*
X108206770Y-99056814D01*
X108246390Y-98988190D01*
X108246390Y-98988188D01*
X108246392Y-98988186D01*
X108280500Y-98860892D01*
X108280500Y-98860888D01*
X108281347Y-98854458D01*
X108281556Y-98854485D01*
X108285344Y-98830570D01*
X108289856Y-98816683D01*
X108292891Y-98807339D01*
X108317040Y-98767930D01*
X108544391Y-98540579D01*
X108569443Y-98522378D01*
X108591210Y-98511288D01*
X108636151Y-98500500D01*
X117989841Y-98500500D01*
X118020429Y-98505343D01*
X118030832Y-98508723D01*
X118080332Y-98544685D01*
X118099242Y-98602875D01*
X118084658Y-98654599D01*
X118081654Y-98659502D01*
X118067242Y-98677786D01*
X117165611Y-99579417D01*
X117140554Y-99597621D01*
X117118796Y-99608708D01*
X117073849Y-99619500D01*
X115961750Y-99619500D01*
X115931153Y-99614653D01*
X115920318Y-99611132D01*
X115870820Y-99575166D01*
X115851915Y-99516979D01*
X115851915Y-99512107D01*
X115865179Y-99462606D01*
X115876392Y-99443186D01*
X115910500Y-99315892D01*
X115910500Y-99184108D01*
X115876392Y-99056814D01*
X115876390Y-99056811D01*
X115876390Y-99056809D01*
X115876383Y-99056798D01*
X115876066Y-99056094D01*
X115874812Y-99054076D01*
X115811804Y-98944944D01*
X115810503Y-98942690D01*
X115810501Y-98942688D01*
X115810500Y-98942686D01*
X115717314Y-98849500D01*
X115717311Y-98849498D01*
X115717309Y-98849496D01*
X115710351Y-98845479D01*
X115660476Y-98816683D01*
X115639442Y-98793322D01*
X115553799Y-98770375D01*
X115553798Y-98770374D01*
X115496766Y-98755093D01*
X115475892Y-98749500D01*
X115475891Y-98749500D01*
X115344109Y-98749500D01*
X115344108Y-98749500D01*
X115320107Y-98755931D01*
X115266199Y-98770375D01*
X115266198Y-98770374D01*
X115216807Y-98783609D01*
X115216805Y-98783610D01*
X115105422Y-98847917D01*
X115105417Y-98847921D01*
X115102690Y-98849496D01*
X115102689Y-98849497D01*
X115102686Y-98849499D01*
X115102686Y-98849500D01*
X115090912Y-98861273D01*
X115090887Y-98861297D01*
X115018827Y-98933358D01*
X115004895Y-98944944D01*
X114979946Y-98962090D01*
X114923874Y-98979500D01*
X114154001Y-98979500D01*
X114123407Y-98974654D01*
X114100181Y-98967107D01*
X114060772Y-98942957D01*
X113997312Y-98879498D01*
X113940476Y-98846683D01*
X113919442Y-98823322D01*
X113833799Y-98800375D01*
X113833798Y-98800374D01*
X113771227Y-98783609D01*
X113755892Y-98779500D01*
X113755891Y-98779500D01*
X113624109Y-98779500D01*
X113624108Y-98779500D01*
X113585154Y-98789937D01*
X113546199Y-98800375D01*
X113546198Y-98800374D01*
X113496807Y-98813609D01*
X113496805Y-98813610D01*
X113382694Y-98879492D01*
X113289492Y-98972694D01*
X113223610Y-99086805D01*
X113223609Y-99086807D01*
X113213510Y-99124494D01*
X113213511Y-99124495D01*
X113189500Y-99214108D01*
X113189500Y-99345891D01*
X113210375Y-99423800D01*
X113210376Y-99423802D01*
X113219078Y-99456283D01*
X113220286Y-99461318D01*
X113227973Y-99497479D01*
X113221579Y-99558329D01*
X113180648Y-99603794D01*
X113176430Y-99606230D01*
X113126919Y-99619500D01*
X112610434Y-99619500D01*
X112563662Y-99632031D01*
X112563663Y-99632032D01*
X112534006Y-99639979D01*
X112465491Y-99679536D01*
X112465483Y-99679544D01*
X112345610Y-99799416D01*
X112320554Y-99817620D01*
X112298794Y-99828708D01*
X112253847Y-99839500D01*
X112164108Y-99839500D01*
X112125154Y-99849937D01*
X112086199Y-99860375D01*
X112086198Y-99860374D01*
X112036807Y-99873609D01*
X112036805Y-99873610D01*
X111922694Y-99939492D01*
X111829495Y-100032691D01*
X111763609Y-100146808D01*
X111763609Y-100146809D01*
X111749352Y-100200019D01*
X111745705Y-100213632D01*
X111735448Y-100251909D01*
X111735447Y-100251912D01*
X111732930Y-100261309D01*
X111729500Y-100274109D01*
X111729500Y-100342096D01*
X111729285Y-100345356D01*
X111727930Y-100348746D01*
X111724654Y-100369433D01*
X111717107Y-100392660D01*
X111692957Y-100432071D01*
X111595611Y-100529417D01*
X111570554Y-100547621D01*
X111548796Y-100558708D01*
X111503849Y-100569500D01*
X110960433Y-100569500D01*
X110957366Y-100569904D01*
X110950710Y-100571228D01*
X110937963Y-100572907D01*
X110925035Y-100573755D01*
X107355414Y-100573755D01*
X107324821Y-100568909D01*
X107301594Y-100561362D01*
X107262183Y-100537212D01*
X106945470Y-100220499D01*
X106945470Y-100220498D01*
X106614512Y-99889541D01*
X106614502Y-99889532D01*
X106545999Y-99849983D01*
X106545987Y-99849977D01*
X106502335Y-99838281D01*
X106469564Y-99829500D01*
X106469562Y-99829500D01*
X106095180Y-99829500D01*
X106064587Y-99824654D01*
X106051901Y-99820532D01*
X106002401Y-99784568D01*
X106002394Y-99784558D01*
X105999400Y-99780436D01*
X105980500Y-99722256D01*
X105980500Y-99710254D01*
X105980500Y-99710253D01*
X105980498Y-99710241D01*
X105974391Y-99679540D01*
X105973322Y-99674164D01*
X105973322Y-99674163D01*
X105970203Y-99658484D01*
X105968867Y-99651769D01*
X105955678Y-99632031D01*
X105924554Y-99585451D01*
X105924552Y-99585448D01*
X105924548Y-99585445D01*
X105920208Y-99582545D01*
X105920204Y-99582543D01*
X105917147Y-99580500D01*
X105858233Y-99541134D01*
X105858231Y-99541133D01*
X105858228Y-99541132D01*
X105858227Y-99541132D01*
X105840897Y-99537684D01*
X105840896Y-99537684D01*
X105799768Y-99529503D01*
X105799758Y-99529501D01*
X105799753Y-99529500D01*
X105799750Y-99529500D01*
X105799748Y-99529500D01*
X104260252Y-99529500D01*
X104260251Y-99529500D01*
X104260245Y-99529500D01*
X104201778Y-99541130D01*
X104201763Y-99541135D01*
X104135454Y-99585442D01*
X104135442Y-99585454D01*
X104091135Y-99651763D01*
X104091130Y-99651778D01*
X104079500Y-99710245D01*
X104079500Y-99710253D01*
X104079500Y-100549746D01*
X104079501Y-100549758D01*
X104080514Y-100554848D01*
X104081809Y-100561362D01*
X104083604Y-100570382D01*
X104091133Y-100608231D01*
X104091134Y-100608232D01*
X104101208Y-100623309D01*
X104106169Y-100638811D01*
X104106161Y-100640402D01*
X104107162Y-100642109D01*
X104110792Y-100654978D01*
X104109664Y-100712448D01*
X104106567Y-100721979D01*
X104094731Y-100746383D01*
X104091134Y-100751766D01*
X104091131Y-100751777D01*
X104079500Y-100810245D01*
X104079500Y-101649753D01*
X104091130Y-101708220D01*
X104091131Y-101708224D01*
X104091132Y-101708227D01*
X104091134Y-101708231D01*
X104091135Y-101708235D01*
X104103259Y-101726379D01*
X104135445Y-101774548D01*
X104135448Y-101774552D01*
X104201769Y-101818867D01*
X104224000Y-101823289D01*
X104246228Y-101827711D01*
X104246231Y-101827711D01*
X104254159Y-101829288D01*
X104256324Y-101829861D01*
X104258514Y-101830217D01*
X104260081Y-101830500D01*
X104260252Y-101830500D01*
X104260253Y-101830500D01*
X105799747Y-101830500D01*
X105799748Y-101830500D01*
X105858231Y-101818867D01*
X105924552Y-101774552D01*
X105968867Y-101708231D01*
X105980500Y-101649748D01*
X105980500Y-100810252D01*
X105980350Y-100809500D01*
X105973127Y-100773186D01*
X105968867Y-100751769D01*
X105958025Y-100735543D01*
X105953761Y-100721140D01*
X105953772Y-100720706D01*
X105953408Y-100719918D01*
X105948235Y-100701575D01*
X105950634Y-100640443D01*
X105961205Y-100619697D01*
X105968867Y-100608231D01*
X105980500Y-100549748D01*
X105980500Y-100538464D01*
X105990804Y-100495942D01*
X105990976Y-100494611D01*
X105991285Y-100493958D01*
X105991483Y-100493142D01*
X105993641Y-100488950D01*
X105993709Y-100488845D01*
X105993731Y-100488774D01*
X105994589Y-100487110D01*
X106015209Y-100466664D01*
X106029802Y-100451204D01*
X106028861Y-100449908D01*
X106029573Y-100449391D01*
X106032372Y-100448481D01*
X106035134Y-100445556D01*
X106035171Y-100445536D01*
X106039595Y-100443121D01*
X106039932Y-100443739D01*
X106053328Y-100441676D01*
X106087742Y-100430500D01*
X106248841Y-100430500D01*
X106279432Y-100435345D01*
X106291769Y-100439353D01*
X106302658Y-100442891D01*
X106342071Y-100467042D01*
X106989744Y-101114715D01*
X106989745Y-101114715D01*
X106989853Y-101114823D01*
X106990104Y-101115009D01*
X106992295Y-101116189D01*
X107001495Y-101121500D01*
X107023087Y-101145481D01*
X107057413Y-101154063D01*
X107058986Y-101154469D01*
X107134693Y-101174755D01*
X107134695Y-101174755D01*
X111035302Y-101174755D01*
X111035306Y-101174755D01*
X111035307Y-101174755D01*
X111035311Y-101174754D01*
X111035311Y-101174753D01*
X111036825Y-101174567D01*
X111044700Y-101173070D01*
X111057790Y-101171347D01*
X111070710Y-101170500D01*
X111733293Y-101170500D01*
X111745185Y-101163633D01*
X111795989Y-101150021D01*
X111864511Y-101110460D01*
X111920460Y-101054511D01*
X112094385Y-100880583D01*
X112119445Y-100862377D01*
X112141205Y-100851290D01*
X112186149Y-100840500D01*
X112295890Y-100840500D01*
X112295892Y-100840500D01*
X112423186Y-100806392D01*
X112423188Y-100806390D01*
X112423190Y-100806390D01*
X112531190Y-100744035D01*
X112534067Y-100742639D01*
X112534853Y-100742122D01*
X112539862Y-100739028D01*
X112541161Y-100738277D01*
X112546519Y-100731294D01*
X112630500Y-100647314D01*
X112653067Y-100608227D01*
X112696390Y-100533190D01*
X112696390Y-100533188D01*
X112696392Y-100533186D01*
X112730500Y-100405892D01*
X112730500Y-100335180D01*
X112735343Y-100304594D01*
X112739465Y-100291905D01*
X112775423Y-100242406D01*
X112776022Y-100241971D01*
X112779563Y-100239400D01*
X112837743Y-100220500D01*
X113062476Y-100220500D01*
X113093064Y-100225343D01*
X113103901Y-100228865D01*
X113153401Y-100264826D01*
X113172311Y-100323016D01*
X113172311Y-100327892D01*
X113159045Y-100377396D01*
X113153608Y-100386810D01*
X113153608Y-100386812D01*
X113143503Y-100424525D01*
X113119500Y-100514108D01*
X113119500Y-100645892D01*
X113119881Y-100647314D01*
X113143376Y-100735002D01*
X113153607Y-100773185D01*
X113153610Y-100773193D01*
X113219495Y-100887309D01*
X113279418Y-100947233D01*
X113297623Y-100972290D01*
X113308709Y-100994047D01*
X113319500Y-101038993D01*
X113319500Y-101878840D01*
X113314654Y-101909433D01*
X113307107Y-101932660D01*
X113282957Y-101972070D01*
X113169377Y-102085650D01*
X113148875Y-102101380D01*
X113127071Y-102113968D01*
X113103198Y-102123857D01*
X113066813Y-102133607D01*
X113066810Y-102133608D01*
X112971992Y-102188352D01*
X112943076Y-102199452D01*
X112930026Y-102202226D01*
X112869176Y-102195831D01*
X112869175Y-102195830D01*
X112867510Y-102195089D01*
X112826956Y-102161795D01*
X112802171Y-102126722D01*
X112800706Y-102124590D01*
X112785197Y-102101380D01*
X112774554Y-102085451D01*
X112774552Y-102085448D01*
X112731328Y-102056566D01*
X112708233Y-102041134D01*
X112708231Y-102041133D01*
X112708228Y-102041132D01*
X112708227Y-102041132D01*
X112693238Y-102038150D01*
X112649768Y-102029503D01*
X112649758Y-102029501D01*
X112649753Y-102029500D01*
X112649750Y-102029500D01*
X112649748Y-102029500D01*
X111110252Y-102029500D01*
X111110251Y-102029500D01*
X111110245Y-102029500D01*
X111051778Y-102041130D01*
X111051763Y-102041135D01*
X110985454Y-102085442D01*
X110985442Y-102085454D01*
X110941135Y-102151763D01*
X110941130Y-102151778D01*
X110929500Y-102210245D01*
X110929500Y-102335920D01*
X110910593Y-102394111D01*
X110861093Y-102430075D01*
X110830500Y-102434920D01*
X109930000Y-102434920D01*
X109930000Y-102930000D01*
X110830500Y-102930000D01*
X110888691Y-102948907D01*
X110924655Y-102998407D01*
X110929500Y-103029000D01*
X110929500Y-103399753D01*
X110941131Y-103458224D01*
X110941133Y-103458231D01*
X110985448Y-103524552D01*
X111051769Y-103568867D01*
X111074000Y-103573289D01*
X111096228Y-103577711D01*
X111096231Y-103577711D01*
X111104159Y-103579288D01*
X111106324Y-103579861D01*
X111108514Y-103580217D01*
X111110081Y-103580500D01*
X111110252Y-103580500D01*
X111110253Y-103580500D01*
X112649747Y-103580500D01*
X112649748Y-103580500D01*
X112708231Y-103568867D01*
X112774552Y-103524552D01*
X112818867Y-103458231D01*
X112830500Y-103399748D01*
X112830500Y-103117109D01*
X112835347Y-103086512D01*
X112838868Y-103075677D01*
X112874834Y-103026179D01*
X112933021Y-103007274D01*
X112937890Y-103007274D01*
X112987390Y-103020538D01*
X113010040Y-103033615D01*
X113031633Y-103057596D01*
X113065944Y-103066174D01*
X113067548Y-103066588D01*
X113194108Y-103100500D01*
X113194110Y-103100500D01*
X113325890Y-103100500D01*
X113325892Y-103100500D01*
X113453186Y-103066392D01*
X113453188Y-103066390D01*
X113453190Y-103066390D01*
X113561190Y-103004035D01*
X113564067Y-103002639D01*
X113564853Y-103002122D01*
X113569862Y-102999028D01*
X113571161Y-102998277D01*
X113576519Y-102991294D01*
X113660500Y-102907314D01*
X113680090Y-102873384D01*
X113726390Y-102793190D01*
X113726390Y-102793188D01*
X113726392Y-102793186D01*
X113760500Y-102665892D01*
X113760500Y-102534108D01*
X113739274Y-102454892D01*
X113736038Y-102424095D01*
X113737078Y-102404235D01*
X113752010Y-102356915D01*
X113752660Y-102355876D01*
X113766570Y-102338398D01*
X113860460Y-102244511D01*
X113865669Y-102235489D01*
X113900021Y-102175989D01*
X113920500Y-102099562D01*
X113920500Y-101044001D01*
X113925345Y-101013410D01*
X113932892Y-100990181D01*
X113957040Y-100950772D01*
X114020500Y-100887314D01*
X114041129Y-100851584D01*
X114086390Y-100773190D01*
X114086390Y-100773188D01*
X114086392Y-100773186D01*
X114120500Y-100645892D01*
X114120500Y-100514108D01*
X114086392Y-100386814D01*
X114083946Y-100382577D01*
X114072847Y-100353665D01*
X114071081Y-100345356D01*
X114070478Y-100342520D01*
X114076871Y-100281672D01*
X114117806Y-100236204D01*
X114122056Y-100233750D01*
X114171534Y-100220500D01*
X114331000Y-100220500D01*
X114389191Y-100239407D01*
X114425155Y-100288907D01*
X114430000Y-100319500D01*
X114430000Y-103130000D01*
X114430001Y-103130000D01*
X115863570Y-103130000D01*
X115902430Y-103137946D01*
X115910908Y-103141564D01*
X115951769Y-103168867D01*
X115984970Y-103175471D01*
X115995056Y-103177477D01*
X115995058Y-103177478D01*
X116004153Y-103179287D01*
X116006322Y-103179861D01*
X116008518Y-103180218D01*
X116008517Y-103180218D01*
X116010229Y-103180495D01*
X116010241Y-103180498D01*
X116010244Y-103180498D01*
X116010248Y-103180498D01*
X116010252Y-103180500D01*
X116010253Y-103180500D01*
X117199747Y-103180500D01*
X117199748Y-103180500D01*
X117258231Y-103168867D01*
X117324552Y-103124552D01*
X117368867Y-103058231D01*
X117380500Y-102999748D01*
X117380500Y-101460252D01*
X117368867Y-101401769D01*
X117324552Y-101335448D01*
X117324548Y-101335445D01*
X117258233Y-101291134D01*
X117258234Y-101291134D01*
X117258232Y-101291133D01*
X117258227Y-101291131D01*
X117258025Y-101291063D01*
X117256488Y-101290786D01*
X117199768Y-101279503D01*
X117199758Y-101279501D01*
X117199753Y-101279500D01*
X117199750Y-101279500D01*
X117199748Y-101279500D01*
X116010252Y-101279500D01*
X116010251Y-101279500D01*
X116010245Y-101279500D01*
X115966104Y-101288280D01*
X115953512Y-101290786D01*
X115952084Y-101291070D01*
X115891323Y-101283878D01*
X115846393Y-101242346D01*
X115833770Y-101193972D01*
X115833770Y-100319500D01*
X115852677Y-100261309D01*
X115902177Y-100225345D01*
X115932770Y-100220500D01*
X117303293Y-100220500D01*
X117315185Y-100213633D01*
X117365989Y-100200021D01*
X117434511Y-100160460D01*
X117462485Y-100132485D01*
X117490461Y-100104511D01*
X118447789Y-99147180D01*
X118472840Y-99128978D01*
X118489761Y-99120357D01*
X118539876Y-99109704D01*
X118544115Y-99109926D01*
X118564546Y-99113162D01*
X118567585Y-99113977D01*
X118567587Y-99113977D01*
X118699367Y-99113977D01*
X118699369Y-99113977D01*
X118826663Y-99079869D01*
X118826665Y-99079867D01*
X118826667Y-99079867D01*
X118934667Y-99017512D01*
X118937544Y-99016116D01*
X118938330Y-99015599D01*
X118943339Y-99012505D01*
X118944636Y-99011755D01*
X118949992Y-99004775D01*
X119027393Y-98927374D01*
X119052437Y-98909178D01*
X119064330Y-98903119D01*
X119124757Y-98893548D01*
X119129796Y-98894346D01*
X119184308Y-98922122D01*
X119192159Y-98929973D01*
X119210364Y-98955031D01*
X119220755Y-98975425D01*
X119221450Y-98976788D01*
X119232241Y-99021734D01*
X119232241Y-103606099D01*
X119227395Y-103636692D01*
X119219848Y-103659919D01*
X119195698Y-103699330D01*
X119025611Y-103869417D01*
X119000554Y-103887621D01*
X118978796Y-103898708D01*
X118933849Y-103909500D01*
X104821159Y-103909500D01*
X104790566Y-103904654D01*
X104767339Y-103897107D01*
X104727928Y-103872957D01*
X103630582Y-102775611D01*
X103612376Y-102750552D01*
X103601288Y-102728790D01*
X103590500Y-102683848D01*
X103590500Y-96261159D01*
X103595344Y-96230570D01*
X103597155Y-96224997D01*
X103602891Y-96207339D01*
X103627040Y-96167930D01*
X103724391Y-96070579D01*
X103749443Y-96052378D01*
X103771210Y-96041288D01*
X103816151Y-96030500D01*
X103964820Y-96030500D01*
X103969087Y-96031175D01*
G37*
%TD.AperFunction*%
%TA.AperFunction,Conductor*%
G36*
X102860429Y-90685343D02*
G01*
X102870832Y-90688723D01*
X102920332Y-90724685D01*
X102939242Y-90782875D01*
X102924658Y-90834599D01*
X102921654Y-90839502D01*
X102907242Y-90857785D01*
X102809486Y-90955542D01*
X102809481Y-90955544D01*
X102724538Y-91040489D01*
X102684981Y-91109003D01*
X102684981Y-91109005D01*
X102684980Y-91109007D01*
X102684978Y-91109011D01*
X102684976Y-91109016D01*
X102684976Y-91109018D01*
X102664500Y-91185432D01*
X102664500Y-91715998D01*
X102659654Y-91746592D01*
X102652107Y-91769818D01*
X102627958Y-91809226D01*
X102596594Y-91840591D01*
X102596593Y-91840593D01*
X102564492Y-91872694D01*
X102498608Y-91986809D01*
X102498330Y-91987545D01*
X102497784Y-91989886D01*
X102464500Y-92114108D01*
X102464500Y-92245892D01*
X102465735Y-92250500D01*
X102498609Y-92373190D01*
X102498610Y-92373192D01*
X102498611Y-92373195D01*
X102564494Y-92487307D01*
X102564496Y-92487309D01*
X102564498Y-92487311D01*
X102564500Y-92487314D01*
X102657686Y-92580500D01*
X102657688Y-92580501D01*
X102657690Y-92580503D01*
X102658237Y-92580898D01*
X102660239Y-92581975D01*
X102680486Y-92593664D01*
X102715040Y-92613614D01*
X102736634Y-92637596D01*
X102770944Y-92646174D01*
X102772548Y-92646588D01*
X102899108Y-92680500D01*
X102899110Y-92680500D01*
X103030890Y-92680500D01*
X103030892Y-92680500D01*
X103158186Y-92646392D01*
X103158188Y-92646390D01*
X103158190Y-92646390D01*
X103266190Y-92584035D01*
X103269067Y-92582639D01*
X103269856Y-92582120D01*
X103274866Y-92579026D01*
X103276160Y-92578278D01*
X103281520Y-92571294D01*
X103293314Y-92559500D01*
X103332232Y-92520580D01*
X103357290Y-92502375D01*
X103379055Y-92491287D01*
X103423994Y-92480500D01*
X105268841Y-92480500D01*
X105299432Y-92485345D01*
X105311769Y-92489353D01*
X105322658Y-92492891D01*
X105362071Y-92517042D01*
X105594438Y-92749409D01*
X105612645Y-92774470D01*
X105617609Y-92784213D01*
X105627179Y-92844645D01*
X105599400Y-92899161D01*
X105552521Y-92925418D01*
X105546926Y-92926762D01*
X105523803Y-92929500D01*
X104260245Y-92929500D01*
X104201778Y-92941130D01*
X104201763Y-92941135D01*
X104135454Y-92985442D01*
X104135442Y-92985454D01*
X104091135Y-93051763D01*
X104091130Y-93051778D01*
X104079500Y-93110245D01*
X104079500Y-93110253D01*
X104079500Y-93949746D01*
X104079501Y-93949758D01*
X104089889Y-94001977D01*
X104091133Y-94008231D01*
X104094726Y-94013608D01*
X104099250Y-94020378D01*
X104103055Y-94029763D01*
X104103278Y-94032899D01*
X104106592Y-94040087D01*
X104110792Y-94054981D01*
X104109664Y-94112448D01*
X104106567Y-94121979D01*
X104094731Y-94146383D01*
X104091134Y-94151766D01*
X104091131Y-94151777D01*
X104079500Y-94210245D01*
X104079500Y-95049753D01*
X104091131Y-95108223D01*
X104091133Y-95108232D01*
X104097763Y-95119941D01*
X104095064Y-95121468D01*
X104107162Y-95142109D01*
X104111763Y-95158421D01*
X104109363Y-95219560D01*
X104098798Y-95240297D01*
X104091132Y-95251769D01*
X104079500Y-95310249D01*
X104079500Y-95321533D01*
X104069178Y-95364104D01*
X104069009Y-95365419D01*
X104068704Y-95366060D01*
X104068508Y-95366872D01*
X104066347Y-95371066D01*
X104066289Y-95371157D01*
X104066269Y-95371217D01*
X104065400Y-95372905D01*
X104044865Y-95393256D01*
X104030220Y-95408764D01*
X104031168Y-95410068D01*
X104030458Y-95410584D01*
X104027636Y-95411501D01*
X104024856Y-95414446D01*
X104020430Y-95416864D01*
X104020099Y-95416259D01*
X104006624Y-95418331D01*
X103972270Y-95429500D01*
X103600434Y-95429500D01*
X103553662Y-95442031D01*
X103553663Y-95442032D01*
X103524006Y-95449979D01*
X103455492Y-95489536D01*
X103049538Y-95895490D01*
X103031165Y-95927314D01*
X103009980Y-95964007D01*
X103009978Y-95964011D01*
X103005559Y-95980502D01*
X102989500Y-96040432D01*
X102989500Y-101664819D01*
X102984654Y-101695412D01*
X102980532Y-101708098D01*
X102944580Y-101757589D01*
X102940459Y-101760584D01*
X102882271Y-101779500D01*
X101269458Y-101779500D01*
X101248224Y-101777196D01*
X101230842Y-101773379D01*
X101178076Y-101742448D01*
X101176301Y-101740450D01*
X101153394Y-101694925D01*
X101152590Y-101691076D01*
X101150500Y-101670842D01*
X101150500Y-90794600D01*
X101155343Y-90764014D01*
X101157464Y-90757486D01*
X101159465Y-90751325D01*
X101195423Y-90701826D01*
X101197591Y-90700251D01*
X101245109Y-90681924D01*
X101252938Y-90681075D01*
X101263595Y-90680500D01*
X102829841Y-90680500D01*
X102860429Y-90685343D01*
G37*
%TD.AperFunction*%
%TD*%
M02*
