%TF.GenerationSoftware,KiCad,Pcbnew,10.99.0-unknown-ab00e101b5~187~ubuntu24.04.1*%
%TF.CreationDate,2026-04-04T19:48:34-04:00*%
%TF.ProjectId,PWMWatch,50574d57-6174-4636-982e-6b696361645f,rev?*%
%TF.SameCoordinates,Original*%
%TF.FileFunction,Legend,Top*%
%TF.FilePolarity,Positive*%
%FSLAX46Y46*%
G04 Gerber Fmt 4.6, Leading zero omitted, Abs format (unit mm)*
G04 Created by KiCad (PCBNEW 10.99.0-unknown-ab00e101b5~187~ubuntu24.04.1) date 2026-04-04 19:48:34*
%MOMM*%
%LPD*%
G01*
G04 APERTURE LIST*
%ADD10C,0.100000*%
%ADD11C,0.150000*%
%ADD12C,0.120000*%
%ADD13C,0.200000*%
%ADD14C,0.127000*%
%ADD15C,0.508000*%
G04 APERTURE END LIST*
D10*
X129162455Y-110332419D02*
X129162455Y-109808609D01*
X129162455Y-109808609D02*
X129114836Y-109713371D01*
X129114836Y-109713371D02*
X129019598Y-109665752D01*
X129019598Y-109665752D02*
X128829122Y-109665752D01*
X128829122Y-109665752D02*
X128733884Y-109713371D01*
X129162455Y-110284800D02*
X129067217Y-110332419D01*
X129067217Y-110332419D02*
X128829122Y-110332419D01*
X128829122Y-110332419D02*
X128733884Y-110284800D01*
X128733884Y-110284800D02*
X128686265Y-110189561D01*
X128686265Y-110189561D02*
X128686265Y-110094323D01*
X128686265Y-110094323D02*
X128733884Y-109999085D01*
X128733884Y-109999085D02*
X128829122Y-109951466D01*
X128829122Y-109951466D02*
X129067217Y-109951466D01*
X129067217Y-109951466D02*
X129162455Y-109903847D01*
X129591027Y-110284800D02*
X129686265Y-110332419D01*
X129686265Y-110332419D02*
X129876741Y-110332419D01*
X129876741Y-110332419D02*
X129971979Y-110284800D01*
X129971979Y-110284800D02*
X130019598Y-110189561D01*
X130019598Y-110189561D02*
X130019598Y-110141942D01*
X130019598Y-110141942D02*
X129971979Y-110046704D01*
X129971979Y-110046704D02*
X129876741Y-109999085D01*
X129876741Y-109999085D02*
X129733884Y-109999085D01*
X129733884Y-109999085D02*
X129638646Y-109951466D01*
X129638646Y-109951466D02*
X129591027Y-109856228D01*
X129591027Y-109856228D02*
X129591027Y-109808609D01*
X129591027Y-109808609D02*
X129638646Y-109713371D01*
X129638646Y-109713371D02*
X129733884Y-109665752D01*
X129733884Y-109665752D02*
X129876741Y-109665752D01*
X129876741Y-109665752D02*
X129971979Y-109713371D01*
X130876741Y-110332419D02*
X130876741Y-109808609D01*
X130876741Y-109808609D02*
X130829122Y-109713371D01*
X130829122Y-109713371D02*
X130733884Y-109665752D01*
X130733884Y-109665752D02*
X130543408Y-109665752D01*
X130543408Y-109665752D02*
X130448170Y-109713371D01*
X130876741Y-110284800D02*
X130781503Y-110332419D01*
X130781503Y-110332419D02*
X130543408Y-110332419D01*
X130543408Y-110332419D02*
X130448170Y-110284800D01*
X130448170Y-110284800D02*
X130400551Y-110189561D01*
X130400551Y-110189561D02*
X130400551Y-110094323D01*
X130400551Y-110094323D02*
X130448170Y-109999085D01*
X130448170Y-109999085D02*
X130543408Y-109951466D01*
X130543408Y-109951466D02*
X130781503Y-109951466D01*
X130781503Y-109951466D02*
X130876741Y-109903847D01*
X131781503Y-110332419D02*
X131781503Y-109332419D01*
X131781503Y-110284800D02*
X131686265Y-110332419D01*
X131686265Y-110332419D02*
X131495789Y-110332419D01*
X131495789Y-110332419D02*
X131400551Y-110284800D01*
X131400551Y-110284800D02*
X131352932Y-110237180D01*
X131352932Y-110237180D02*
X131305313Y-110141942D01*
X131305313Y-110141942D02*
X131305313Y-109856228D01*
X131305313Y-109856228D02*
X131352932Y-109760990D01*
X131352932Y-109760990D02*
X131400551Y-109713371D01*
X131400551Y-109713371D02*
X131495789Y-109665752D01*
X131495789Y-109665752D02*
X131686265Y-109665752D01*
X131686265Y-109665752D02*
X131781503Y-109713371D01*
X132257694Y-109665752D02*
X132257694Y-110665752D01*
X132257694Y-109713371D02*
X132352932Y-109665752D01*
X132352932Y-109665752D02*
X132543408Y-109665752D01*
X132543408Y-109665752D02*
X132638646Y-109713371D01*
X132638646Y-109713371D02*
X132686265Y-109760990D01*
X132686265Y-109760990D02*
X132733884Y-109856228D01*
X132733884Y-109856228D02*
X132733884Y-110141942D01*
X132733884Y-110141942D02*
X132686265Y-110237180D01*
X132686265Y-110237180D02*
X132638646Y-110284800D01*
X132638646Y-110284800D02*
X132543408Y-110332419D01*
X132543408Y-110332419D02*
X132352932Y-110332419D01*
X132352932Y-110332419D02*
X132257694Y-110284800D01*
X133543408Y-110284800D02*
X133448170Y-110332419D01*
X133448170Y-110332419D02*
X133257694Y-110332419D01*
X133257694Y-110332419D02*
X133162456Y-110284800D01*
X133162456Y-110284800D02*
X133114837Y-110189561D01*
X133114837Y-110189561D02*
X133114837Y-109808609D01*
X133114837Y-109808609D02*
X133162456Y-109713371D01*
X133162456Y-109713371D02*
X133257694Y-109665752D01*
X133257694Y-109665752D02*
X133448170Y-109665752D01*
X133448170Y-109665752D02*
X133543408Y-109713371D01*
X133543408Y-109713371D02*
X133591027Y-109808609D01*
X133591027Y-109808609D02*
X133591027Y-109903847D01*
X133591027Y-109903847D02*
X133114837Y-109999085D01*
X133876742Y-109665752D02*
X134257694Y-109665752D01*
X134019599Y-109332419D02*
X134019599Y-110189561D01*
X134019599Y-110189561D02*
X134067218Y-110284800D01*
X134067218Y-110284800D02*
X134162456Y-110332419D01*
X134162456Y-110332419D02*
X134257694Y-110332419D01*
X134495790Y-109665752D02*
X134686266Y-110332419D01*
X134686266Y-110332419D02*
X134876742Y-109856228D01*
X134876742Y-109856228D02*
X135067218Y-110332419D01*
X135067218Y-110332419D02*
X135257694Y-109665752D01*
X136067218Y-110332419D02*
X136067218Y-109808609D01*
X136067218Y-109808609D02*
X136019599Y-109713371D01*
X136019599Y-109713371D02*
X135924361Y-109665752D01*
X135924361Y-109665752D02*
X135733885Y-109665752D01*
X135733885Y-109665752D02*
X135638647Y-109713371D01*
X136067218Y-110284800D02*
X135971980Y-110332419D01*
X135971980Y-110332419D02*
X135733885Y-110332419D01*
X135733885Y-110332419D02*
X135638647Y-110284800D01*
X135638647Y-110284800D02*
X135591028Y-110189561D01*
X135591028Y-110189561D02*
X135591028Y-110094323D01*
X135591028Y-110094323D02*
X135638647Y-109999085D01*
X135638647Y-109999085D02*
X135733885Y-109951466D01*
X135733885Y-109951466D02*
X135971980Y-109951466D01*
X135971980Y-109951466D02*
X136067218Y-109903847D01*
X136686266Y-110332419D02*
X136591028Y-110284800D01*
X136591028Y-110284800D02*
X136543409Y-110189561D01*
X136543409Y-110189561D02*
X136543409Y-109332419D01*
X137067219Y-110332419D02*
X137067219Y-109332419D01*
X137162457Y-109951466D02*
X137448171Y-110332419D01*
X137448171Y-109665752D02*
X137067219Y-110046704D01*
X138257695Y-110284800D02*
X138162457Y-110332419D01*
X138162457Y-110332419D02*
X137971981Y-110332419D01*
X137971981Y-110332419D02*
X137876743Y-110284800D01*
X137876743Y-110284800D02*
X137829124Y-110189561D01*
X137829124Y-110189561D02*
X137829124Y-109808609D01*
X137829124Y-109808609D02*
X137876743Y-109713371D01*
X137876743Y-109713371D02*
X137971981Y-109665752D01*
X137971981Y-109665752D02*
X138162457Y-109665752D01*
X138162457Y-109665752D02*
X138257695Y-109713371D01*
X138257695Y-109713371D02*
X138305314Y-109808609D01*
X138305314Y-109808609D02*
X138305314Y-109903847D01*
X138305314Y-109903847D02*
X137829124Y-109999085D01*
X138733886Y-110332419D02*
X138733886Y-109665752D01*
X138733886Y-109856228D02*
X138781505Y-109760990D01*
X138781505Y-109760990D02*
X138829124Y-109713371D01*
X138829124Y-109713371D02*
X138924362Y-109665752D01*
X138924362Y-109665752D02*
X139019600Y-109665752D01*
X140162458Y-109332419D02*
X140067220Y-109522895D01*
X140543410Y-109427657D02*
X140591029Y-109380038D01*
X140591029Y-109380038D02*
X140686267Y-109332419D01*
X140686267Y-109332419D02*
X140924362Y-109332419D01*
X140924362Y-109332419D02*
X141019600Y-109380038D01*
X141019600Y-109380038D02*
X141067219Y-109427657D01*
X141067219Y-109427657D02*
X141114838Y-109522895D01*
X141114838Y-109522895D02*
X141114838Y-109618133D01*
X141114838Y-109618133D02*
X141067219Y-109760990D01*
X141067219Y-109760990D02*
X140495791Y-110332419D01*
X140495791Y-110332419D02*
X141114838Y-110332419D01*
X141448172Y-109332419D02*
X142114838Y-109332419D01*
X142114838Y-109332419D02*
X141686267Y-110332419D01*
D11*
X109873333Y-112569580D02*
X109825714Y-112617200D01*
X109825714Y-112617200D02*
X109682857Y-112664819D01*
X109682857Y-112664819D02*
X109587619Y-112664819D01*
X109587619Y-112664819D02*
X109444762Y-112617200D01*
X109444762Y-112617200D02*
X109349524Y-112521961D01*
X109349524Y-112521961D02*
X109301905Y-112426723D01*
X109301905Y-112426723D02*
X109254286Y-112236247D01*
X109254286Y-112236247D02*
X109254286Y-112093390D01*
X109254286Y-112093390D02*
X109301905Y-111902914D01*
X109301905Y-111902914D02*
X109349524Y-111807676D01*
X109349524Y-111807676D02*
X109444762Y-111712438D01*
X109444762Y-111712438D02*
X109587619Y-111664819D01*
X109587619Y-111664819D02*
X109682857Y-111664819D01*
X109682857Y-111664819D02*
X109825714Y-111712438D01*
X109825714Y-111712438D02*
X109873333Y-111760057D01*
X110873333Y-112569580D02*
X110825714Y-112617200D01*
X110825714Y-112617200D02*
X110682857Y-112664819D01*
X110682857Y-112664819D02*
X110587619Y-112664819D01*
X110587619Y-112664819D02*
X110444762Y-112617200D01*
X110444762Y-112617200D02*
X110349524Y-112521961D01*
X110349524Y-112521961D02*
X110301905Y-112426723D01*
X110301905Y-112426723D02*
X110254286Y-112236247D01*
X110254286Y-112236247D02*
X110254286Y-112093390D01*
X110254286Y-112093390D02*
X110301905Y-111902914D01*
X110301905Y-111902914D02*
X110349524Y-111807676D01*
X110349524Y-111807676D02*
X110444762Y-111712438D01*
X110444762Y-111712438D02*
X110587619Y-111664819D01*
X110587619Y-111664819D02*
X110682857Y-111664819D01*
X110682857Y-111664819D02*
X110825714Y-111712438D01*
X110825714Y-111712438D02*
X110873333Y-111760057D01*
X111825714Y-112664819D02*
X111254286Y-112664819D01*
X111540000Y-112664819D02*
X111540000Y-111664819D01*
X111540000Y-111664819D02*
X111444762Y-111807676D01*
X111444762Y-111807676D02*
X111349524Y-111902914D01*
X111349524Y-111902914D02*
X111254286Y-111950533D01*
%TO.C,D4*%
D12*
X136815000Y-105165000D02*
X136815000Y-107450000D01*
X138285000Y-105165000D02*
X136815000Y-105165000D01*
X138285000Y-107450000D02*
X138285000Y-105165000D01*
%TO.C,R29*%
X123297500Y-88087742D02*
X123297500Y-88562258D01*
X124342500Y-88087742D02*
X124342500Y-88562258D01*
%TO.C,R14*%
X139447742Y-100177500D02*
X139922258Y-100177500D01*
X139447742Y-101222500D02*
X139922258Y-101222500D01*
%TO.C,C5*%
X116218748Y-94065000D02*
X116741252Y-94065000D01*
X116218748Y-95535000D02*
X116741252Y-95535000D01*
%TO.C,U2*%
X127320000Y-88115000D02*
X127370000Y-88115000D01*
X127320000Y-89885000D02*
X127320000Y-88115000D01*
X127370000Y-89885000D02*
X127320000Y-89885000D01*
X129270000Y-89885000D02*
X128490000Y-89885000D01*
X130390000Y-88115000D02*
X130440000Y-88115000D01*
X130440000Y-88115000D02*
X130440000Y-89885000D01*
X130440000Y-89885000D02*
X130390000Y-89885000D01*
X130720000Y-87810000D02*
X130390000Y-87570000D01*
X130720000Y-87330000D01*
X130720000Y-87810000D01*
G36*
X130720000Y-87810000D02*
G01*
X130390000Y-87570000D01*
X130720000Y-87330000D01*
X130720000Y-87810000D01*
G37*
%TO.C,MAX1*%
X132805000Y-97445568D02*
X132805000Y-95640000D01*
X135075000Y-95640000D02*
X135075000Y-97860000D01*
X132800000Y-97740000D02*
X132610000Y-97880000D01*
X132610000Y-97600000D01*
X132800000Y-97740000D01*
G36*
X132800000Y-97740000D02*
G01*
X132610000Y-97880000D01*
X132610000Y-97600000D01*
X132800000Y-97740000D01*
G37*
%TO.C,C3*%
X119138748Y-89895000D02*
X119661252Y-89895000D01*
X119138748Y-91365000D02*
X119661252Y-91365000D01*
%TO.C,U3*%
X134470000Y-98570000D02*
X136690000Y-98570000D01*
X136279252Y-100790000D02*
X134470000Y-100790000D01*
X136710000Y-100990000D02*
X136430000Y-100990000D01*
X136570000Y-100800000D01*
X136710000Y-100990000D01*
G36*
X136710000Y-100990000D02*
G01*
X136430000Y-100990000D01*
X136570000Y-100800000D01*
X136710000Y-100990000D01*
G37*
%TO.C,R15*%
X138532742Y-86307500D02*
X139007258Y-86307500D01*
X138532742Y-87352500D02*
X139007258Y-87352500D01*
%TO.C,R6*%
X121020000Y-87847742D02*
X121020000Y-88322258D01*
X122065000Y-87847742D02*
X122065000Y-88322258D01*
%TO.C,R13*%
X104647500Y-86387742D02*
X104647500Y-86862258D01*
X105692500Y-86387742D02*
X105692500Y-86862258D01*
%TO.C,R17*%
X111787500Y-98282742D02*
X111787500Y-98757258D01*
X112832500Y-98282742D02*
X112832500Y-98757258D01*
%TO.C,J1*%
X141940000Y-88450000D02*
X140240000Y-88450000D01*
X141940000Y-97790000D02*
X140240000Y-97790000D01*
%TO.C,R28*%
X132372258Y-104677500D02*
X131897742Y-104677500D01*
X132372258Y-105722500D02*
X131897742Y-105722500D01*
%TO.C,R3*%
X131019420Y-95710000D02*
X131300580Y-95710000D01*
X131019420Y-96730000D02*
X131300580Y-96730000D01*
%TO.C,D5*%
X125370000Y-106180000D02*
X125370000Y-108180000D01*
X125370000Y-106180000D02*
X129380000Y-106180000D01*
X125370000Y-108180000D02*
X129380000Y-108180000D01*
%TO.C,C24*%
X135161252Y-82895000D02*
X134638748Y-82895000D01*
X135161252Y-84365000D02*
X134638748Y-84365000D01*
%TO.C,R4*%
X128375580Y-91750000D02*
X128094420Y-91750000D01*
X128375580Y-92770000D02*
X128094420Y-92770000D01*
%TO.C,C27*%
X132275580Y-103190000D02*
X131994420Y-103190000D01*
X132275580Y-104210000D02*
X131994420Y-104210000D01*
%TO.C,R5*%
X125017500Y-88077742D02*
X125017500Y-88552258D01*
X126062500Y-88077742D02*
X126062500Y-88552258D01*
%TO.C,U1*%
X118332189Y-96230000D02*
X118668065Y-95894124D01*
X118668065Y-96565876D02*
X118332189Y-96230000D01*
X123101624Y-91460565D02*
X123437500Y-91124689D01*
X123437500Y-91124689D02*
X123773376Y-91460565D01*
X123437500Y-101335311D02*
X123101624Y-100999435D01*
X123773376Y-100999435D02*
X123437500Y-101335311D01*
X128206935Y-95894124D02*
X128542811Y-96230000D01*
X128542811Y-96230000D02*
X128206935Y-96565876D01*
X122454622Y-91358034D02*
X122051571Y-91294395D01*
X122390982Y-90954983D01*
X122454622Y-91358034D01*
G36*
X122454622Y-91358034D02*
G01*
X122051571Y-91294395D01*
X122390982Y-90954983D01*
X122454622Y-91358034D01*
G37*
%TO.C,RV-1*%
D13*
X110720000Y-97330000D02*
G75*
G02*
X110520000Y-97330000I-100000J0D01*
G01*
X110520000Y-97330000D02*
G75*
G02*
X110720000Y-97330000I100000J0D01*
G01*
%TO.C,R2*%
D12*
X111450000Y-89359420D02*
X111450000Y-89640580D01*
X112470000Y-89359420D02*
X112470000Y-89640580D01*
%TO.C,R1*%
X114310000Y-101545580D02*
X114310000Y-101264420D01*
X115330000Y-101545580D02*
X115330000Y-101264420D01*
%TO.C,R31*%
X111532742Y-100887500D02*
X112007258Y-100887500D01*
X111532742Y-101932500D02*
X112007258Y-101932500D01*
%TO.C,C13*%
X114628748Y-103235000D02*
X115151252Y-103235000D01*
X114628748Y-104705000D02*
X115151252Y-104705000D01*
%TO.C,R24*%
X134912258Y-85177500D02*
X134437742Y-85177500D01*
X134912258Y-86222500D02*
X134437742Y-86222500D01*
%TO.C,R10*%
X117887500Y-87837742D02*
X117887500Y-88312258D01*
X118932500Y-87837742D02*
X118932500Y-88312258D01*
%TO.C,C4*%
X117888748Y-92005000D02*
X118411252Y-92005000D01*
X117888748Y-93475000D02*
X118411252Y-93475000D01*
%TO.C,C26*%
X108188748Y-100965000D02*
X108711252Y-100965000D01*
X108188748Y-102435000D02*
X108711252Y-102435000D01*
%TO.C,R8*%
X119437500Y-87842742D02*
X119437500Y-88317258D01*
X120482500Y-87842742D02*
X120482500Y-88317258D01*
%TO.C,C6*%
X116118748Y-96885000D02*
X116641252Y-96885000D01*
X116118748Y-98355000D02*
X116641252Y-98355000D01*
%TO.C,C11*%
X130531252Y-97425000D02*
X130008748Y-97425000D01*
X130531252Y-98895000D02*
X130008748Y-98895000D01*
%TO.C,R27*%
X133887500Y-106377742D02*
X133887500Y-106852258D01*
X134932500Y-106377742D02*
X134932500Y-106852258D01*
%TO.C,R16*%
X107257500Y-97732742D02*
X107257500Y-98207258D01*
X108302500Y-97732742D02*
X108302500Y-98207258D01*
%TO.C,C12*%
X129221252Y-99715000D02*
X128698748Y-99715000D01*
X129221252Y-101185000D02*
X128698748Y-101185000D01*
%TO.C,C7*%
X117248748Y-99115000D02*
X117771252Y-99115000D01*
X117248748Y-100585000D02*
X117771252Y-100585000D01*
%TO.C,C21*%
X132191252Y-106455000D02*
X131668748Y-106455000D01*
X132191252Y-107925000D02*
X131668748Y-107925000D01*
%TO.C,SW3*%
D14*
X100696500Y-87050000D02*
X100696500Y-86150000D01*
X100696500Y-89650000D02*
X100696500Y-88750000D01*
X103823500Y-86150000D02*
X103823500Y-89650000D01*
D13*
X103085000Y-84900000D02*
G75*
G02*
X102885000Y-84900000I-100000J0D01*
G01*
X102885000Y-84900000D02*
G75*
G02*
X103085000Y-84900000I100000J0D01*
G01*
%TO.C,Q1*%
D12*
X127280000Y-102642500D02*
X127330000Y-102642500D01*
X127280000Y-104462500D02*
X127280000Y-102642500D01*
X128280000Y-104462500D02*
X127280000Y-104462500D01*
X128450000Y-102642500D02*
X129230000Y-102642500D01*
X130350000Y-102642500D02*
X130400000Y-102642500D01*
X130400000Y-102642500D02*
X130400000Y-104462500D01*
X130400000Y-104462500D02*
X129400000Y-104462500D01*
X129220000Y-102102500D02*
X128890000Y-102342500D01*
X128890000Y-101862500D01*
X129220000Y-102102500D01*
G36*
X129220000Y-102102500D02*
G01*
X128890000Y-102342500D01*
X128890000Y-101862500D01*
X129220000Y-102102500D01*
G37*
%TO.C,R26*%
X135437500Y-106387742D02*
X135437500Y-106862258D01*
X136482500Y-106387742D02*
X136482500Y-106862258D01*
%TO.C,C10*%
X122635000Y-103601252D02*
X122635000Y-103078748D01*
X124105000Y-103601252D02*
X124105000Y-103078748D01*
%TO.C,C1*%
X110680000Y-84656252D02*
X110680000Y-83233748D01*
X112500000Y-84656252D02*
X112500000Y-83233748D01*
%TO.C,R18*%
X106877500Y-91352742D02*
X106877500Y-91827258D01*
X107922500Y-91352742D02*
X107922500Y-91827258D01*
%TO.C,SW1*%
X117120000Y-106810000D02*
X117120000Y-106910000D01*
X117120000Y-108410000D02*
X121520000Y-108410000D01*
X121520000Y-105310000D02*
X117120000Y-105310000D01*
X121520000Y-106810000D02*
X121520000Y-106910000D01*
%TO.C,AS1*%
X101040000Y-94100000D02*
X101135000Y-94100000D01*
X101040000Y-98220000D02*
X101040000Y-94100000D01*
X101135000Y-98220000D02*
X101040000Y-98220000D01*
X106065000Y-94100000D02*
X106160000Y-94100000D01*
X106160000Y-94100000D02*
X106160000Y-98220000D01*
X106160000Y-98220000D02*
X106065000Y-98220000D01*
X101130000Y-98760000D02*
X100800000Y-99000000D01*
X100800000Y-98520000D01*
X101130000Y-98760000D01*
G36*
X101130000Y-98760000D02*
G01*
X100800000Y-99000000D01*
X100800000Y-98520000D01*
X101130000Y-98760000D01*
G37*
%TO.C,C9*%
X120465000Y-103091252D02*
X120465000Y-102568748D01*
X121935000Y-103091252D02*
X121935000Y-102568748D01*
%TO.C,C15*%
X139489420Y-101890000D02*
X139770580Y-101890000D01*
X139489420Y-102910000D02*
X139770580Y-102910000D01*
%TO.C,C23*%
X135055000Y-90751252D02*
X135055000Y-90228748D01*
X136525000Y-90751252D02*
X136525000Y-90228748D01*
%TO.C,SW2*%
X113030000Y-88610000D02*
X113030000Y-93010000D01*
X114530000Y-88610000D02*
X114630000Y-88610000D01*
X114530000Y-93010000D02*
X114630000Y-93010000D01*
X116130000Y-93010000D02*
X116130000Y-88610000D01*
%TO.C,CFAL12856A1*%
D13*
X113670000Y-82352500D02*
X115670000Y-82352500D01*
X113670000Y-85652500D02*
X113670000Y-82352500D01*
X115670000Y-85652500D02*
X113670000Y-85652500D01*
X130770000Y-85652500D02*
X132770000Y-85652500D01*
X132770000Y-82352500D02*
X130770000Y-82352500D01*
X132770000Y-85652500D02*
X132770000Y-82352500D01*
X129070000Y-81252500D02*
G75*
G02*
X128870000Y-81252500I-100000J0D01*
G01*
X128870000Y-81252500D02*
G75*
G02*
X129070000Y-81252500I100000J0D01*
G01*
%TO.C,C25*%
D12*
X104905000Y-102621252D02*
X104905000Y-102098748D01*
X106375000Y-102621252D02*
X106375000Y-102098748D01*
%TO.C,R36*%
X108117742Y-103037500D02*
X108592258Y-103037500D01*
X108117742Y-104082500D02*
X108592258Y-104082500D01*
%TO.C,MCP1*%
X134997500Y-101610000D02*
X136817500Y-101610000D01*
X134997500Y-101660000D02*
X134997500Y-101610000D01*
X134997500Y-103560000D02*
X134997500Y-102780000D01*
X134997500Y-104730000D02*
X134997500Y-104680000D01*
X136817500Y-101610000D02*
X136817500Y-101660000D01*
X136817500Y-104680000D02*
X136817500Y-104730000D01*
X136817500Y-104730000D02*
X134997500Y-104730000D01*
X137597500Y-105010000D02*
X137117500Y-105010000D01*
X137357500Y-104680000D01*
X137597500Y-105010000D01*
G36*
X137597500Y-105010000D02*
G01*
X137117500Y-105010000D01*
X137357500Y-104680000D01*
X137597500Y-105010000D01*
G37*
%TO.C,C14*%
X109365000Y-89951252D02*
X109365000Y-89428748D01*
X110835000Y-89951252D02*
X110835000Y-89428748D01*
%TO.C,C8*%
X118198748Y-101305000D02*
X118721252Y-101305000D01*
X118198748Y-102775000D02*
X118721252Y-102775000D01*
%TO.C,R25*%
X134452742Y-86757500D02*
X134927258Y-86757500D01*
X134452742Y-87802500D02*
X134927258Y-87802500D01*
%TO.C,D6*%
X130890000Y-91590000D02*
X130890000Y-87580000D01*
X130890000Y-91590000D02*
X132890000Y-91590000D01*
X132890000Y-91590000D02*
X132890000Y-87580000D01*
%TO.C,CC1*%
D14*
X107975000Y-110495000D02*
X107975000Y-109355000D01*
X112640000Y-106495000D02*
X108440000Y-106495000D01*
X113105000Y-109355000D02*
X113105000Y-110495000D01*
X113105000Y-110495000D02*
X107975000Y-110495000D01*
%TO.C,C16*%
D12*
X102885000Y-102078748D02*
X102885000Y-102601252D01*
X104355000Y-102078748D02*
X104355000Y-102601252D01*
%TO.C,BT1*%
D15*
X142101000Y-101985000D02*
G75*
G02*
X141339000Y-101985000I-381000J0D01*
G01*
X141339000Y-101985000D02*
G75*
G02*
X142101000Y-101985000I381000J0D01*
G01*
%TD*%
M02*
